M48
;DRILL file {KiCad 4.0.6-e0-6349~52~ubuntu16.10.1} date Fri Apr 28 23:22:45 2017
;FORMAT={-:-/ absolute / metric / decimal}
FMAT,2
METRIC,TZ
T1C0.400
T2C0.762
T3C1.000
%
G90
G05
M71
T1
X195.097Y-71.679
T2
X158.394Y-113.03
X160.394Y-113.03
X162.394Y-113.03
X164.394Y-113.03
T3
X149.86Y-71.12
X149.86Y-73.66
X149.86Y-76.2
X149.86Y-78.74
X149.86Y-81.28
X149.86Y-83.82
X149.86Y-86.36
X149.86Y-88.9
X149.86Y-91.44
X149.86Y-93.98
X149.86Y-96.52
X149.86Y-99.06
X149.86Y-101.6
X149.86Y-104.14
X149.86Y-106.68
X149.86Y-109.22
X149.86Y-111.76
X152.425Y-71.12
X152.425Y-73.66
X152.425Y-76.2
X152.425Y-78.74
X152.425Y-81.28
X152.425Y-83.82
X152.425Y-86.36
X152.425Y-88.9
X152.425Y-91.44
X152.425Y-93.98
X152.425Y-96.52
X152.425Y-99.06
X152.425Y-101.6
X152.425Y-104.14
X152.425Y-106.68
X152.425Y-109.22
X152.425Y-111.76
X154.991Y-71.12
X154.991Y-73.66
X154.991Y-76.2
X154.991Y-78.74
X154.991Y-81.28
X154.991Y-83.82
X154.991Y-86.36
X154.991Y-88.9
X154.991Y-91.44
X154.991Y-93.98
X154.991Y-96.52
X154.991Y-99.06
X154.991Y-101.6
X154.991Y-104.14
X154.991Y-106.68
X154.991Y-109.22
X157.531Y-71.12
X157.531Y-73.66
X157.531Y-76.2
X157.531Y-78.74
X157.531Y-81.28
X157.531Y-83.82
X157.531Y-86.36
X157.531Y-88.9
X157.531Y-91.44
X157.531Y-93.98
X157.531Y-96.52
X157.531Y-99.06
X157.531Y-101.6
X157.531Y-104.14
X157.531Y-106.68
X157.531Y-109.22
X160.071Y-71.12
X160.071Y-73.66
X160.071Y-76.2
X160.071Y-78.74
X160.071Y-81.28
X160.071Y-83.82
X160.071Y-86.36
X160.071Y-88.9
X160.071Y-91.44
X160.071Y-93.98
X160.071Y-96.52
X160.071Y-99.06
X160.071Y-101.6
X160.071Y-104.14
X160.071Y-106.68
X160.071Y-109.22
X162.611Y-71.12
X162.611Y-73.66
X162.611Y-76.2
X162.611Y-78.74
X162.611Y-81.28
X162.611Y-83.82
X162.611Y-86.36
X162.611Y-88.9
X162.611Y-91.44
X162.611Y-93.98
X162.611Y-96.52
X162.611Y-99.06
X162.611Y-101.6
X162.611Y-104.14
X162.611Y-106.68
X162.611Y-109.22
X165.151Y-71.12
X165.151Y-73.66
X165.151Y-76.2
X165.151Y-78.74
X165.151Y-81.28
X165.151Y-83.82
X165.151Y-86.36
X165.151Y-88.9
X165.151Y-91.44
X165.151Y-93.98
X165.151Y-96.52
X165.151Y-99.06
X165.151Y-101.6
X165.151Y-104.14
X165.151Y-106.68
X165.151Y-109.22
X167.691Y-71.12
X167.691Y-73.66
X167.691Y-76.2
X167.691Y-78.74
X167.691Y-81.28
X167.691Y-83.82
X167.691Y-86.36
X167.691Y-88.9
X167.691Y-91.44
X167.691Y-93.98
X167.691Y-96.52
X167.691Y-99.06
X167.691Y-101.6
X167.691Y-104.14
X167.691Y-106.68
X167.691Y-109.22
X170.231Y-71.12
X170.231Y-73.66
X170.231Y-76.2
X170.231Y-78.74
X170.231Y-81.28
X170.231Y-83.82
X170.231Y-86.36
X170.231Y-88.9
X170.231Y-91.44
X170.231Y-93.98
X170.231Y-96.52
X170.231Y-99.06
X170.231Y-101.6
X170.231Y-104.14
X170.231Y-106.68
X170.231Y-109.22
X170.231Y-117.551
X172.771Y-71.12
X172.771Y-73.66
X172.771Y-76.2
X172.771Y-78.74
X172.771Y-81.28
X172.771Y-83.82
X172.771Y-86.36
X172.771Y-88.9
X172.771Y-91.44
X172.771Y-93.98
X172.771Y-96.52
X172.771Y-99.06
X172.771Y-101.6
X172.771Y-104.14
X172.771Y-106.68
X172.771Y-109.22
X172.771Y-117.551
X175.311Y-71.12
X175.311Y-73.66
X175.311Y-76.2
X175.311Y-78.74
X175.311Y-81.28
X175.311Y-83.82
X175.311Y-86.36
X175.311Y-88.9
X175.311Y-91.44
X175.311Y-93.98
X175.311Y-96.52
X175.311Y-99.06
X175.311Y-101.6
X175.311Y-104.14
X175.311Y-106.68
X175.311Y-109.22
X175.311Y-117.551
X177.851Y-71.12
X177.851Y-73.66
X177.851Y-76.2
X177.851Y-78.74
X177.851Y-81.28
X177.851Y-83.82
X177.851Y-86.36
X177.851Y-88.9
X177.851Y-91.44
X177.851Y-93.98
X177.851Y-96.52
X177.851Y-99.06
X177.851Y-101.6
X177.851Y-104.14
X177.851Y-106.68
X177.851Y-109.22
X180.391Y-71.12
X180.391Y-73.66
X180.391Y-76.2
X180.391Y-78.74
X180.391Y-81.28
X180.391Y-83.82
X180.391Y-86.36
X180.391Y-88.9
X180.391Y-91.44
X180.391Y-93.98
X180.391Y-96.52
X180.391Y-99.06
X180.391Y-101.6
X180.391Y-104.14
X180.391Y-106.68
X180.391Y-109.22
X182.931Y-71.12
X182.931Y-73.66
X182.931Y-76.2
X182.931Y-78.74
X182.931Y-81.28
X182.931Y-83.82
X182.931Y-86.36
X182.931Y-88.9
X182.931Y-91.44
X182.931Y-93.98
X182.931Y-96.52
X182.931Y-99.06
X182.931Y-101.6
X182.931Y-104.14
X182.931Y-106.68
X182.931Y-109.22
X185.471Y-71.12
X185.471Y-73.66
X185.471Y-76.2
X185.471Y-78.74
X185.471Y-81.28
X185.471Y-83.82
X185.471Y-86.36
X185.471Y-88.9
X185.471Y-91.44
X185.471Y-93.98
X185.471Y-96.52
X185.471Y-99.06
X185.471Y-101.6
X185.471Y-104.14
X185.471Y-106.68
X185.471Y-109.22
X188.011Y-71.12
X188.011Y-73.66
X188.011Y-76.2
X188.011Y-78.74
X188.011Y-81.28
X188.011Y-83.82
X188.011Y-86.36
X188.011Y-88.9
X188.011Y-91.44
X188.011Y-93.98
X188.011Y-96.52
X188.011Y-99.06
X188.011Y-101.6
X188.011Y-104.14
X188.011Y-106.68
X188.011Y-109.22
X190.551Y-73.66
X190.551Y-76.2
X190.551Y-78.74
X190.551Y-81.28
X190.551Y-83.82
X190.551Y-86.36
X190.551Y-88.9
X190.551Y-91.44
X190.551Y-93.98
X190.551Y-96.52
X190.551Y-99.06
X190.551Y-101.6
X190.551Y-104.14
X190.551Y-106.68
X190.551Y-109.22
X190.551Y-111.76
X193.103Y-73.66
X193.103Y-76.2
X193.103Y-78.74
X193.103Y-81.28
X193.103Y-83.82
X193.103Y-86.36
X193.103Y-88.9
X193.103Y-91.44
X193.103Y-93.98
X193.103Y-96.52
X193.103Y-99.06
X193.103Y-101.6
X193.103Y-104.14
X193.103Y-106.68
X193.103Y-109.22
X193.103Y-111.76
T0
M30
