M48
;DRILL file {KiCad 4.0.6-e0-6349~52~ubuntu16.10.1} date Fri Apr 21 00:28:47 2017
;FORMAT={-:-/ absolute / metric / decimal}
FMAT,2
METRIC,TZ
T1C0.400
T2C1.000
%
G90
G05
M71
T1
X156.185Y-75.997
X159.639Y-97.282
X159.639Y-109.982
X161.874Y-81.483
X162.179Y-84.582
X167.411Y-86.97
X172.339Y-82.042
X172.339Y-99.822
X173.711Y-93.472
X179.705Y-99.111
X179.959Y-109.982
X182.499Y-97.282
X185.039Y-82.042
X185.598Y-105.054
X187.579Y-71.882
T2
X149.86Y-71.12
X149.86Y-73.66
X149.86Y-76.2
X149.86Y-78.74
X149.86Y-81.28
X149.86Y-83.82
X149.86Y-86.36
X149.86Y-88.9
X149.86Y-91.44
X149.86Y-93.98
X149.86Y-96.52
X149.86Y-99.06
X149.86Y-101.6
X149.86Y-104.14
X149.86Y-106.68
X149.86Y-109.22
X149.86Y-111.76
X152.425Y-71.12
X152.425Y-73.66
X152.425Y-76.2
X152.425Y-78.74
X152.425Y-81.28
X152.425Y-83.82
X152.425Y-86.36
X152.425Y-88.9
X152.425Y-91.44
X152.425Y-93.98
X152.425Y-96.52
X152.425Y-99.06
X152.425Y-101.6
X152.425Y-104.14
X152.425Y-106.68
X152.425Y-109.22
X152.425Y-111.76
X190.424Y-73.66
X190.424Y-76.2
X190.424Y-78.74
X190.424Y-81.28
X190.424Y-83.82
X190.424Y-86.36
X190.424Y-88.9
X190.424Y-91.44
X190.424Y-93.98
X190.424Y-96.52
X190.424Y-99.06
X190.424Y-101.6
X190.424Y-104.14
X190.424Y-106.68
X190.424Y-109.22
X190.424Y-111.76
X192.976Y-73.66
X192.976Y-76.2
X192.976Y-78.74
X192.976Y-81.28
X192.976Y-83.82
X192.976Y-86.36
X192.976Y-88.9
X192.976Y-91.44
X192.976Y-93.98
X192.976Y-96.52
X192.976Y-99.06
X192.976Y-101.6
X192.976Y-104.14
X192.976Y-106.68
X192.976Y-109.22
X192.976Y-111.76
T0
M30
