G04 #@! TF.FileFunction,Legend,Bot*
%FSLAX46Y46*%
G04 Gerber Fmt 4.6, Leading zero omitted, Abs format (unit mm)*
G04 Created by KiCad (PCBNEW 4.0.6-e0-6349~52~ubuntu16.10.1) date Fri Apr 28 23:22:40 2017*
%MOMM*%
%LPD*%
G01*
G04 APERTURE LIST*
%ADD10C,0.100000*%
%ADD11C,0.200000*%
%ADD12C,0.500000*%
%ADD13C,0.175000*%
%ADD14C,0.010000*%
%ADD15C,1.924000*%
%ADD16R,2.100000X2.100000*%
%ADD17O,2.100000X2.100000*%
G04 APERTURE END LIST*
D10*
D11*
X189280800Y-72390000D02*
X189280800Y-113017300D01*
X153708100Y-113030000D02*
X153708100Y-69850000D01*
D12*
X186755560Y-112110857D02*
X186022227Y-112110857D01*
X185707941Y-113263238D02*
X186755560Y-113263238D01*
X186755560Y-111063238D01*
X185707941Y-111063238D01*
X184765084Y-113263238D02*
X184765084Y-111796571D01*
X184765084Y-112006095D02*
X184660323Y-111901333D01*
X184450799Y-111796571D01*
X184136513Y-111796571D01*
X183926989Y-111901333D01*
X183822227Y-112110857D01*
X183822227Y-113263238D01*
X183822227Y-112110857D02*
X183717465Y-111901333D01*
X183507942Y-111796571D01*
X183193656Y-111796571D01*
X182984132Y-111901333D01*
X182879370Y-112110857D01*
X182879370Y-113263238D01*
X181831751Y-111796571D02*
X181831751Y-113996571D01*
X181831751Y-111901333D02*
X181622228Y-111796571D01*
X181203180Y-111796571D01*
X180993656Y-111901333D01*
X180888894Y-112006095D01*
X180784132Y-112215619D01*
X180784132Y-112844190D01*
X180888894Y-113053714D01*
X180993656Y-113158476D01*
X181203180Y-113263238D01*
X181622228Y-113263238D01*
X181831751Y-113158476D01*
X180155561Y-111796571D02*
X179317466Y-111796571D01*
X179841275Y-111063238D02*
X179841275Y-112948952D01*
X179736514Y-113158476D01*
X179526990Y-113263238D01*
X179317466Y-113263238D01*
X178793656Y-111796571D02*
X178269847Y-113263238D01*
X177746037Y-111796571D02*
X178269847Y-113263238D01*
X178479371Y-113787048D01*
X178584132Y-113891810D01*
X178793656Y-113996571D01*
X177012704Y-113158476D02*
X176698419Y-113263238D01*
X176174609Y-113263238D01*
X175965085Y-113158476D01*
X175860323Y-113053714D01*
X175755562Y-112844190D01*
X175755562Y-112634667D01*
X175860323Y-112425143D01*
X175965085Y-112320381D01*
X176174609Y-112215619D01*
X176593657Y-112110857D01*
X176803181Y-112006095D01*
X176907942Y-111901333D01*
X177012704Y-111691810D01*
X177012704Y-111482286D01*
X176907942Y-111272762D01*
X176803181Y-111168000D01*
X176593657Y-111063238D01*
X176069847Y-111063238D01*
X175755562Y-111168000D01*
X175126990Y-111796571D02*
X174288895Y-111796571D01*
X174812704Y-111063238D02*
X174812704Y-112948952D01*
X174707943Y-113158476D01*
X174498419Y-113263238D01*
X174288895Y-113263238D01*
X172612704Y-113263238D02*
X172612704Y-112110857D01*
X172717466Y-111901333D01*
X172926990Y-111796571D01*
X173346038Y-111796571D01*
X173555561Y-111901333D01*
X172612704Y-113158476D02*
X172822228Y-113263238D01*
X173346038Y-113263238D01*
X173555561Y-113158476D01*
X173660323Y-112948952D01*
X173660323Y-112739429D01*
X173555561Y-112529905D01*
X173346038Y-112425143D01*
X172822228Y-112425143D01*
X172612704Y-112320381D01*
X170622228Y-113158476D02*
X170831752Y-113263238D01*
X171250800Y-113263238D01*
X171460324Y-113158476D01*
X171565085Y-113053714D01*
X171669847Y-112844190D01*
X171669847Y-112215619D01*
X171565085Y-112006095D01*
X171460324Y-111901333D01*
X171250800Y-111796571D01*
X170831752Y-111796571D01*
X170622228Y-111901333D01*
X169679371Y-113263238D02*
X169679371Y-111063238D01*
X169469848Y-112425143D02*
X168841276Y-113263238D01*
X168841276Y-111796571D02*
X169679371Y-112634667D01*
D13*
X195541067Y-81226834D02*
X195207733Y-80993500D01*
X195541067Y-80826834D02*
X194841067Y-80826834D01*
X194841067Y-81093500D01*
X194874400Y-81160167D01*
X194907733Y-81193500D01*
X194974400Y-81226834D01*
X195074400Y-81226834D01*
X195141067Y-81193500D01*
X195174400Y-81160167D01*
X195207733Y-81093500D01*
X195207733Y-80826834D01*
X194841067Y-81460167D02*
X195541067Y-81926834D01*
X194841067Y-81926834D02*
X195541067Y-81460167D01*
X147384333Y-99910000D02*
X148084333Y-99910000D01*
X148084333Y-99743334D01*
X148051000Y-99643334D01*
X147984333Y-99576667D01*
X147917667Y-99543334D01*
X147784333Y-99510000D01*
X147684333Y-99510000D01*
X147551000Y-99543334D01*
X147484333Y-99576667D01*
X147417667Y-99643334D01*
X147384333Y-99743334D01*
X147384333Y-99910000D01*
X148017667Y-99243334D02*
X148051000Y-99210000D01*
X148084333Y-99143334D01*
X148084333Y-98976667D01*
X148051000Y-98910000D01*
X148017667Y-98876667D01*
X147951000Y-98843334D01*
X147884333Y-98843334D01*
X147784333Y-98876667D01*
X147384333Y-99276667D01*
X147384333Y-98843334D01*
X148084333Y-98610000D02*
X148084333Y-98143333D01*
X147384333Y-98443333D01*
X194874400Y-111226667D02*
X194841067Y-111160001D01*
X194841067Y-111060001D01*
X194874400Y-110960001D01*
X194941067Y-110893334D01*
X195007733Y-110860001D01*
X195141067Y-110826667D01*
X195241067Y-110826667D01*
X195374400Y-110860001D01*
X195441067Y-110893334D01*
X195507733Y-110960001D01*
X195541067Y-111060001D01*
X195541067Y-111126667D01*
X195507733Y-111226667D01*
X195474400Y-111260001D01*
X195241067Y-111260001D01*
X195241067Y-111126667D01*
X195541067Y-111560001D02*
X194841067Y-111560001D01*
X195541067Y-111960001D01*
X194841067Y-111960001D01*
X195541067Y-112293334D02*
X194841067Y-112293334D01*
X194841067Y-112460000D01*
X194874400Y-112560000D01*
X194941067Y-112626667D01*
X195007733Y-112660000D01*
X195141067Y-112693334D01*
X195241067Y-112693334D01*
X195374400Y-112660000D01*
X195441067Y-112626667D01*
X195507733Y-112560000D01*
X195541067Y-112460000D01*
X195541067Y-112293334D01*
D11*
X186478799Y-115080286D02*
X186478799Y-115970762D01*
X186531180Y-116075524D01*
X186583561Y-116127905D01*
X186688322Y-116180286D01*
X186845465Y-116180286D01*
X186950227Y-116127905D01*
X186478799Y-115761238D02*
X186583561Y-115813619D01*
X186793084Y-115813619D01*
X186897846Y-115761238D01*
X186950227Y-115708857D01*
X187002608Y-115604095D01*
X187002608Y-115289810D01*
X186950227Y-115185048D01*
X186897846Y-115132667D01*
X186793084Y-115080286D01*
X186583561Y-115080286D01*
X186478799Y-115132667D01*
X185954989Y-115813619D02*
X185954989Y-115080286D01*
X185954989Y-114713619D02*
X186007370Y-114766000D01*
X185954989Y-114818381D01*
X185902608Y-114766000D01*
X185954989Y-114713619D01*
X185954989Y-114818381D01*
X185588322Y-115080286D02*
X185169274Y-115080286D01*
X185431179Y-114713619D02*
X185431179Y-115656476D01*
X185378798Y-115761238D01*
X185274036Y-115813619D01*
X185169274Y-115813619D01*
X184802608Y-115813619D02*
X184802608Y-114713619D01*
X184331180Y-115813619D02*
X184331180Y-115237429D01*
X184383561Y-115132667D01*
X184488323Y-115080286D01*
X184645465Y-115080286D01*
X184750227Y-115132667D01*
X184802608Y-115185048D01*
X183335942Y-115080286D02*
X183335942Y-115813619D01*
X183807370Y-115080286D02*
X183807370Y-115656476D01*
X183754989Y-115761238D01*
X183650227Y-115813619D01*
X183493085Y-115813619D01*
X183388323Y-115761238D01*
X183335942Y-115708857D01*
X182812132Y-115813619D02*
X182812132Y-114713619D01*
X182812132Y-115132667D02*
X182707370Y-115080286D01*
X182497847Y-115080286D01*
X182393085Y-115132667D01*
X182340704Y-115185048D01*
X182288323Y-115289810D01*
X182288323Y-115604095D01*
X182340704Y-115708857D01*
X182393085Y-115761238D01*
X182497847Y-115813619D01*
X182707370Y-115813619D01*
X182812132Y-115761238D01*
X181816894Y-115708857D02*
X181764513Y-115761238D01*
X181816894Y-115813619D01*
X181869275Y-115761238D01*
X181816894Y-115708857D01*
X181816894Y-115813619D01*
X180821656Y-115761238D02*
X180926418Y-115813619D01*
X181135941Y-115813619D01*
X181240703Y-115761238D01*
X181293084Y-115708857D01*
X181345465Y-115604095D01*
X181345465Y-115289810D01*
X181293084Y-115185048D01*
X181240703Y-115132667D01*
X181135941Y-115080286D01*
X180926418Y-115080286D01*
X180821656Y-115132667D01*
X180193084Y-115813619D02*
X180297846Y-115761238D01*
X180350227Y-115708857D01*
X180402608Y-115604095D01*
X180402608Y-115289810D01*
X180350227Y-115185048D01*
X180297846Y-115132667D01*
X180193084Y-115080286D01*
X180035942Y-115080286D01*
X179931180Y-115132667D01*
X179878799Y-115185048D01*
X179826418Y-115289810D01*
X179826418Y-115604095D01*
X179878799Y-115708857D01*
X179931180Y-115761238D01*
X180035942Y-115813619D01*
X180193084Y-115813619D01*
X179354989Y-115813619D02*
X179354989Y-115080286D01*
X179354989Y-115185048D02*
X179302608Y-115132667D01*
X179197846Y-115080286D01*
X179040704Y-115080286D01*
X178935942Y-115132667D01*
X178883561Y-115237429D01*
X178883561Y-115813619D01*
X178883561Y-115237429D02*
X178831180Y-115132667D01*
X178726418Y-115080286D01*
X178569275Y-115080286D01*
X178464513Y-115132667D01*
X178412132Y-115237429D01*
X178412132Y-115813619D01*
X177102608Y-114661238D02*
X178045465Y-116075524D01*
X176264513Y-115813619D02*
X176264513Y-115237429D01*
X176316894Y-115132667D01*
X176421656Y-115080286D01*
X176631179Y-115080286D01*
X176735941Y-115132667D01*
X176264513Y-115761238D02*
X176369275Y-115813619D01*
X176631179Y-115813619D01*
X176735941Y-115761238D01*
X176788322Y-115656476D01*
X176788322Y-115551714D01*
X176735941Y-115446952D01*
X176631179Y-115394571D01*
X176369275Y-115394571D01*
X176264513Y-115342190D01*
X175793084Y-115761238D02*
X175688322Y-115813619D01*
X175478798Y-115813619D01*
X175374037Y-115761238D01*
X175321656Y-115656476D01*
X175321656Y-115604095D01*
X175374037Y-115499333D01*
X175478798Y-115446952D01*
X175635941Y-115446952D01*
X175740703Y-115394571D01*
X175793084Y-115289810D01*
X175793084Y-115237429D01*
X175740703Y-115132667D01*
X175635941Y-115080286D01*
X175478798Y-115080286D01*
X175374037Y-115132667D01*
X174378799Y-115080286D02*
X174378799Y-115813619D01*
X174850227Y-115080286D02*
X174850227Y-115656476D01*
X174797846Y-115761238D01*
X174693084Y-115813619D01*
X174535942Y-115813619D01*
X174431180Y-115761238D01*
X174378799Y-115708857D01*
X173854989Y-115813619D02*
X173854989Y-114713619D01*
X173750227Y-115394571D02*
X173435942Y-115813619D01*
X173435942Y-115080286D02*
X173854989Y-115499333D01*
X172964513Y-115813619D02*
X172964513Y-115080286D01*
X172964513Y-114713619D02*
X173016894Y-114766000D01*
X172964513Y-114818381D01*
X172912132Y-114766000D01*
X172964513Y-114713619D01*
X172964513Y-114818381D01*
X171969275Y-115813619D02*
X171969275Y-115237429D01*
X172021656Y-115132667D01*
X172126418Y-115080286D01*
X172335941Y-115080286D01*
X172440703Y-115132667D01*
X171969275Y-115761238D02*
X172074037Y-115813619D01*
X172335941Y-115813619D01*
X172440703Y-115761238D01*
X172493084Y-115656476D01*
X172493084Y-115551714D01*
X172440703Y-115446952D01*
X172335941Y-115394571D01*
X172074037Y-115394571D01*
X171969275Y-115342190D01*
X170974037Y-115813619D02*
X170974037Y-115237429D01*
X171026418Y-115132667D01*
X171131180Y-115080286D01*
X171340703Y-115080286D01*
X171445465Y-115132667D01*
X170974037Y-115761238D02*
X171078799Y-115813619D01*
X171340703Y-115813619D01*
X171445465Y-115761238D01*
X171497846Y-115656476D01*
X171497846Y-115551714D01*
X171445465Y-115446952D01*
X171340703Y-115394571D01*
X171078799Y-115394571D01*
X170974037Y-115342190D01*
X169978799Y-115813619D02*
X169978799Y-115237429D01*
X170031180Y-115132667D01*
X170135942Y-115080286D01*
X170345465Y-115080286D01*
X170450227Y-115132667D01*
X169978799Y-115761238D02*
X170083561Y-115813619D01*
X170345465Y-115813619D01*
X170450227Y-115761238D01*
X170502608Y-115656476D01*
X170502608Y-115551714D01*
X170450227Y-115446952D01*
X170345465Y-115394571D01*
X170083561Y-115394571D01*
X169978799Y-115342190D01*
X168669275Y-114661238D02*
X169612132Y-116075524D01*
X167883561Y-115761238D02*
X167988323Y-115813619D01*
X168197846Y-115813619D01*
X168302608Y-115761238D01*
X168354989Y-115656476D01*
X168354989Y-115237429D01*
X168302608Y-115132667D01*
X168197846Y-115080286D01*
X167988323Y-115080286D01*
X167883561Y-115132667D01*
X167831180Y-115237429D01*
X167831180Y-115342190D01*
X168354989Y-115446952D01*
X167359751Y-115813619D02*
X167359751Y-115080286D01*
X167359751Y-115185048D02*
X167307370Y-115132667D01*
X167202608Y-115080286D01*
X167045466Y-115080286D01*
X166940704Y-115132667D01*
X166888323Y-115237429D01*
X166888323Y-115813619D01*
X166888323Y-115237429D02*
X166835942Y-115132667D01*
X166731180Y-115080286D01*
X166574037Y-115080286D01*
X166469275Y-115132667D01*
X166416894Y-115237429D01*
X166416894Y-115813619D01*
X165893084Y-115080286D02*
X165893084Y-116180286D01*
X165893084Y-115132667D02*
X165788322Y-115080286D01*
X165578799Y-115080286D01*
X165474037Y-115132667D01*
X165421656Y-115185048D01*
X165369275Y-115289810D01*
X165369275Y-115604095D01*
X165421656Y-115708857D01*
X165474037Y-115761238D01*
X165578799Y-115813619D01*
X165788322Y-115813619D01*
X165893084Y-115761238D01*
X165054989Y-115080286D02*
X164635941Y-115080286D01*
X164897846Y-114713619D02*
X164897846Y-115656476D01*
X164845465Y-115761238D01*
X164740703Y-115813619D01*
X164635941Y-115813619D01*
X164374037Y-115080286D02*
X164112132Y-115813619D01*
X163850228Y-115080286D02*
X164112132Y-115813619D01*
X164216894Y-116075524D01*
X164269275Y-116127905D01*
X164374037Y-116180286D01*
X163483561Y-115761238D02*
X163378799Y-115813619D01*
X163169275Y-115813619D01*
X163064514Y-115761238D01*
X163012133Y-115656476D01*
X163012133Y-115604095D01*
X163064514Y-115499333D01*
X163169275Y-115446952D01*
X163326418Y-115446952D01*
X163431180Y-115394571D01*
X163483561Y-115289810D01*
X163483561Y-115237429D01*
X163431180Y-115132667D01*
X163326418Y-115080286D01*
X163169275Y-115080286D01*
X163064514Y-115132667D01*
X162697847Y-115080286D02*
X162278799Y-115080286D01*
X162540704Y-114713619D02*
X162540704Y-115656476D01*
X162488323Y-115761238D01*
X162383561Y-115813619D01*
X162278799Y-115813619D01*
X161440705Y-115813619D02*
X161440705Y-115237429D01*
X161493086Y-115132667D01*
X161597848Y-115080286D01*
X161807371Y-115080286D01*
X161912133Y-115132667D01*
X161440705Y-115761238D02*
X161545467Y-115813619D01*
X161807371Y-115813619D01*
X161912133Y-115761238D01*
X161964514Y-115656476D01*
X161964514Y-115551714D01*
X161912133Y-115446952D01*
X161807371Y-115394571D01*
X161545467Y-115394571D01*
X161440705Y-115342190D01*
X160445467Y-115761238D02*
X160550229Y-115813619D01*
X160759752Y-115813619D01*
X160864514Y-115761238D01*
X160916895Y-115708857D01*
X160969276Y-115604095D01*
X160969276Y-115289810D01*
X160916895Y-115185048D01*
X160864514Y-115132667D01*
X160759752Y-115080286D01*
X160550229Y-115080286D01*
X160445467Y-115132667D01*
X159974038Y-115813619D02*
X159974038Y-114713619D01*
X159869276Y-115394571D02*
X159554991Y-115813619D01*
X159554991Y-115080286D02*
X159974038Y-115499333D01*
D13*
X195541067Y-72810000D02*
X194841067Y-72810000D01*
X194841067Y-72976666D01*
X194874400Y-73076666D01*
X194941067Y-73143333D01*
X195007733Y-73176666D01*
X195141067Y-73210000D01*
X195241067Y-73210000D01*
X195374400Y-73176666D01*
X195441067Y-73143333D01*
X195507733Y-73076666D01*
X195541067Y-72976666D01*
X195541067Y-72810000D01*
X194907733Y-73476666D02*
X194874400Y-73510000D01*
X194841067Y-73576666D01*
X194841067Y-73743333D01*
X194874400Y-73810000D01*
X194907733Y-73843333D01*
X194974400Y-73876666D01*
X195041067Y-73876666D01*
X195141067Y-73843333D01*
X195541067Y-73443333D01*
X195541067Y-73876666D01*
X194841067Y-74110000D02*
X194841067Y-74543333D01*
X195107733Y-74310000D01*
X195107733Y-74410000D01*
X195141067Y-74476667D01*
X195174400Y-74510000D01*
X195241067Y-74543333D01*
X195407733Y-74543333D01*
X195474400Y-74510000D01*
X195507733Y-74476667D01*
X195541067Y-74410000D01*
X195541067Y-74210000D01*
X195507733Y-74143333D01*
X195474400Y-74110000D01*
X195541067Y-75350000D02*
X194841067Y-75350000D01*
X194841067Y-75516666D01*
X194874400Y-75616666D01*
X194941067Y-75683333D01*
X195007733Y-75716666D01*
X195141067Y-75750000D01*
X195241067Y-75750000D01*
X195374400Y-75716666D01*
X195441067Y-75683333D01*
X195507733Y-75616666D01*
X195541067Y-75516666D01*
X195541067Y-75350000D01*
X194907733Y-76016666D02*
X194874400Y-76050000D01*
X194841067Y-76116666D01*
X194841067Y-76283333D01*
X194874400Y-76350000D01*
X194907733Y-76383333D01*
X194974400Y-76416666D01*
X195041067Y-76416666D01*
X195141067Y-76383333D01*
X195541067Y-75983333D01*
X195541067Y-76416666D01*
X194907733Y-76683333D02*
X194874400Y-76716667D01*
X194841067Y-76783333D01*
X194841067Y-76950000D01*
X194874400Y-77016667D01*
X194907733Y-77050000D01*
X194974400Y-77083333D01*
X195041067Y-77083333D01*
X195141067Y-77050000D01*
X195541067Y-76650000D01*
X195541067Y-77083333D01*
X195541067Y-82970000D02*
X194841067Y-82970000D01*
X194841067Y-83136666D01*
X194874400Y-83236666D01*
X194941067Y-83303333D01*
X195007733Y-83336666D01*
X195141067Y-83370000D01*
X195241067Y-83370000D01*
X195374400Y-83336666D01*
X195441067Y-83303333D01*
X195507733Y-83236666D01*
X195541067Y-83136666D01*
X195541067Y-82970000D01*
X194907733Y-83636666D02*
X194874400Y-83670000D01*
X194841067Y-83736666D01*
X194841067Y-83903333D01*
X194874400Y-83970000D01*
X194907733Y-84003333D01*
X194974400Y-84036666D01*
X195041067Y-84036666D01*
X195141067Y-84003333D01*
X195541067Y-83603333D01*
X195541067Y-84036666D01*
X195541067Y-84703333D02*
X195541067Y-84303333D01*
X195541067Y-84503333D02*
X194841067Y-84503333D01*
X194941067Y-84436667D01*
X195007733Y-84370000D01*
X195041067Y-84303333D01*
X195541067Y-85510000D02*
X194841067Y-85510000D01*
X194841067Y-85676666D01*
X194874400Y-85776666D01*
X194941067Y-85843333D01*
X195007733Y-85876666D01*
X195141067Y-85910000D01*
X195241067Y-85910000D01*
X195374400Y-85876666D01*
X195441067Y-85843333D01*
X195507733Y-85776666D01*
X195541067Y-85676666D01*
X195541067Y-85510000D01*
X195541067Y-86576666D02*
X195541067Y-86176666D01*
X195541067Y-86376666D02*
X194841067Y-86376666D01*
X194941067Y-86310000D01*
X195007733Y-86243333D01*
X195041067Y-86176666D01*
X195541067Y-86910000D02*
X195541067Y-87043333D01*
X195507733Y-87110000D01*
X195474400Y-87143333D01*
X195374400Y-87210000D01*
X195241067Y-87243333D01*
X194974400Y-87243333D01*
X194907733Y-87210000D01*
X194874400Y-87176667D01*
X194841067Y-87110000D01*
X194841067Y-86976667D01*
X194874400Y-86910000D01*
X194907733Y-86876667D01*
X194974400Y-86843333D01*
X195141067Y-86843333D01*
X195207733Y-86876667D01*
X195241067Y-86910000D01*
X195274400Y-86976667D01*
X195274400Y-87110000D01*
X195241067Y-87176667D01*
X195207733Y-87210000D01*
X195141067Y-87243333D01*
X195541067Y-88050000D02*
X194841067Y-88050000D01*
X194841067Y-88216666D01*
X194874400Y-88316666D01*
X194941067Y-88383333D01*
X195007733Y-88416666D01*
X195141067Y-88450000D01*
X195241067Y-88450000D01*
X195374400Y-88416666D01*
X195441067Y-88383333D01*
X195507733Y-88316666D01*
X195541067Y-88216666D01*
X195541067Y-88050000D01*
X195541067Y-89116666D02*
X195541067Y-88716666D01*
X195541067Y-88916666D02*
X194841067Y-88916666D01*
X194941067Y-88850000D01*
X195007733Y-88783333D01*
X195041067Y-88716666D01*
X195141067Y-89516667D02*
X195107733Y-89450000D01*
X195074400Y-89416667D01*
X195007733Y-89383333D01*
X194974400Y-89383333D01*
X194907733Y-89416667D01*
X194874400Y-89450000D01*
X194841067Y-89516667D01*
X194841067Y-89650000D01*
X194874400Y-89716667D01*
X194907733Y-89750000D01*
X194974400Y-89783333D01*
X195007733Y-89783333D01*
X195074400Y-89750000D01*
X195107733Y-89716667D01*
X195141067Y-89650000D01*
X195141067Y-89516667D01*
X195174400Y-89450000D01*
X195207733Y-89416667D01*
X195274400Y-89383333D01*
X195407733Y-89383333D01*
X195474400Y-89416667D01*
X195507733Y-89450000D01*
X195541067Y-89516667D01*
X195541067Y-89650000D01*
X195507733Y-89716667D01*
X195474400Y-89750000D01*
X195407733Y-89783333D01*
X195274400Y-89783333D01*
X195207733Y-89750000D01*
X195174400Y-89716667D01*
X195141067Y-89650000D01*
X195541067Y-90590000D02*
X194841067Y-90590000D01*
X194841067Y-90756666D01*
X194874400Y-90856666D01*
X194941067Y-90923333D01*
X195007733Y-90956666D01*
X195141067Y-90990000D01*
X195241067Y-90990000D01*
X195374400Y-90956666D01*
X195441067Y-90923333D01*
X195507733Y-90856666D01*
X195541067Y-90756666D01*
X195541067Y-90590000D01*
X194841067Y-91423333D02*
X194841067Y-91490000D01*
X194874400Y-91556666D01*
X194907733Y-91590000D01*
X194974400Y-91623333D01*
X195107733Y-91656666D01*
X195274400Y-91656666D01*
X195407733Y-91623333D01*
X195474400Y-91590000D01*
X195507733Y-91556666D01*
X195541067Y-91490000D01*
X195541067Y-91423333D01*
X195507733Y-91356666D01*
X195474400Y-91323333D01*
X195407733Y-91290000D01*
X195274400Y-91256666D01*
X195107733Y-91256666D01*
X194974400Y-91290000D01*
X194907733Y-91323333D01*
X194874400Y-91356666D01*
X194841067Y-91423333D01*
X194841067Y-92290000D02*
X194841067Y-91956667D01*
X195174400Y-91923333D01*
X195141067Y-91956667D01*
X195107733Y-92023333D01*
X195107733Y-92190000D01*
X195141067Y-92256667D01*
X195174400Y-92290000D01*
X195241067Y-92323333D01*
X195407733Y-92323333D01*
X195474400Y-92290000D01*
X195507733Y-92256667D01*
X195541067Y-92190000D01*
X195541067Y-92023333D01*
X195507733Y-91956667D01*
X195474400Y-91923333D01*
X195541067Y-93130000D02*
X194841067Y-93130000D01*
X194841067Y-93296666D01*
X194874400Y-93396666D01*
X194941067Y-93463333D01*
X195007733Y-93496666D01*
X195141067Y-93530000D01*
X195241067Y-93530000D01*
X195374400Y-93496666D01*
X195441067Y-93463333D01*
X195507733Y-93396666D01*
X195541067Y-93296666D01*
X195541067Y-93130000D01*
X195541067Y-94196666D02*
X195541067Y-93796666D01*
X195541067Y-93996666D02*
X194841067Y-93996666D01*
X194941067Y-93930000D01*
X195007733Y-93863333D01*
X195041067Y-93796666D01*
X194841067Y-94430000D02*
X194841067Y-94896667D01*
X195541067Y-94596667D01*
X195541067Y-95670000D02*
X194841067Y-95670000D01*
X194841067Y-95836666D01*
X194874400Y-95936666D01*
X194941067Y-96003333D01*
X195007733Y-96036666D01*
X195141067Y-96070000D01*
X195241067Y-96070000D01*
X195374400Y-96036666D01*
X195441067Y-96003333D01*
X195507733Y-95936666D01*
X195541067Y-95836666D01*
X195541067Y-95670000D01*
X195541067Y-96736666D02*
X195541067Y-96336666D01*
X195541067Y-96536666D02*
X194841067Y-96536666D01*
X194941067Y-96470000D01*
X195007733Y-96403333D01*
X195041067Y-96336666D01*
X194841067Y-97336667D02*
X194841067Y-97203333D01*
X194874400Y-97136667D01*
X194907733Y-97103333D01*
X195007733Y-97036667D01*
X195141067Y-97003333D01*
X195407733Y-97003333D01*
X195474400Y-97036667D01*
X195507733Y-97070000D01*
X195541067Y-97136667D01*
X195541067Y-97270000D01*
X195507733Y-97336667D01*
X195474400Y-97370000D01*
X195407733Y-97403333D01*
X195241067Y-97403333D01*
X195174400Y-97370000D01*
X195141067Y-97336667D01*
X195107733Y-97270000D01*
X195107733Y-97136667D01*
X195141067Y-97070000D01*
X195174400Y-97036667D01*
X195241067Y-97003333D01*
X195541067Y-98210000D02*
X194841067Y-98210000D01*
X194841067Y-98376666D01*
X194874400Y-98476666D01*
X194941067Y-98543333D01*
X195007733Y-98576666D01*
X195141067Y-98610000D01*
X195241067Y-98610000D01*
X195374400Y-98576666D01*
X195441067Y-98543333D01*
X195507733Y-98476666D01*
X195541067Y-98376666D01*
X195541067Y-98210000D01*
X194841067Y-99043333D02*
X194841067Y-99110000D01*
X194874400Y-99176666D01*
X194907733Y-99210000D01*
X194974400Y-99243333D01*
X195107733Y-99276666D01*
X195274400Y-99276666D01*
X195407733Y-99243333D01*
X195474400Y-99210000D01*
X195507733Y-99176666D01*
X195541067Y-99110000D01*
X195541067Y-99043333D01*
X195507733Y-98976666D01*
X195474400Y-98943333D01*
X195407733Y-98910000D01*
X195274400Y-98876666D01*
X195107733Y-98876666D01*
X194974400Y-98910000D01*
X194907733Y-98943333D01*
X194874400Y-98976666D01*
X194841067Y-99043333D01*
X195074400Y-99876667D02*
X195541067Y-99876667D01*
X194807733Y-99710000D02*
X195307733Y-99543333D01*
X195307733Y-99976667D01*
X195541067Y-100750000D02*
X194841067Y-100750000D01*
X194841067Y-100916666D01*
X194874400Y-101016666D01*
X194941067Y-101083333D01*
X195007733Y-101116666D01*
X195141067Y-101150000D01*
X195241067Y-101150000D01*
X195374400Y-101116666D01*
X195441067Y-101083333D01*
X195507733Y-101016666D01*
X195541067Y-100916666D01*
X195541067Y-100750000D01*
X194841067Y-101583333D02*
X194841067Y-101650000D01*
X194874400Y-101716666D01*
X194907733Y-101750000D01*
X194974400Y-101783333D01*
X195107733Y-101816666D01*
X195274400Y-101816666D01*
X195407733Y-101783333D01*
X195474400Y-101750000D01*
X195507733Y-101716666D01*
X195541067Y-101650000D01*
X195541067Y-101583333D01*
X195507733Y-101516666D01*
X195474400Y-101483333D01*
X195407733Y-101450000D01*
X195274400Y-101416666D01*
X195107733Y-101416666D01*
X194974400Y-101450000D01*
X194907733Y-101483333D01*
X194874400Y-101516666D01*
X194841067Y-101583333D01*
X194841067Y-102250000D02*
X194841067Y-102316667D01*
X194874400Y-102383333D01*
X194907733Y-102416667D01*
X194974400Y-102450000D01*
X195107733Y-102483333D01*
X195274400Y-102483333D01*
X195407733Y-102450000D01*
X195474400Y-102416667D01*
X195507733Y-102383333D01*
X195541067Y-102316667D01*
X195541067Y-102250000D01*
X195507733Y-102183333D01*
X195474400Y-102150000D01*
X195407733Y-102116667D01*
X195274400Y-102083333D01*
X195107733Y-102083333D01*
X194974400Y-102116667D01*
X194907733Y-102150000D01*
X194874400Y-102183333D01*
X194841067Y-102250000D01*
X195541067Y-103290000D02*
X194841067Y-103290000D01*
X194841067Y-103456666D01*
X194874400Y-103556666D01*
X194941067Y-103623333D01*
X195007733Y-103656666D01*
X195141067Y-103690000D01*
X195241067Y-103690000D01*
X195374400Y-103656666D01*
X195441067Y-103623333D01*
X195507733Y-103556666D01*
X195541067Y-103456666D01*
X195541067Y-103290000D01*
X194841067Y-104123333D02*
X194841067Y-104190000D01*
X194874400Y-104256666D01*
X194907733Y-104290000D01*
X194974400Y-104323333D01*
X195107733Y-104356666D01*
X195274400Y-104356666D01*
X195407733Y-104323333D01*
X195474400Y-104290000D01*
X195507733Y-104256666D01*
X195541067Y-104190000D01*
X195541067Y-104123333D01*
X195507733Y-104056666D01*
X195474400Y-104023333D01*
X195407733Y-103990000D01*
X195274400Y-103956666D01*
X195107733Y-103956666D01*
X194974400Y-103990000D01*
X194907733Y-104023333D01*
X194874400Y-104056666D01*
X194841067Y-104123333D01*
X194907733Y-104623333D02*
X194874400Y-104656667D01*
X194841067Y-104723333D01*
X194841067Y-104890000D01*
X194874400Y-104956667D01*
X194907733Y-104990000D01*
X194974400Y-105023333D01*
X195041067Y-105023333D01*
X195141067Y-104990000D01*
X195541067Y-104590000D01*
X195541067Y-105023333D01*
X194841067Y-78143167D02*
X194841067Y-78543167D01*
X195541067Y-78343167D02*
X194841067Y-78343167D01*
X194841067Y-78709833D02*
X195541067Y-79176500D01*
X194841067Y-79176500D02*
X195541067Y-78709833D01*
X195541067Y-105830000D02*
X194841067Y-105830000D01*
X194841067Y-105996666D01*
X194874400Y-106096666D01*
X194941067Y-106163333D01*
X195007733Y-106196666D01*
X195141067Y-106230000D01*
X195241067Y-106230000D01*
X195374400Y-106196666D01*
X195441067Y-106163333D01*
X195507733Y-106096666D01*
X195541067Y-105996666D01*
X195541067Y-105830000D01*
X195541067Y-106896666D02*
X195541067Y-106496666D01*
X195541067Y-106696666D02*
X194841067Y-106696666D01*
X194941067Y-106630000D01*
X195007733Y-106563333D01*
X195041067Y-106496666D01*
X194841067Y-107530000D02*
X194841067Y-107196667D01*
X195174400Y-107163333D01*
X195141067Y-107196667D01*
X195107733Y-107263333D01*
X195107733Y-107430000D01*
X195141067Y-107496667D01*
X195174400Y-107530000D01*
X195241067Y-107563333D01*
X195407733Y-107563333D01*
X195474400Y-107530000D01*
X195507733Y-107496667D01*
X195541067Y-107430000D01*
X195541067Y-107263333D01*
X195507733Y-107196667D01*
X195474400Y-107163333D01*
X194841067Y-108353333D02*
X194841067Y-108786666D01*
X195107733Y-108553333D01*
X195107733Y-108653333D01*
X195141067Y-108720000D01*
X195174400Y-108753333D01*
X195241067Y-108786666D01*
X195407733Y-108786666D01*
X195474400Y-108753333D01*
X195507733Y-108720000D01*
X195541067Y-108653333D01*
X195541067Y-108453333D01*
X195507733Y-108386666D01*
X195474400Y-108353333D01*
X194841067Y-108986667D02*
X195541067Y-109220000D01*
X194841067Y-109453333D01*
X194841067Y-109620000D02*
X194841067Y-110053333D01*
X195107733Y-109820000D01*
X195107733Y-109920000D01*
X195141067Y-109986667D01*
X195174400Y-110020000D01*
X195241067Y-110053333D01*
X195407733Y-110053333D01*
X195474400Y-110020000D01*
X195507733Y-109986667D01*
X195541067Y-109920000D01*
X195541067Y-109720000D01*
X195507733Y-109653333D01*
X195474400Y-109620000D01*
X148084333Y-112526666D02*
X147384333Y-112293333D01*
X148084333Y-112060000D01*
X147384333Y-111826666D02*
X148084333Y-111826666D01*
X147384333Y-111493333D02*
X148084333Y-111493333D01*
X147384333Y-111093333D01*
X148084333Y-111093333D01*
X148051000Y-109753333D02*
X148084333Y-109819999D01*
X148084333Y-109919999D01*
X148051000Y-110019999D01*
X147984333Y-110086666D01*
X147917667Y-110119999D01*
X147784333Y-110153333D01*
X147684333Y-110153333D01*
X147551000Y-110119999D01*
X147484333Y-110086666D01*
X147417667Y-110019999D01*
X147384333Y-109919999D01*
X147384333Y-109853333D01*
X147417667Y-109753333D01*
X147451000Y-109719999D01*
X147684333Y-109719999D01*
X147684333Y-109853333D01*
X147384333Y-109419999D02*
X148084333Y-109419999D01*
X147384333Y-109019999D01*
X148084333Y-109019999D01*
X147384333Y-108686666D02*
X148084333Y-108686666D01*
X148084333Y-108520000D01*
X148051000Y-108420000D01*
X147984333Y-108353333D01*
X147917667Y-108320000D01*
X147784333Y-108286666D01*
X147684333Y-108286666D01*
X147551000Y-108320000D01*
X147484333Y-108353333D01*
X147417667Y-108420000D01*
X147384333Y-108520000D01*
X147384333Y-108686666D01*
X147384333Y-107530000D02*
X148084333Y-107530000D01*
X148084333Y-107363334D01*
X148051000Y-107263334D01*
X147984333Y-107196667D01*
X147917667Y-107163334D01*
X147784333Y-107130000D01*
X147684333Y-107130000D01*
X147551000Y-107163334D01*
X147484333Y-107196667D01*
X147417667Y-107263334D01*
X147384333Y-107363334D01*
X147384333Y-107530000D01*
X147384333Y-106463334D02*
X147384333Y-106863334D01*
X147384333Y-106663334D02*
X148084333Y-106663334D01*
X147984333Y-106730000D01*
X147917667Y-106796667D01*
X147884333Y-106863334D01*
X148084333Y-106230000D02*
X148084333Y-105796667D01*
X147817667Y-106030000D01*
X147817667Y-105930000D01*
X147784333Y-105863333D01*
X147751000Y-105830000D01*
X147684333Y-105796667D01*
X147517667Y-105796667D01*
X147451000Y-105830000D01*
X147417667Y-105863333D01*
X147384333Y-105930000D01*
X147384333Y-106130000D01*
X147417667Y-106196667D01*
X147451000Y-106230000D01*
X147384333Y-104990000D02*
X148084333Y-104990000D01*
X148084333Y-104823334D01*
X148051000Y-104723334D01*
X147984333Y-104656667D01*
X147917667Y-104623334D01*
X147784333Y-104590000D01*
X147684333Y-104590000D01*
X147551000Y-104623334D01*
X147484333Y-104656667D01*
X147417667Y-104723334D01*
X147384333Y-104823334D01*
X147384333Y-104990000D01*
X147384333Y-103923334D02*
X147384333Y-104323334D01*
X147384333Y-104123334D02*
X148084333Y-104123334D01*
X147984333Y-104190000D01*
X147917667Y-104256667D01*
X147884333Y-104323334D01*
X148017667Y-103656667D02*
X148051000Y-103623333D01*
X148084333Y-103556667D01*
X148084333Y-103390000D01*
X148051000Y-103323333D01*
X148017667Y-103290000D01*
X147951000Y-103256667D01*
X147884333Y-103256667D01*
X147784333Y-103290000D01*
X147384333Y-103690000D01*
X147384333Y-103256667D01*
X147384333Y-102450000D02*
X148084333Y-102450000D01*
X148084333Y-102283334D01*
X148051000Y-102183334D01*
X147984333Y-102116667D01*
X147917667Y-102083334D01*
X147784333Y-102050000D01*
X147684333Y-102050000D01*
X147551000Y-102083334D01*
X147484333Y-102116667D01*
X147417667Y-102183334D01*
X147384333Y-102283334D01*
X147384333Y-102450000D01*
X147384333Y-101383334D02*
X147384333Y-101783334D01*
X147384333Y-101583334D02*
X148084333Y-101583334D01*
X147984333Y-101650000D01*
X147917667Y-101716667D01*
X147884333Y-101783334D01*
X147851000Y-100783333D02*
X147384333Y-100783333D01*
X148117667Y-100950000D02*
X147617667Y-101116667D01*
X147617667Y-100683333D01*
X147384333Y-97370000D02*
X148084333Y-97370000D01*
X148084333Y-97203334D01*
X148051000Y-97103334D01*
X147984333Y-97036667D01*
X147917667Y-97003334D01*
X147784333Y-96970000D01*
X147684333Y-96970000D01*
X147551000Y-97003334D01*
X147484333Y-97036667D01*
X147417667Y-97103334D01*
X147384333Y-97203334D01*
X147384333Y-97370000D01*
X148017667Y-96703334D02*
X148051000Y-96670000D01*
X148084333Y-96603334D01*
X148084333Y-96436667D01*
X148051000Y-96370000D01*
X148017667Y-96336667D01*
X147951000Y-96303334D01*
X147884333Y-96303334D01*
X147784333Y-96336667D01*
X147384333Y-96736667D01*
X147384333Y-96303334D01*
X148084333Y-95703333D02*
X148084333Y-95836667D01*
X148051000Y-95903333D01*
X148017667Y-95936667D01*
X147917667Y-96003333D01*
X147784333Y-96036667D01*
X147517667Y-96036667D01*
X147451000Y-96003333D01*
X147417667Y-95970000D01*
X147384333Y-95903333D01*
X147384333Y-95770000D01*
X147417667Y-95703333D01*
X147451000Y-95670000D01*
X147517667Y-95636667D01*
X147684333Y-95636667D01*
X147751000Y-95670000D01*
X147784333Y-95703333D01*
X147817667Y-95770000D01*
X147817667Y-95903333D01*
X147784333Y-95970000D01*
X147751000Y-96003333D01*
X147684333Y-96036667D01*
X147384333Y-94830000D02*
X148084333Y-94830000D01*
X148084333Y-94663334D01*
X148051000Y-94563334D01*
X147984333Y-94496667D01*
X147917667Y-94463334D01*
X147784333Y-94430000D01*
X147684333Y-94430000D01*
X147551000Y-94463334D01*
X147484333Y-94496667D01*
X147417667Y-94563334D01*
X147384333Y-94663334D01*
X147384333Y-94830000D01*
X148017667Y-94163334D02*
X148051000Y-94130000D01*
X148084333Y-94063334D01*
X148084333Y-93896667D01*
X148051000Y-93830000D01*
X148017667Y-93796667D01*
X147951000Y-93763334D01*
X147884333Y-93763334D01*
X147784333Y-93796667D01*
X147384333Y-94196667D01*
X147384333Y-93763334D01*
X148084333Y-93130000D02*
X148084333Y-93463333D01*
X147751000Y-93496667D01*
X147784333Y-93463333D01*
X147817667Y-93396667D01*
X147817667Y-93230000D01*
X147784333Y-93163333D01*
X147751000Y-93130000D01*
X147684333Y-93096667D01*
X147517667Y-93096667D01*
X147451000Y-93130000D01*
X147417667Y-93163333D01*
X147384333Y-93230000D01*
X147384333Y-93396667D01*
X147417667Y-93463333D01*
X147451000Y-93496667D01*
X147384333Y-92290000D02*
X148084333Y-92290000D01*
X148084333Y-92123334D01*
X148051000Y-92023334D01*
X147984333Y-91956667D01*
X147917667Y-91923334D01*
X147784333Y-91890000D01*
X147684333Y-91890000D01*
X147551000Y-91923334D01*
X147484333Y-91956667D01*
X147417667Y-92023334D01*
X147384333Y-92123334D01*
X147384333Y-92290000D01*
X148084333Y-91656667D02*
X148084333Y-91223334D01*
X147817667Y-91456667D01*
X147817667Y-91356667D01*
X147784333Y-91290000D01*
X147751000Y-91256667D01*
X147684333Y-91223334D01*
X147517667Y-91223334D01*
X147451000Y-91256667D01*
X147417667Y-91290000D01*
X147384333Y-91356667D01*
X147384333Y-91556667D01*
X147417667Y-91623334D01*
X147451000Y-91656667D01*
X148084333Y-90990000D02*
X148084333Y-90556667D01*
X147817667Y-90790000D01*
X147817667Y-90690000D01*
X147784333Y-90623333D01*
X147751000Y-90590000D01*
X147684333Y-90556667D01*
X147517667Y-90556667D01*
X147451000Y-90590000D01*
X147417667Y-90623333D01*
X147384333Y-90690000D01*
X147384333Y-90890000D01*
X147417667Y-90956667D01*
X147451000Y-90990000D01*
X147384333Y-89750000D02*
X148084333Y-89750000D01*
X148084333Y-89583334D01*
X148051000Y-89483334D01*
X147984333Y-89416667D01*
X147917667Y-89383334D01*
X147784333Y-89350000D01*
X147684333Y-89350000D01*
X147551000Y-89383334D01*
X147484333Y-89416667D01*
X147417667Y-89483334D01*
X147384333Y-89583334D01*
X147384333Y-89750000D01*
X148084333Y-89116667D02*
X148084333Y-88683334D01*
X147817667Y-88916667D01*
X147817667Y-88816667D01*
X147784333Y-88750000D01*
X147751000Y-88716667D01*
X147684333Y-88683334D01*
X147517667Y-88683334D01*
X147451000Y-88716667D01*
X147417667Y-88750000D01*
X147384333Y-88816667D01*
X147384333Y-89016667D01*
X147417667Y-89083334D01*
X147451000Y-89116667D01*
X148017667Y-88416667D02*
X148051000Y-88383333D01*
X148084333Y-88316667D01*
X148084333Y-88150000D01*
X148051000Y-88083333D01*
X148017667Y-88050000D01*
X147951000Y-88016667D01*
X147884333Y-88016667D01*
X147784333Y-88050000D01*
X147384333Y-88450000D01*
X147384333Y-88016667D01*
X147384333Y-87210000D02*
X148084333Y-87210000D01*
X148084333Y-87043334D01*
X148051000Y-86943334D01*
X147984333Y-86876667D01*
X147917667Y-86843334D01*
X147784333Y-86810000D01*
X147684333Y-86810000D01*
X147551000Y-86843334D01*
X147484333Y-86876667D01*
X147417667Y-86943334D01*
X147384333Y-87043334D01*
X147384333Y-87210000D01*
X148084333Y-86576667D02*
X148084333Y-86143334D01*
X147817667Y-86376667D01*
X147817667Y-86276667D01*
X147784333Y-86210000D01*
X147751000Y-86176667D01*
X147684333Y-86143334D01*
X147517667Y-86143334D01*
X147451000Y-86176667D01*
X147417667Y-86210000D01*
X147384333Y-86276667D01*
X147384333Y-86476667D01*
X147417667Y-86543334D01*
X147451000Y-86576667D01*
X148084333Y-85510000D02*
X148084333Y-85843333D01*
X147751000Y-85876667D01*
X147784333Y-85843333D01*
X147817667Y-85776667D01*
X147817667Y-85610000D01*
X147784333Y-85543333D01*
X147751000Y-85510000D01*
X147684333Y-85476667D01*
X147517667Y-85476667D01*
X147451000Y-85510000D01*
X147417667Y-85543333D01*
X147384333Y-85610000D01*
X147384333Y-85776667D01*
X147417667Y-85843333D01*
X147451000Y-85876667D01*
X147384333Y-84670000D02*
X148084333Y-84670000D01*
X148084333Y-84503334D01*
X148051000Y-84403334D01*
X147984333Y-84336667D01*
X147917667Y-84303334D01*
X147784333Y-84270000D01*
X147684333Y-84270000D01*
X147551000Y-84303334D01*
X147484333Y-84336667D01*
X147417667Y-84403334D01*
X147384333Y-84503334D01*
X147384333Y-84670000D01*
X148084333Y-84036667D02*
X148084333Y-83603334D01*
X147817667Y-83836667D01*
X147817667Y-83736667D01*
X147784333Y-83670000D01*
X147751000Y-83636667D01*
X147684333Y-83603334D01*
X147517667Y-83603334D01*
X147451000Y-83636667D01*
X147417667Y-83670000D01*
X147384333Y-83736667D01*
X147384333Y-83936667D01*
X147417667Y-84003334D01*
X147451000Y-84036667D01*
X147851000Y-83003333D02*
X147384333Y-83003333D01*
X148117667Y-83170000D02*
X147617667Y-83336667D01*
X147617667Y-82903333D01*
X147417667Y-82146667D02*
X147384333Y-82046667D01*
X147384333Y-81880000D01*
X147417667Y-81813333D01*
X147451000Y-81780000D01*
X147517667Y-81746667D01*
X147584333Y-81746667D01*
X147651000Y-81780000D01*
X147684333Y-81813333D01*
X147717667Y-81880000D01*
X147751000Y-82013333D01*
X147784333Y-82080000D01*
X147817667Y-82113333D01*
X147884333Y-82146667D01*
X147951000Y-82146667D01*
X148017667Y-82113333D01*
X148051000Y-82080000D01*
X148084333Y-82013333D01*
X148084333Y-81846667D01*
X148051000Y-81746667D01*
X148084333Y-81546666D02*
X147384333Y-81313333D01*
X148084333Y-81080000D01*
X147384333Y-80846666D02*
X148084333Y-80846666D01*
X147384333Y-80446666D01*
X148084333Y-80446666D01*
X147417667Y-79590000D02*
X147384333Y-79490000D01*
X147384333Y-79323333D01*
X147417667Y-79256666D01*
X147451000Y-79223333D01*
X147517667Y-79190000D01*
X147584333Y-79190000D01*
X147651000Y-79223333D01*
X147684333Y-79256666D01*
X147717667Y-79323333D01*
X147751000Y-79456666D01*
X147784333Y-79523333D01*
X147817667Y-79556666D01*
X147884333Y-79590000D01*
X147951000Y-79590000D01*
X148017667Y-79556666D01*
X148051000Y-79523333D01*
X148084333Y-79456666D01*
X148084333Y-79290000D01*
X148051000Y-79190000D01*
X148084333Y-78989999D02*
X147384333Y-78756666D01*
X148084333Y-78523333D01*
X147384333Y-78289999D02*
X148084333Y-78289999D01*
X148084333Y-78023333D01*
X148051000Y-77956666D01*
X148017667Y-77923333D01*
X147951000Y-77889999D01*
X147851000Y-77889999D01*
X147784333Y-77923333D01*
X147751000Y-77956666D01*
X147717667Y-78023333D01*
X147717667Y-78289999D01*
X147751000Y-76716666D02*
X147751000Y-76483333D01*
X147384333Y-76383333D02*
X147384333Y-76716666D01*
X148084333Y-76716666D01*
X148084333Y-76383333D01*
X147384333Y-76083333D02*
X148084333Y-76083333D01*
X147384333Y-75683333D01*
X148084333Y-75683333D01*
X148084333Y-74526667D02*
X148084333Y-74093334D01*
X147817667Y-74326667D01*
X147817667Y-74226667D01*
X147784333Y-74160000D01*
X147751000Y-74126667D01*
X147684333Y-74093334D01*
X147517667Y-74093334D01*
X147451000Y-74126667D01*
X147417667Y-74160000D01*
X147384333Y-74226667D01*
X147384333Y-74426667D01*
X147417667Y-74493334D01*
X147451000Y-74526667D01*
X148084333Y-73893333D02*
X147384333Y-73660000D01*
X148084333Y-73426667D01*
X148084333Y-73260000D02*
X148084333Y-72826667D01*
X147817667Y-73060000D01*
X147817667Y-72960000D01*
X147784333Y-72893333D01*
X147751000Y-72860000D01*
X147684333Y-72826667D01*
X147517667Y-72826667D01*
X147451000Y-72860000D01*
X147417667Y-72893333D01*
X147384333Y-72960000D01*
X147384333Y-73160000D01*
X147417667Y-73226667D01*
X147451000Y-73260000D01*
X148051000Y-71653333D02*
X148084333Y-71719999D01*
X148084333Y-71819999D01*
X148051000Y-71919999D01*
X147984333Y-71986666D01*
X147917667Y-72019999D01*
X147784333Y-72053333D01*
X147684333Y-72053333D01*
X147551000Y-72019999D01*
X147484333Y-71986666D01*
X147417667Y-71919999D01*
X147384333Y-71819999D01*
X147384333Y-71753333D01*
X147417667Y-71653333D01*
X147451000Y-71619999D01*
X147684333Y-71619999D01*
X147684333Y-71753333D01*
X147384333Y-71319999D02*
X148084333Y-71319999D01*
X147384333Y-70919999D01*
X148084333Y-70919999D01*
X147384333Y-70586666D02*
X148084333Y-70586666D01*
X148084333Y-70420000D01*
X148051000Y-70320000D01*
X147984333Y-70253333D01*
X147917667Y-70220000D01*
X147784333Y-70186666D01*
X147684333Y-70186666D01*
X147551000Y-70220000D01*
X147484333Y-70253333D01*
X147417667Y-70320000D01*
X147384333Y-70420000D01*
X147384333Y-70586666D01*
D14*
G36*
X192840575Y-69257517D02*
X192828430Y-69322571D01*
X192816965Y-69380876D01*
X192806973Y-69428636D01*
X192799245Y-69462052D01*
X192794721Y-69477061D01*
X192781226Y-69487872D01*
X192751566Y-69503889D01*
X192710373Y-69523229D01*
X192662282Y-69544006D01*
X192611927Y-69564338D01*
X192563941Y-69582341D01*
X192522958Y-69596129D01*
X192493612Y-69603821D01*
X192481672Y-69604335D01*
X192467686Y-69596298D01*
X192438809Y-69577808D01*
X192398293Y-69551012D01*
X192349388Y-69518055D01*
X192302197Y-69485803D01*
X192248721Y-69449266D01*
X192200898Y-69417044D01*
X192161947Y-69391271D01*
X192135088Y-69374081D01*
X192124012Y-69367747D01*
X192111869Y-69373389D01*
X192087594Y-69392335D01*
X192054095Y-69421710D01*
X192014279Y-69458643D01*
X191971052Y-69500260D01*
X191927323Y-69543688D01*
X191885998Y-69586055D01*
X191849985Y-69624486D01*
X191822191Y-69656110D01*
X191805522Y-69678053D01*
X191802026Y-69685944D01*
X191808020Y-69700221D01*
X191824683Y-69729413D01*
X191850038Y-69770330D01*
X191882110Y-69819778D01*
X191917982Y-69873191D01*
X191954645Y-69927618D01*
X191986540Y-69976324D01*
X192011698Y-70016191D01*
X192028153Y-70044104D01*
X192033939Y-70056873D01*
X192029689Y-70071836D01*
X192018253Y-70102288D01*
X192001608Y-70143616D01*
X191981725Y-70191211D01*
X191960581Y-70240461D01*
X191940147Y-70286756D01*
X191922400Y-70325485D01*
X191909312Y-70352038D01*
X191903571Y-70361368D01*
X191891521Y-70365141D01*
X191861841Y-70372165D01*
X191818609Y-70381622D01*
X191765903Y-70392692D01*
X191707803Y-70404556D01*
X191648385Y-70416396D01*
X191591729Y-70427393D01*
X191541912Y-70436728D01*
X191503015Y-70443582D01*
X191479113Y-70447136D01*
X191474799Y-70447452D01*
X191472485Y-70457828D01*
X191470936Y-70486322D01*
X191470090Y-70528978D01*
X191469888Y-70581841D01*
X191470270Y-70640958D01*
X191471177Y-70702373D01*
X191472548Y-70762131D01*
X191474325Y-70816278D01*
X191476447Y-70860859D01*
X191478855Y-70891920D01*
X191481488Y-70905506D01*
X191481720Y-70905729D01*
X191495685Y-70909879D01*
X191527673Y-70917211D01*
X191573978Y-70926944D01*
X191630894Y-70938295D01*
X191686845Y-70949008D01*
X191751324Y-70961813D01*
X191808123Y-70974401D01*
X191853560Y-70985855D01*
X191883956Y-70995259D01*
X191895113Y-71000840D01*
X191904149Y-71016396D01*
X191918882Y-71047866D01*
X191937417Y-71090556D01*
X191957864Y-71139771D01*
X191978328Y-71190813D01*
X191996918Y-71238988D01*
X192011741Y-71279601D01*
X192020904Y-71307954D01*
X192022937Y-71317971D01*
X192016905Y-71331453D01*
X192000199Y-71359762D01*
X191974865Y-71399666D01*
X191942944Y-71447933D01*
X191912461Y-71492683D01*
X191876517Y-71545802D01*
X191845465Y-71593645D01*
X191821360Y-71632885D01*
X191806255Y-71660197D01*
X191802026Y-71671443D01*
X191809471Y-71683840D01*
X191829865Y-71708561D01*
X191860300Y-71742616D01*
X191897864Y-71783011D01*
X191939649Y-71826755D01*
X191982745Y-71870856D01*
X192024241Y-71912322D01*
X192061228Y-71948160D01*
X192090797Y-71975378D01*
X192110037Y-71990985D01*
X192115265Y-71993539D01*
X192127018Y-71987579D01*
X192153711Y-71971076D01*
X192192151Y-71946096D01*
X192239145Y-71914706D01*
X192277907Y-71888320D01*
X192330016Y-71852882D01*
X192376716Y-71821699D01*
X192414579Y-71797016D01*
X192440177Y-71781075D01*
X192449060Y-71776283D01*
X192467255Y-71777541D01*
X192498731Y-71787297D01*
X192537313Y-71803590D01*
X192541939Y-71805800D01*
X192580126Y-71822609D01*
X192611846Y-71833558D01*
X192631001Y-71836593D01*
X192632385Y-71836250D01*
X192639010Y-71825514D01*
X192652852Y-71797204D01*
X192672695Y-71754158D01*
X192697323Y-71699215D01*
X192725522Y-71635216D01*
X192756074Y-71564999D01*
X192787765Y-71491404D01*
X192819379Y-71417269D01*
X192849700Y-71345435D01*
X192877513Y-71278740D01*
X192901602Y-71220024D01*
X192920751Y-71172125D01*
X192933745Y-71137884D01*
X192939369Y-71120139D01*
X192939504Y-71118935D01*
X192931231Y-71109750D01*
X192909140Y-71091033D01*
X192877323Y-71066180D01*
X192862627Y-71055160D01*
X192785663Y-70986035D01*
X192727076Y-70907968D01*
X192687046Y-70823451D01*
X192665753Y-70734975D01*
X192663377Y-70645032D01*
X192680096Y-70556113D01*
X192716092Y-70470709D01*
X192771542Y-70391313D01*
X192811779Y-70349832D01*
X192887940Y-70293186D01*
X192969752Y-70255995D01*
X193054752Y-70237172D01*
X193140474Y-70235629D01*
X193224456Y-70250278D01*
X193304233Y-70280033D01*
X193377341Y-70323806D01*
X193441316Y-70380510D01*
X193493694Y-70449057D01*
X193532011Y-70528361D01*
X193553802Y-70617334D01*
X193557939Y-70679089D01*
X193547499Y-70778012D01*
X193516393Y-70869444D01*
X193464941Y-70952783D01*
X193393463Y-71027424D01*
X193358729Y-71055160D01*
X193324141Y-71081531D01*
X193297624Y-71103138D01*
X193283271Y-71116586D01*
X193281852Y-71118935D01*
X193286054Y-71133553D01*
X193297847Y-71165158D01*
X193316017Y-71210911D01*
X193339345Y-71267972D01*
X193366615Y-71333502D01*
X193396611Y-71404662D01*
X193428115Y-71478612D01*
X193459912Y-71552514D01*
X193490784Y-71623527D01*
X193519515Y-71688812D01*
X193544889Y-71745531D01*
X193565687Y-71790843D01*
X193580695Y-71821909D01*
X193588695Y-71835891D01*
X193589276Y-71836367D01*
X193606023Y-71834562D01*
X193636357Y-71824381D01*
X193674396Y-71807880D01*
X193683580Y-71803425D01*
X193762243Y-71764481D01*
X193929646Y-71879010D01*
X193983323Y-71915397D01*
X194030903Y-71947015D01*
X194069342Y-71971892D01*
X194095591Y-71988054D01*
X194106490Y-71993539D01*
X194116864Y-71986068D01*
X194140189Y-71965254D01*
X194173924Y-71933494D01*
X194215526Y-71893187D01*
X194262453Y-71846730D01*
X194267630Y-71841548D01*
X194314654Y-71793523D01*
X194355747Y-71749816D01*
X194388491Y-71713140D01*
X194410471Y-71686212D01*
X194419268Y-71671745D01*
X194419330Y-71671152D01*
X194413291Y-71656409D01*
X194396542Y-71626960D01*
X194371138Y-71586122D01*
X194339133Y-71537215D01*
X194308895Y-71492683D01*
X194273014Y-71439882D01*
X194241998Y-71392722D01*
X194217891Y-71354435D01*
X194202736Y-71328254D01*
X194198420Y-71317971D01*
X194202518Y-71300938D01*
X194213596Y-71268373D01*
X194229760Y-71224973D01*
X194249118Y-71175433D01*
X194269777Y-71124449D01*
X194289844Y-71076716D01*
X194307427Y-71036930D01*
X194320634Y-71009786D01*
X194326243Y-71000840D01*
X194341403Y-70993826D01*
X194374652Y-70984003D01*
X194422309Y-70972288D01*
X194480693Y-70959598D01*
X194534511Y-70949008D01*
X194597703Y-70936879D01*
X194653545Y-70925679D01*
X194698334Y-70916193D01*
X194728362Y-70909200D01*
X194739636Y-70905729D01*
X194742286Y-70893811D01*
X194744715Y-70864082D01*
X194746863Y-70820496D01*
X194748672Y-70767009D01*
X194750080Y-70707574D01*
X194751029Y-70646146D01*
X194751458Y-70586681D01*
X194751308Y-70533132D01*
X194750519Y-70489454D01*
X194749031Y-70459602D01*
X194746785Y-70447531D01*
X194746558Y-70447452D01*
X194729457Y-70445373D01*
X194695803Y-70439682D01*
X194649673Y-70431197D01*
X194595147Y-70420738D01*
X194536302Y-70409123D01*
X194477217Y-70397172D01*
X194421971Y-70385702D01*
X194374641Y-70375533D01*
X194339306Y-70367483D01*
X194320045Y-70362372D01*
X194317785Y-70361368D01*
X194309764Y-70347670D01*
X194295527Y-70318159D01*
X194277047Y-70277446D01*
X194256299Y-70230142D01*
X194235256Y-70180857D01*
X194215894Y-70134203D01*
X194200185Y-70094789D01*
X194190104Y-70067227D01*
X194187417Y-70056873D01*
X194193392Y-70043759D01*
X194210006Y-70015625D01*
X194235290Y-69975588D01*
X194267279Y-69926763D01*
X194303374Y-69873191D01*
X194340092Y-69818496D01*
X194372024Y-69769218D01*
X194397191Y-69728549D01*
X194413618Y-69699682D01*
X194419330Y-69685944D01*
X194411817Y-69672161D01*
X194391215Y-69646758D01*
X194360431Y-69612608D01*
X194322374Y-69572583D01*
X194279949Y-69529556D01*
X194236064Y-69486402D01*
X194193627Y-69445991D01*
X194155544Y-69411199D01*
X194124723Y-69384897D01*
X194104071Y-69369958D01*
X194097344Y-69367747D01*
X194083791Y-69375620D01*
X194055311Y-69393952D01*
X194015126Y-69420611D01*
X193966455Y-69453463D01*
X193919160Y-69485803D01*
X193865575Y-69522392D01*
X193817532Y-69554703D01*
X193778279Y-69580589D01*
X193751068Y-69597902D01*
X193739684Y-69604335D01*
X193722879Y-69602828D01*
X193690758Y-69593727D01*
X193647954Y-69578916D01*
X193599101Y-69560280D01*
X193548833Y-69539702D01*
X193501784Y-69519067D01*
X193462587Y-69500257D01*
X193435877Y-69485158D01*
X193426635Y-69477061D01*
X193421800Y-69460818D01*
X193413944Y-69426618D01*
X193403862Y-69378258D01*
X193392345Y-69319537D01*
X193380781Y-69257517D01*
X193344112Y-69055974D01*
X192877244Y-69055974D01*
X192840575Y-69257517D01*
X192840575Y-69257517D01*
G37*
X192840575Y-69257517D02*
X192828430Y-69322571D01*
X192816965Y-69380876D01*
X192806973Y-69428636D01*
X192799245Y-69462052D01*
X192794721Y-69477061D01*
X192781226Y-69487872D01*
X192751566Y-69503889D01*
X192710373Y-69523229D01*
X192662282Y-69544006D01*
X192611927Y-69564338D01*
X192563941Y-69582341D01*
X192522958Y-69596129D01*
X192493612Y-69603821D01*
X192481672Y-69604335D01*
X192467686Y-69596298D01*
X192438809Y-69577808D01*
X192398293Y-69551012D01*
X192349388Y-69518055D01*
X192302197Y-69485803D01*
X192248721Y-69449266D01*
X192200898Y-69417044D01*
X192161947Y-69391271D01*
X192135088Y-69374081D01*
X192124012Y-69367747D01*
X192111869Y-69373389D01*
X192087594Y-69392335D01*
X192054095Y-69421710D01*
X192014279Y-69458643D01*
X191971052Y-69500260D01*
X191927323Y-69543688D01*
X191885998Y-69586055D01*
X191849985Y-69624486D01*
X191822191Y-69656110D01*
X191805522Y-69678053D01*
X191802026Y-69685944D01*
X191808020Y-69700221D01*
X191824683Y-69729413D01*
X191850038Y-69770330D01*
X191882110Y-69819778D01*
X191917982Y-69873191D01*
X191954645Y-69927618D01*
X191986540Y-69976324D01*
X192011698Y-70016191D01*
X192028153Y-70044104D01*
X192033939Y-70056873D01*
X192029689Y-70071836D01*
X192018253Y-70102288D01*
X192001608Y-70143616D01*
X191981725Y-70191211D01*
X191960581Y-70240461D01*
X191940147Y-70286756D01*
X191922400Y-70325485D01*
X191909312Y-70352038D01*
X191903571Y-70361368D01*
X191891521Y-70365141D01*
X191861841Y-70372165D01*
X191818609Y-70381622D01*
X191765903Y-70392692D01*
X191707803Y-70404556D01*
X191648385Y-70416396D01*
X191591729Y-70427393D01*
X191541912Y-70436728D01*
X191503015Y-70443582D01*
X191479113Y-70447136D01*
X191474799Y-70447452D01*
X191472485Y-70457828D01*
X191470936Y-70486322D01*
X191470090Y-70528978D01*
X191469888Y-70581841D01*
X191470270Y-70640958D01*
X191471177Y-70702373D01*
X191472548Y-70762131D01*
X191474325Y-70816278D01*
X191476447Y-70860859D01*
X191478855Y-70891920D01*
X191481488Y-70905506D01*
X191481720Y-70905729D01*
X191495685Y-70909879D01*
X191527673Y-70917211D01*
X191573978Y-70926944D01*
X191630894Y-70938295D01*
X191686845Y-70949008D01*
X191751324Y-70961813D01*
X191808123Y-70974401D01*
X191853560Y-70985855D01*
X191883956Y-70995259D01*
X191895113Y-71000840D01*
X191904149Y-71016396D01*
X191918882Y-71047866D01*
X191937417Y-71090556D01*
X191957864Y-71139771D01*
X191978328Y-71190813D01*
X191996918Y-71238988D01*
X192011741Y-71279601D01*
X192020904Y-71307954D01*
X192022937Y-71317971D01*
X192016905Y-71331453D01*
X192000199Y-71359762D01*
X191974865Y-71399666D01*
X191942944Y-71447933D01*
X191912461Y-71492683D01*
X191876517Y-71545802D01*
X191845465Y-71593645D01*
X191821360Y-71632885D01*
X191806255Y-71660197D01*
X191802026Y-71671443D01*
X191809471Y-71683840D01*
X191829865Y-71708561D01*
X191860300Y-71742616D01*
X191897864Y-71783011D01*
X191939649Y-71826755D01*
X191982745Y-71870856D01*
X192024241Y-71912322D01*
X192061228Y-71948160D01*
X192090797Y-71975378D01*
X192110037Y-71990985D01*
X192115265Y-71993539D01*
X192127018Y-71987579D01*
X192153711Y-71971076D01*
X192192151Y-71946096D01*
X192239145Y-71914706D01*
X192277907Y-71888320D01*
X192330016Y-71852882D01*
X192376716Y-71821699D01*
X192414579Y-71797016D01*
X192440177Y-71781075D01*
X192449060Y-71776283D01*
X192467255Y-71777541D01*
X192498731Y-71787297D01*
X192537313Y-71803590D01*
X192541939Y-71805800D01*
X192580126Y-71822609D01*
X192611846Y-71833558D01*
X192631001Y-71836593D01*
X192632385Y-71836250D01*
X192639010Y-71825514D01*
X192652852Y-71797204D01*
X192672695Y-71754158D01*
X192697323Y-71699215D01*
X192725522Y-71635216D01*
X192756074Y-71564999D01*
X192787765Y-71491404D01*
X192819379Y-71417269D01*
X192849700Y-71345435D01*
X192877513Y-71278740D01*
X192901602Y-71220024D01*
X192920751Y-71172125D01*
X192933745Y-71137884D01*
X192939369Y-71120139D01*
X192939504Y-71118935D01*
X192931231Y-71109750D01*
X192909140Y-71091033D01*
X192877323Y-71066180D01*
X192862627Y-71055160D01*
X192785663Y-70986035D01*
X192727076Y-70907968D01*
X192687046Y-70823451D01*
X192665753Y-70734975D01*
X192663377Y-70645032D01*
X192680096Y-70556113D01*
X192716092Y-70470709D01*
X192771542Y-70391313D01*
X192811779Y-70349832D01*
X192887940Y-70293186D01*
X192969752Y-70255995D01*
X193054752Y-70237172D01*
X193140474Y-70235629D01*
X193224456Y-70250278D01*
X193304233Y-70280033D01*
X193377341Y-70323806D01*
X193441316Y-70380510D01*
X193493694Y-70449057D01*
X193532011Y-70528361D01*
X193553802Y-70617334D01*
X193557939Y-70679089D01*
X193547499Y-70778012D01*
X193516393Y-70869444D01*
X193464941Y-70952783D01*
X193393463Y-71027424D01*
X193358729Y-71055160D01*
X193324141Y-71081531D01*
X193297624Y-71103138D01*
X193283271Y-71116586D01*
X193281852Y-71118935D01*
X193286054Y-71133553D01*
X193297847Y-71165158D01*
X193316017Y-71210911D01*
X193339345Y-71267972D01*
X193366615Y-71333502D01*
X193396611Y-71404662D01*
X193428115Y-71478612D01*
X193459912Y-71552514D01*
X193490784Y-71623527D01*
X193519515Y-71688812D01*
X193544889Y-71745531D01*
X193565687Y-71790843D01*
X193580695Y-71821909D01*
X193588695Y-71835891D01*
X193589276Y-71836367D01*
X193606023Y-71834562D01*
X193636357Y-71824381D01*
X193674396Y-71807880D01*
X193683580Y-71803425D01*
X193762243Y-71764481D01*
X193929646Y-71879010D01*
X193983323Y-71915397D01*
X194030903Y-71947015D01*
X194069342Y-71971892D01*
X194095591Y-71988054D01*
X194106490Y-71993539D01*
X194116864Y-71986068D01*
X194140189Y-71965254D01*
X194173924Y-71933494D01*
X194215526Y-71893187D01*
X194262453Y-71846730D01*
X194267630Y-71841548D01*
X194314654Y-71793523D01*
X194355747Y-71749816D01*
X194388491Y-71713140D01*
X194410471Y-71686212D01*
X194419268Y-71671745D01*
X194419330Y-71671152D01*
X194413291Y-71656409D01*
X194396542Y-71626960D01*
X194371138Y-71586122D01*
X194339133Y-71537215D01*
X194308895Y-71492683D01*
X194273014Y-71439882D01*
X194241998Y-71392722D01*
X194217891Y-71354435D01*
X194202736Y-71328254D01*
X194198420Y-71317971D01*
X194202518Y-71300938D01*
X194213596Y-71268373D01*
X194229760Y-71224973D01*
X194249118Y-71175433D01*
X194269777Y-71124449D01*
X194289844Y-71076716D01*
X194307427Y-71036930D01*
X194320634Y-71009786D01*
X194326243Y-71000840D01*
X194341403Y-70993826D01*
X194374652Y-70984003D01*
X194422309Y-70972288D01*
X194480693Y-70959598D01*
X194534511Y-70949008D01*
X194597703Y-70936879D01*
X194653545Y-70925679D01*
X194698334Y-70916193D01*
X194728362Y-70909200D01*
X194739636Y-70905729D01*
X194742286Y-70893811D01*
X194744715Y-70864082D01*
X194746863Y-70820496D01*
X194748672Y-70767009D01*
X194750080Y-70707574D01*
X194751029Y-70646146D01*
X194751458Y-70586681D01*
X194751308Y-70533132D01*
X194750519Y-70489454D01*
X194749031Y-70459602D01*
X194746785Y-70447531D01*
X194746558Y-70447452D01*
X194729457Y-70445373D01*
X194695803Y-70439682D01*
X194649673Y-70431197D01*
X194595147Y-70420738D01*
X194536302Y-70409123D01*
X194477217Y-70397172D01*
X194421971Y-70385702D01*
X194374641Y-70375533D01*
X194339306Y-70367483D01*
X194320045Y-70362372D01*
X194317785Y-70361368D01*
X194309764Y-70347670D01*
X194295527Y-70318159D01*
X194277047Y-70277446D01*
X194256299Y-70230142D01*
X194235256Y-70180857D01*
X194215894Y-70134203D01*
X194200185Y-70094789D01*
X194190104Y-70067227D01*
X194187417Y-70056873D01*
X194193392Y-70043759D01*
X194210006Y-70015625D01*
X194235290Y-69975588D01*
X194267279Y-69926763D01*
X194303374Y-69873191D01*
X194340092Y-69818496D01*
X194372024Y-69769218D01*
X194397191Y-69728549D01*
X194413618Y-69699682D01*
X194419330Y-69685944D01*
X194411817Y-69672161D01*
X194391215Y-69646758D01*
X194360431Y-69612608D01*
X194322374Y-69572583D01*
X194279949Y-69529556D01*
X194236064Y-69486402D01*
X194193627Y-69445991D01*
X194155544Y-69411199D01*
X194124723Y-69384897D01*
X194104071Y-69369958D01*
X194097344Y-69367747D01*
X194083791Y-69375620D01*
X194055311Y-69393952D01*
X194015126Y-69420611D01*
X193966455Y-69453463D01*
X193919160Y-69485803D01*
X193865575Y-69522392D01*
X193817532Y-69554703D01*
X193778279Y-69580589D01*
X193751068Y-69597902D01*
X193739684Y-69604335D01*
X193722879Y-69602828D01*
X193690758Y-69593727D01*
X193647954Y-69578916D01*
X193599101Y-69560280D01*
X193548833Y-69539702D01*
X193501784Y-69519067D01*
X193462587Y-69500257D01*
X193435877Y-69485158D01*
X193426635Y-69477061D01*
X193421800Y-69460818D01*
X193413944Y-69426618D01*
X193403862Y-69378258D01*
X193392345Y-69319537D01*
X193380781Y-69257517D01*
X193344112Y-69055974D01*
X192877244Y-69055974D01*
X192840575Y-69257517D01*
%LPC*%
D15*
X158394400Y-113030000D03*
X160394400Y-113030000D03*
X162394400Y-113030000D03*
X164394400Y-113030000D03*
D16*
X149860000Y-71120000D03*
D17*
X149860000Y-73660000D03*
X149860000Y-76200000D03*
X149860000Y-78740000D03*
X149860000Y-81280000D03*
X149860000Y-83820000D03*
X149860000Y-86360000D03*
X149860000Y-88900000D03*
X149860000Y-91440000D03*
X149860000Y-93980000D03*
X149860000Y-96520000D03*
X149860000Y-99060000D03*
X149860000Y-101600000D03*
X149860000Y-104140000D03*
X149860000Y-106680000D03*
X149860000Y-109220000D03*
X149860000Y-111760000D03*
X193103500Y-73660000D03*
X193103500Y-76200000D03*
X193103500Y-78740000D03*
X193103500Y-81280000D03*
X193103500Y-83820000D03*
X193103500Y-86360000D03*
X193103500Y-88900000D03*
X193103500Y-91440000D03*
X193103500Y-93980000D03*
X193103500Y-96520000D03*
X193103500Y-99060000D03*
X193103500Y-101600000D03*
X193103500Y-104140000D03*
X193103500Y-106680000D03*
X193103500Y-109220000D03*
X193103500Y-111760000D03*
D16*
X152425400Y-71120000D03*
D17*
X152425400Y-73660000D03*
X152425400Y-76200000D03*
X152425400Y-78740000D03*
X152425400Y-81280000D03*
X152425400Y-83820000D03*
X152425400Y-86360000D03*
X152425400Y-88900000D03*
X152425400Y-91440000D03*
X152425400Y-93980000D03*
X152425400Y-96520000D03*
X152425400Y-99060000D03*
X152425400Y-101600000D03*
X152425400Y-104140000D03*
X152425400Y-106680000D03*
X152425400Y-109220000D03*
X152425400Y-111760000D03*
X190550800Y-73660000D03*
X190550800Y-76200000D03*
X190550800Y-78740000D03*
X190550800Y-81280000D03*
X190550800Y-83820000D03*
X190550800Y-86360000D03*
X190550800Y-88900000D03*
X190550800Y-91440000D03*
X190550800Y-93980000D03*
X190550800Y-96520000D03*
X190550800Y-99060000D03*
X190550800Y-101600000D03*
X190550800Y-104140000D03*
X190550800Y-106680000D03*
X190550800Y-109220000D03*
X190550800Y-111760000D03*
X154990800Y-78740000D03*
X157530800Y-78740000D03*
X160070800Y-78740000D03*
X162610800Y-78740000D03*
X165150800Y-78740000D03*
X167690800Y-78740000D03*
X170230800Y-78740000D03*
X172770800Y-78740000D03*
X175310800Y-78740000D03*
X177850800Y-78740000D03*
X180390800Y-78740000D03*
X182930800Y-78740000D03*
X185470800Y-78740000D03*
X188010800Y-78740000D03*
X154990800Y-81280000D03*
X157530800Y-81280000D03*
X160070800Y-81280000D03*
X162610800Y-81280000D03*
X165150800Y-81280000D03*
X167690800Y-81280000D03*
X170230800Y-81280000D03*
X172770800Y-81280000D03*
X175310800Y-81280000D03*
X177850800Y-81280000D03*
X180390800Y-81280000D03*
X182930800Y-81280000D03*
X185470800Y-81280000D03*
X188010800Y-81280000D03*
X154990800Y-86360000D03*
X157530800Y-86360000D03*
X160070800Y-86360000D03*
X162610800Y-86360000D03*
X165150800Y-86360000D03*
X167690800Y-86360000D03*
X170230800Y-86360000D03*
X172770800Y-86360000D03*
X175310800Y-86360000D03*
X177850800Y-86360000D03*
X180390800Y-86360000D03*
X182930800Y-86360000D03*
X185470800Y-86360000D03*
X188010800Y-86360000D03*
X154990800Y-109220000D03*
X157530800Y-109220000D03*
X160070800Y-109220000D03*
X162610800Y-109220000D03*
X165150800Y-109220000D03*
X167690800Y-109220000D03*
X170230800Y-109220000D03*
X172770800Y-109220000D03*
X175310800Y-109220000D03*
X177850800Y-109220000D03*
X180390800Y-109220000D03*
X182930800Y-109220000D03*
X185470800Y-109220000D03*
X188010800Y-109220000D03*
X154990800Y-91440000D03*
X157530800Y-91440000D03*
X160070800Y-91440000D03*
X162610800Y-91440000D03*
X165150800Y-91440000D03*
X167690800Y-91440000D03*
X170230800Y-91440000D03*
X172770800Y-91440000D03*
X175310800Y-91440000D03*
X177850800Y-91440000D03*
X180390800Y-91440000D03*
X182930800Y-91440000D03*
X185470800Y-91440000D03*
X188010800Y-91440000D03*
X154990800Y-101600000D03*
X157530800Y-101600000D03*
X160070800Y-101600000D03*
X162610800Y-101600000D03*
X165150800Y-101600000D03*
X167690800Y-101600000D03*
X170230800Y-101600000D03*
X172770800Y-101600000D03*
X175310800Y-101600000D03*
X177850800Y-101600000D03*
X180390800Y-101600000D03*
X182930800Y-101600000D03*
X185470800Y-101600000D03*
X188010800Y-101600000D03*
X154990800Y-71120000D03*
X157530800Y-71120000D03*
X160070800Y-71120000D03*
X162610800Y-71120000D03*
X165150800Y-71120000D03*
X167690800Y-71120000D03*
X170230800Y-71120000D03*
X172770800Y-71120000D03*
X175310800Y-71120000D03*
X177850800Y-71120000D03*
X180390800Y-71120000D03*
X182930800Y-71120000D03*
X185470800Y-71120000D03*
X188010800Y-71120000D03*
X154990800Y-104140000D03*
X157530800Y-104140000D03*
X160070800Y-104140000D03*
X162610800Y-104140000D03*
X165150800Y-104140000D03*
X167690800Y-104140000D03*
X170230800Y-104140000D03*
X172770800Y-104140000D03*
X175310800Y-104140000D03*
X177850800Y-104140000D03*
X180390800Y-104140000D03*
X182930800Y-104140000D03*
X185470800Y-104140000D03*
X188010800Y-104140000D03*
X154990800Y-106680000D03*
X157530800Y-106680000D03*
X160070800Y-106680000D03*
X162610800Y-106680000D03*
X165150800Y-106680000D03*
X167690800Y-106680000D03*
X170230800Y-106680000D03*
X172770800Y-106680000D03*
X175310800Y-106680000D03*
X177850800Y-106680000D03*
X180390800Y-106680000D03*
X182930800Y-106680000D03*
X185470800Y-106680000D03*
X188010800Y-106680000D03*
X154990800Y-83820000D03*
X157530800Y-83820000D03*
X160070800Y-83820000D03*
X162610800Y-83820000D03*
X165150800Y-83820000D03*
X167690800Y-83820000D03*
X170230800Y-83820000D03*
X172770800Y-83820000D03*
X175310800Y-83820000D03*
X177850800Y-83820000D03*
X180390800Y-83820000D03*
X182930800Y-83820000D03*
X185470800Y-83820000D03*
X188010800Y-83820000D03*
X154990800Y-76200000D03*
X157530800Y-76200000D03*
X160070800Y-76200000D03*
X162610800Y-76200000D03*
X165150800Y-76200000D03*
X167690800Y-76200000D03*
X170230800Y-76200000D03*
X172770800Y-76200000D03*
X175310800Y-76200000D03*
X177850800Y-76200000D03*
X180390800Y-76200000D03*
X182930800Y-76200000D03*
X185470800Y-76200000D03*
X188010800Y-76200000D03*
X154990800Y-73660000D03*
X157530800Y-73660000D03*
X160070800Y-73660000D03*
X162610800Y-73660000D03*
X165150800Y-73660000D03*
X167690800Y-73660000D03*
X170230800Y-73660000D03*
X172770800Y-73660000D03*
X175310800Y-73660000D03*
X177850800Y-73660000D03*
X180390800Y-73660000D03*
X182930800Y-73660000D03*
X185470800Y-73660000D03*
X188010800Y-73660000D03*
X154990800Y-88900000D03*
X157530800Y-88900000D03*
X160070800Y-88900000D03*
X162610800Y-88900000D03*
X165150800Y-88900000D03*
X167690800Y-88900000D03*
X170230800Y-88900000D03*
X172770800Y-88900000D03*
X175310800Y-88900000D03*
X177850800Y-88900000D03*
X180390800Y-88900000D03*
X182930800Y-88900000D03*
X185470800Y-88900000D03*
X188010800Y-88900000D03*
X154990800Y-93980000D03*
X157530800Y-93980000D03*
X160070800Y-93980000D03*
X162610800Y-93980000D03*
X165150800Y-93980000D03*
X167690800Y-93980000D03*
X170230800Y-93980000D03*
X172770800Y-93980000D03*
X175310800Y-93980000D03*
X177850800Y-93980000D03*
X180390800Y-93980000D03*
X182930800Y-93980000D03*
X185470800Y-93980000D03*
X188010800Y-93980000D03*
X154990800Y-96520000D03*
X157530800Y-96520000D03*
X160070800Y-96520000D03*
X162610800Y-96520000D03*
X165150800Y-96520000D03*
X167690800Y-96520000D03*
X170230800Y-96520000D03*
X172770800Y-96520000D03*
X175310800Y-96520000D03*
X177850800Y-96520000D03*
X180390800Y-96520000D03*
X182930800Y-96520000D03*
X185470800Y-96520000D03*
X188010800Y-96520000D03*
X154990800Y-99060000D03*
X157530800Y-99060000D03*
X160070800Y-99060000D03*
X162610800Y-99060000D03*
X165150800Y-99060000D03*
X167690800Y-99060000D03*
X170230800Y-99060000D03*
X172770800Y-99060000D03*
X175310800Y-99060000D03*
X177850800Y-99060000D03*
X180390800Y-99060000D03*
X182930800Y-99060000D03*
X185470800Y-99060000D03*
X188010800Y-99060000D03*
X175310800Y-117551200D03*
X172770800Y-117551200D03*
X170230800Y-117551200D03*
M02*
