G04 #@! TF.FileFunction,Soldermask,Top*
%FSLAX46Y46*%
G04 Gerber Fmt 4.6, Leading zero omitted, Abs format (unit mm)*
G04 Created by KiCad (PCBNEW 4.0.6-e0-6349~52~ubuntu16.10.1) date Fri Apr 28 23:22:40 2017*
%MOMM*%
%LPD*%
G01*
G04 APERTURE LIST*
%ADD10C,0.100000*%
%ADD11C,1.924000*%
%ADD12R,2.100000X2.100000*%
%ADD13O,2.100000X2.100000*%
G04 APERTURE END LIST*
D10*
D11*
X158394400Y-113030000D03*
X160394400Y-113030000D03*
X162394400Y-113030000D03*
X164394400Y-113030000D03*
D12*
X149860000Y-71120000D03*
D13*
X149860000Y-73660000D03*
X149860000Y-76200000D03*
X149860000Y-78740000D03*
X149860000Y-81280000D03*
X149860000Y-83820000D03*
X149860000Y-86360000D03*
X149860000Y-88900000D03*
X149860000Y-91440000D03*
X149860000Y-93980000D03*
X149860000Y-96520000D03*
X149860000Y-99060000D03*
X149860000Y-101600000D03*
X149860000Y-104140000D03*
X149860000Y-106680000D03*
X149860000Y-109220000D03*
X149860000Y-111760000D03*
X193103500Y-73660000D03*
X193103500Y-76200000D03*
X193103500Y-78740000D03*
X193103500Y-81280000D03*
X193103500Y-83820000D03*
X193103500Y-86360000D03*
X193103500Y-88900000D03*
X193103500Y-91440000D03*
X193103500Y-93980000D03*
X193103500Y-96520000D03*
X193103500Y-99060000D03*
X193103500Y-101600000D03*
X193103500Y-104140000D03*
X193103500Y-106680000D03*
X193103500Y-109220000D03*
X193103500Y-111760000D03*
D12*
X152425400Y-71120000D03*
D13*
X152425400Y-73660000D03*
X152425400Y-76200000D03*
X152425400Y-78740000D03*
X152425400Y-81280000D03*
X152425400Y-83820000D03*
X152425400Y-86360000D03*
X152425400Y-88900000D03*
X152425400Y-91440000D03*
X152425400Y-93980000D03*
X152425400Y-96520000D03*
X152425400Y-99060000D03*
X152425400Y-101600000D03*
X152425400Y-104140000D03*
X152425400Y-106680000D03*
X152425400Y-109220000D03*
X152425400Y-111760000D03*
X190550800Y-73660000D03*
X190550800Y-76200000D03*
X190550800Y-78740000D03*
X190550800Y-81280000D03*
X190550800Y-83820000D03*
X190550800Y-86360000D03*
X190550800Y-88900000D03*
X190550800Y-91440000D03*
X190550800Y-93980000D03*
X190550800Y-96520000D03*
X190550800Y-99060000D03*
X190550800Y-101600000D03*
X190550800Y-104140000D03*
X190550800Y-106680000D03*
X190550800Y-109220000D03*
X190550800Y-111760000D03*
X154990800Y-78740000D03*
X157530800Y-78740000D03*
X160070800Y-78740000D03*
X162610800Y-78740000D03*
X165150800Y-78740000D03*
X167690800Y-78740000D03*
X170230800Y-78740000D03*
X172770800Y-78740000D03*
X175310800Y-78740000D03*
X177850800Y-78740000D03*
X180390800Y-78740000D03*
X182930800Y-78740000D03*
X185470800Y-78740000D03*
X188010800Y-78740000D03*
X154990800Y-81280000D03*
X157530800Y-81280000D03*
X160070800Y-81280000D03*
X162610800Y-81280000D03*
X165150800Y-81280000D03*
X167690800Y-81280000D03*
X170230800Y-81280000D03*
X172770800Y-81280000D03*
X175310800Y-81280000D03*
X177850800Y-81280000D03*
X180390800Y-81280000D03*
X182930800Y-81280000D03*
X185470800Y-81280000D03*
X188010800Y-81280000D03*
X154990800Y-86360000D03*
X157530800Y-86360000D03*
X160070800Y-86360000D03*
X162610800Y-86360000D03*
X165150800Y-86360000D03*
X167690800Y-86360000D03*
X170230800Y-86360000D03*
X172770800Y-86360000D03*
X175310800Y-86360000D03*
X177850800Y-86360000D03*
X180390800Y-86360000D03*
X182930800Y-86360000D03*
X185470800Y-86360000D03*
X188010800Y-86360000D03*
X154990800Y-109220000D03*
X157530800Y-109220000D03*
X160070800Y-109220000D03*
X162610800Y-109220000D03*
X165150800Y-109220000D03*
X167690800Y-109220000D03*
X170230800Y-109220000D03*
X172770800Y-109220000D03*
X175310800Y-109220000D03*
X177850800Y-109220000D03*
X180390800Y-109220000D03*
X182930800Y-109220000D03*
X185470800Y-109220000D03*
X188010800Y-109220000D03*
X154990800Y-91440000D03*
X157530800Y-91440000D03*
X160070800Y-91440000D03*
X162610800Y-91440000D03*
X165150800Y-91440000D03*
X167690800Y-91440000D03*
X170230800Y-91440000D03*
X172770800Y-91440000D03*
X175310800Y-91440000D03*
X177850800Y-91440000D03*
X180390800Y-91440000D03*
X182930800Y-91440000D03*
X185470800Y-91440000D03*
X188010800Y-91440000D03*
X154990800Y-101600000D03*
X157530800Y-101600000D03*
X160070800Y-101600000D03*
X162610800Y-101600000D03*
X165150800Y-101600000D03*
X167690800Y-101600000D03*
X170230800Y-101600000D03*
X172770800Y-101600000D03*
X175310800Y-101600000D03*
X177850800Y-101600000D03*
X180390800Y-101600000D03*
X182930800Y-101600000D03*
X185470800Y-101600000D03*
X188010800Y-101600000D03*
X154990800Y-71120000D03*
X157530800Y-71120000D03*
X160070800Y-71120000D03*
X162610800Y-71120000D03*
X165150800Y-71120000D03*
X167690800Y-71120000D03*
X170230800Y-71120000D03*
X172770800Y-71120000D03*
X175310800Y-71120000D03*
X177850800Y-71120000D03*
X180390800Y-71120000D03*
X182930800Y-71120000D03*
X185470800Y-71120000D03*
X188010800Y-71120000D03*
X154990800Y-104140000D03*
X157530800Y-104140000D03*
X160070800Y-104140000D03*
X162610800Y-104140000D03*
X165150800Y-104140000D03*
X167690800Y-104140000D03*
X170230800Y-104140000D03*
X172770800Y-104140000D03*
X175310800Y-104140000D03*
X177850800Y-104140000D03*
X180390800Y-104140000D03*
X182930800Y-104140000D03*
X185470800Y-104140000D03*
X188010800Y-104140000D03*
X154990800Y-106680000D03*
X157530800Y-106680000D03*
X160070800Y-106680000D03*
X162610800Y-106680000D03*
X165150800Y-106680000D03*
X167690800Y-106680000D03*
X170230800Y-106680000D03*
X172770800Y-106680000D03*
X175310800Y-106680000D03*
X177850800Y-106680000D03*
X180390800Y-106680000D03*
X182930800Y-106680000D03*
X185470800Y-106680000D03*
X188010800Y-106680000D03*
X154990800Y-83820000D03*
X157530800Y-83820000D03*
X160070800Y-83820000D03*
X162610800Y-83820000D03*
X165150800Y-83820000D03*
X167690800Y-83820000D03*
X170230800Y-83820000D03*
X172770800Y-83820000D03*
X175310800Y-83820000D03*
X177850800Y-83820000D03*
X180390800Y-83820000D03*
X182930800Y-83820000D03*
X185470800Y-83820000D03*
X188010800Y-83820000D03*
X154990800Y-76200000D03*
X157530800Y-76200000D03*
X160070800Y-76200000D03*
X162610800Y-76200000D03*
X165150800Y-76200000D03*
X167690800Y-76200000D03*
X170230800Y-76200000D03*
X172770800Y-76200000D03*
X175310800Y-76200000D03*
X177850800Y-76200000D03*
X180390800Y-76200000D03*
X182930800Y-76200000D03*
X185470800Y-76200000D03*
X188010800Y-76200000D03*
X154990800Y-73660000D03*
X157530800Y-73660000D03*
X160070800Y-73660000D03*
X162610800Y-73660000D03*
X165150800Y-73660000D03*
X167690800Y-73660000D03*
X170230800Y-73660000D03*
X172770800Y-73660000D03*
X175310800Y-73660000D03*
X177850800Y-73660000D03*
X180390800Y-73660000D03*
X182930800Y-73660000D03*
X185470800Y-73660000D03*
X188010800Y-73660000D03*
X154990800Y-88900000D03*
X157530800Y-88900000D03*
X160070800Y-88900000D03*
X162610800Y-88900000D03*
X165150800Y-88900000D03*
X167690800Y-88900000D03*
X170230800Y-88900000D03*
X172770800Y-88900000D03*
X175310800Y-88900000D03*
X177850800Y-88900000D03*
X180390800Y-88900000D03*
X182930800Y-88900000D03*
X185470800Y-88900000D03*
X188010800Y-88900000D03*
X154990800Y-93980000D03*
X157530800Y-93980000D03*
X160070800Y-93980000D03*
X162610800Y-93980000D03*
X165150800Y-93980000D03*
X167690800Y-93980000D03*
X170230800Y-93980000D03*
X172770800Y-93980000D03*
X175310800Y-93980000D03*
X177850800Y-93980000D03*
X180390800Y-93980000D03*
X182930800Y-93980000D03*
X185470800Y-93980000D03*
X188010800Y-93980000D03*
X154990800Y-96520000D03*
X157530800Y-96520000D03*
X160070800Y-96520000D03*
X162610800Y-96520000D03*
X165150800Y-96520000D03*
X167690800Y-96520000D03*
X170230800Y-96520000D03*
X172770800Y-96520000D03*
X175310800Y-96520000D03*
X177850800Y-96520000D03*
X180390800Y-96520000D03*
X182930800Y-96520000D03*
X185470800Y-96520000D03*
X188010800Y-96520000D03*
X154990800Y-99060000D03*
X157530800Y-99060000D03*
X160070800Y-99060000D03*
X162610800Y-99060000D03*
X165150800Y-99060000D03*
X167690800Y-99060000D03*
X170230800Y-99060000D03*
X172770800Y-99060000D03*
X175310800Y-99060000D03*
X177850800Y-99060000D03*
X180390800Y-99060000D03*
X182930800Y-99060000D03*
X185470800Y-99060000D03*
X188010800Y-99060000D03*
X175310800Y-117551200D03*
X172770800Y-117551200D03*
X170230800Y-117551200D03*
M02*
