G04 #@! TF.FileFunction,Copper,L2,Bot,Signal*
%FSLAX46Y46*%
G04 Gerber Fmt 4.6, Leading zero omitted, Abs format (unit mm)*
G04 Created by KiCad (PCBNEW 4.0.6-e0-6349~52~ubuntu16.10.1) date Fri Apr 21 00:28:44 2017*
%MOMM*%
%LPD*%
G01*
G04 APERTURE LIST*
%ADD10C,0.100000*%
%ADD11R,1.700000X1.700000*%
%ADD12O,1.700000X1.700000*%
%ADD13C,0.600000*%
%ADD14C,0.250000*%
%ADD15C,0.200000*%
G04 APERTURE END LIST*
D10*
D11*
X149860000Y-71120000D03*
D12*
X149860000Y-73660000D03*
X149860000Y-76200000D03*
X149860000Y-78740000D03*
X149860000Y-81280000D03*
X149860000Y-83820000D03*
X149860000Y-86360000D03*
X149860000Y-88900000D03*
X149860000Y-91440000D03*
X149860000Y-93980000D03*
X149860000Y-96520000D03*
X149860000Y-99060000D03*
X149860000Y-101600000D03*
X149860000Y-104140000D03*
X149860000Y-106680000D03*
X149860000Y-109220000D03*
X149860000Y-111760000D03*
X192976500Y-73660000D03*
X192976500Y-76200000D03*
X192976500Y-78740000D03*
X192976500Y-81280000D03*
X192976500Y-83820000D03*
X192976500Y-86360000D03*
X192976500Y-88900000D03*
X192976500Y-91440000D03*
X192976500Y-93980000D03*
X192976500Y-96520000D03*
X192976500Y-99060000D03*
X192976500Y-101600000D03*
X192976500Y-104140000D03*
X192976500Y-106680000D03*
X192976500Y-109220000D03*
X192976500Y-111760000D03*
D11*
X152425400Y-71120000D03*
D12*
X152425400Y-73660000D03*
X152425400Y-76200000D03*
X152425400Y-78740000D03*
X152425400Y-81280000D03*
X152425400Y-83820000D03*
X152425400Y-86360000D03*
X152425400Y-88900000D03*
X152425400Y-91440000D03*
X152425400Y-93980000D03*
X152425400Y-96520000D03*
X152425400Y-99060000D03*
X152425400Y-101600000D03*
X152425400Y-104140000D03*
X152425400Y-106680000D03*
X152425400Y-109220000D03*
X152425400Y-111760000D03*
X190423800Y-73660000D03*
X190423800Y-76200000D03*
X190423800Y-78740000D03*
X190423800Y-81280000D03*
X190423800Y-83820000D03*
X190423800Y-86360000D03*
X190423800Y-88900000D03*
X190423800Y-91440000D03*
X190423800Y-93980000D03*
X190423800Y-96520000D03*
X190423800Y-99060000D03*
X190423800Y-101600000D03*
X190423800Y-104140000D03*
X190423800Y-106680000D03*
X190423800Y-109220000D03*
X190423800Y-111760000D03*
D13*
X156184600Y-75996800D03*
X161874200Y-81483200D03*
X167411400Y-86969600D03*
X173710600Y-93472000D03*
X179705000Y-99110800D03*
X185597800Y-105054400D03*
X187579000Y-71882000D03*
X172339000Y-99822000D03*
X159639000Y-97282000D03*
X162179000Y-84582000D03*
X172339000Y-82042000D03*
X185039000Y-82042000D03*
X182499000Y-97282000D03*
X179959000Y-109982000D03*
X159639000Y-109982000D03*
D14*
X156387800Y-75996800D02*
X156184600Y-75996800D01*
X161874200Y-81483200D02*
X156387800Y-75996800D01*
X167411400Y-87172800D02*
X167411400Y-86969600D01*
X173710600Y-93472000D02*
X167411400Y-87172800D01*
X179705000Y-99161600D02*
X179705000Y-99110800D01*
X185597800Y-105054400D02*
X179705000Y-99161600D01*
X162179000Y-99822000D02*
X172339000Y-99822000D01*
X159639000Y-97282000D02*
X162179000Y-99822000D01*
X169799000Y-84582000D02*
X162179000Y-84582000D01*
X172339000Y-82042000D02*
X169799000Y-84582000D01*
X185039000Y-94742000D02*
X185039000Y-82042000D01*
X182499000Y-97282000D02*
X185039000Y-94742000D01*
X169799000Y-109982000D02*
X179959000Y-109982000D01*
X159639000Y-109982000D02*
X169799000Y-109982000D01*
X149860000Y-70485000D02*
X149225000Y-70485000D01*
X192976500Y-91440000D02*
X192659000Y-91440000D01*
X193014600Y-104140000D02*
X193014600Y-104241600D01*
X193040000Y-104140000D02*
X193040000Y-104267000D01*
D15*
G36*
X148494562Y-69925596D02*
X148402000Y-70149062D01*
X148402000Y-70814000D01*
X148554000Y-70966000D01*
X149706000Y-70966000D01*
X149706000Y-70946000D01*
X150014000Y-70946000D01*
X150014000Y-70966000D01*
X152271400Y-70966000D01*
X152271400Y-70946000D01*
X152579400Y-70946000D01*
X152579400Y-70966000D01*
X153731400Y-70966000D01*
X153883400Y-70814000D01*
X153883400Y-70149062D01*
X153790838Y-69925596D01*
X153751742Y-69886500D01*
X195116500Y-69886500D01*
X195116500Y-118364000D01*
X195125327Y-118408374D01*
X195066585Y-118703689D01*
X194874166Y-118991666D01*
X194586189Y-119184085D01*
X194322626Y-119236511D01*
X194310000Y-119234000D01*
X181292500Y-119234000D01*
X181286150Y-119235263D01*
X181279800Y-119234000D01*
X148780500Y-119234000D01*
X148704376Y-119249142D01*
X148377311Y-119184085D01*
X148089334Y-118991666D01*
X147896915Y-118703689D01*
X147838173Y-118408376D01*
X147847000Y-118364000D01*
X147847000Y-116509800D01*
X148249976Y-116509800D01*
X148419902Y-117364073D01*
X148903809Y-118088291D01*
X149628027Y-118572198D01*
X150482300Y-118742124D01*
X151336573Y-118572198D01*
X152060791Y-118088291D01*
X152544698Y-117364073D01*
X152712097Y-116522500D01*
X190134576Y-116522500D01*
X190304502Y-117376773D01*
X190788409Y-118100991D01*
X191512627Y-118584898D01*
X192366900Y-118754824D01*
X193221173Y-118584898D01*
X193945391Y-118100991D01*
X194429298Y-117376773D01*
X194599224Y-116522500D01*
X194429298Y-115668227D01*
X193945391Y-114944009D01*
X193221173Y-114460102D01*
X192366900Y-114290176D01*
X191512627Y-114460102D01*
X190788409Y-114944009D01*
X190304502Y-115668227D01*
X190134576Y-116522500D01*
X152712097Y-116522500D01*
X152714624Y-116509800D01*
X152544698Y-115655527D01*
X152060791Y-114931309D01*
X151336573Y-114447402D01*
X150482300Y-114277476D01*
X149628027Y-114447402D01*
X148903809Y-114931309D01*
X148419902Y-115655527D01*
X148249976Y-116509800D01*
X147847000Y-116509800D01*
X147847000Y-109598910D01*
X148452097Y-109598910D01*
X148596523Y-109947616D01*
X148971146Y-110375741D01*
X149481089Y-110627915D01*
X149705998Y-110517857D01*
X149705998Y-110636152D01*
X149397384Y-110697539D01*
X149024297Y-110946827D01*
X148775009Y-111319914D01*
X148687470Y-111760000D01*
X148775009Y-112200086D01*
X149024297Y-112573173D01*
X149397384Y-112822461D01*
X149837470Y-112910000D01*
X149882530Y-112910000D01*
X150322616Y-112822461D01*
X150695703Y-112573173D01*
X150944991Y-112200086D01*
X151032530Y-111760000D01*
X150944991Y-111319914D01*
X150695703Y-110946827D01*
X150322616Y-110697539D01*
X150014002Y-110636152D01*
X150014002Y-110517857D01*
X150238911Y-110627915D01*
X150748854Y-110375741D01*
X151123477Y-109947616D01*
X151142700Y-109901203D01*
X151161923Y-109947616D01*
X151536546Y-110375741D01*
X152046489Y-110627915D01*
X152271398Y-110517857D01*
X152271398Y-110636152D01*
X151962784Y-110697539D01*
X151589697Y-110946827D01*
X151340409Y-111319914D01*
X151252870Y-111760000D01*
X151340409Y-112200086D01*
X151589697Y-112573173D01*
X151962784Y-112822461D01*
X152402870Y-112910000D01*
X152447930Y-112910000D01*
X152888016Y-112822461D01*
X153261103Y-112573173D01*
X153510391Y-112200086D01*
X153522559Y-112138910D01*
X189015897Y-112138910D01*
X189160323Y-112487616D01*
X189534946Y-112915741D01*
X190044889Y-113167915D01*
X190269800Y-113057856D01*
X190269800Y-111914000D01*
X190577800Y-111914000D01*
X190577800Y-113057856D01*
X190802711Y-113167915D01*
X191312654Y-112915741D01*
X191687277Y-112487616D01*
X191700150Y-112456535D01*
X191713023Y-112487616D01*
X192087646Y-112915741D01*
X192597589Y-113167915D01*
X192822500Y-113057856D01*
X192822500Y-111914000D01*
X193130500Y-111914000D01*
X193130500Y-113057856D01*
X193355411Y-113167915D01*
X193865354Y-112915741D01*
X194239977Y-112487616D01*
X194384403Y-112138910D01*
X194273389Y-111914000D01*
X193130500Y-111914000D01*
X192822500Y-111914000D01*
X190577800Y-111914000D01*
X190269800Y-111914000D01*
X189126911Y-111914000D01*
X189015897Y-112138910D01*
X153522559Y-112138910D01*
X153597930Y-111760000D01*
X153522560Y-111381090D01*
X189015897Y-111381090D01*
X189126911Y-111606000D01*
X190269800Y-111606000D01*
X190269800Y-111586000D01*
X190577800Y-111586000D01*
X190577800Y-111606000D01*
X192822500Y-111606000D01*
X192822500Y-111586000D01*
X193130500Y-111586000D01*
X193130500Y-111606000D01*
X194273389Y-111606000D01*
X194384403Y-111381090D01*
X194239977Y-111032384D01*
X193865354Y-110604259D01*
X193355411Y-110352085D01*
X193130502Y-110462143D01*
X193130502Y-110343848D01*
X193439116Y-110282461D01*
X193812203Y-110033173D01*
X194061491Y-109660086D01*
X194149030Y-109220000D01*
X194061491Y-108779914D01*
X193812203Y-108406827D01*
X193439116Y-108157539D01*
X192999030Y-108070000D01*
X192953970Y-108070000D01*
X192513884Y-108157539D01*
X192140797Y-108406827D01*
X191891509Y-108779914D01*
X191803970Y-109220000D01*
X191891509Y-109660086D01*
X192140797Y-110033173D01*
X192513884Y-110282461D01*
X192822498Y-110343848D01*
X192822498Y-110462143D01*
X192597589Y-110352085D01*
X192087646Y-110604259D01*
X191713023Y-111032384D01*
X191700150Y-111063465D01*
X191687277Y-111032384D01*
X191312654Y-110604259D01*
X190802711Y-110352085D01*
X190577802Y-110462143D01*
X190577802Y-110343848D01*
X190886416Y-110282461D01*
X191259503Y-110033173D01*
X191508791Y-109660086D01*
X191596330Y-109220000D01*
X191508791Y-108779914D01*
X191259503Y-108406827D01*
X190886416Y-108157539D01*
X190446330Y-108070000D01*
X190401270Y-108070000D01*
X189961184Y-108157539D01*
X189588097Y-108406827D01*
X189338809Y-108779914D01*
X189251270Y-109220000D01*
X189338809Y-109660086D01*
X189588097Y-110033173D01*
X189961184Y-110282461D01*
X190269798Y-110343848D01*
X190269798Y-110462143D01*
X190044889Y-110352085D01*
X189534946Y-110604259D01*
X189160323Y-111032384D01*
X189015897Y-111381090D01*
X153522560Y-111381090D01*
X153510391Y-111319914D01*
X153261103Y-110946827D01*
X152888016Y-110697539D01*
X152579402Y-110636152D01*
X152579402Y-110517857D01*
X152804311Y-110627915D01*
X153314254Y-110375741D01*
X153688877Y-109947616D01*
X153833303Y-109598910D01*
X153722289Y-109374000D01*
X152579400Y-109374000D01*
X152579400Y-109394000D01*
X152271400Y-109394000D01*
X152271400Y-109374000D01*
X150014000Y-109374000D01*
X150014000Y-109394000D01*
X149706000Y-109394000D01*
X149706000Y-109374000D01*
X148563111Y-109374000D01*
X148452097Y-109598910D01*
X147847000Y-109598910D01*
X147847000Y-108841090D01*
X148452097Y-108841090D01*
X148563111Y-109066000D01*
X149706000Y-109066000D01*
X149706000Y-109046000D01*
X150014000Y-109046000D01*
X150014000Y-109066000D01*
X152271400Y-109066000D01*
X152271400Y-109046000D01*
X152579400Y-109046000D01*
X152579400Y-109066000D01*
X153722289Y-109066000D01*
X153833303Y-108841090D01*
X153688877Y-108492384D01*
X153314254Y-108064259D01*
X152804311Y-107812085D01*
X152579402Y-107922143D01*
X152579402Y-107803848D01*
X152888016Y-107742461D01*
X153261103Y-107493173D01*
X153510391Y-107120086D01*
X153597930Y-106680000D01*
X189251270Y-106680000D01*
X189338809Y-107120086D01*
X189588097Y-107493173D01*
X189961184Y-107742461D01*
X190401270Y-107830000D01*
X190446330Y-107830000D01*
X190886416Y-107742461D01*
X191259503Y-107493173D01*
X191508791Y-107120086D01*
X191596330Y-106680000D01*
X191803970Y-106680000D01*
X191891509Y-107120086D01*
X192140797Y-107493173D01*
X192513884Y-107742461D01*
X192953970Y-107830000D01*
X192999030Y-107830000D01*
X193439116Y-107742461D01*
X193812203Y-107493173D01*
X194061491Y-107120086D01*
X194149030Y-106680000D01*
X194061491Y-106239914D01*
X193812203Y-105866827D01*
X193439116Y-105617539D01*
X192999030Y-105530000D01*
X192953970Y-105530000D01*
X192513884Y-105617539D01*
X192140797Y-105866827D01*
X191891509Y-106239914D01*
X191803970Y-106680000D01*
X191596330Y-106680000D01*
X191508791Y-106239914D01*
X191259503Y-105866827D01*
X190886416Y-105617539D01*
X190446330Y-105530000D01*
X190401270Y-105530000D01*
X189961184Y-105617539D01*
X189588097Y-105866827D01*
X189338809Y-106239914D01*
X189251270Y-106680000D01*
X153597930Y-106680000D01*
X153510391Y-106239914D01*
X153261103Y-105866827D01*
X152888016Y-105617539D01*
X152447930Y-105530000D01*
X152402870Y-105530000D01*
X151962784Y-105617539D01*
X151589697Y-105866827D01*
X151340409Y-106239914D01*
X151252870Y-106680000D01*
X151340409Y-107120086D01*
X151589697Y-107493173D01*
X151962784Y-107742461D01*
X152271398Y-107803848D01*
X152271398Y-107922143D01*
X152046489Y-107812085D01*
X151536546Y-108064259D01*
X151161923Y-108492384D01*
X151142700Y-108538797D01*
X151123477Y-108492384D01*
X150748854Y-108064259D01*
X150238911Y-107812085D01*
X150014002Y-107922143D01*
X150014002Y-107803848D01*
X150322616Y-107742461D01*
X150695703Y-107493173D01*
X150944991Y-107120086D01*
X151032530Y-106680000D01*
X150944991Y-106239914D01*
X150695703Y-105866827D01*
X150322616Y-105617539D01*
X149882530Y-105530000D01*
X149837470Y-105530000D01*
X149397384Y-105617539D01*
X149024297Y-105866827D01*
X148775009Y-106239914D01*
X148687470Y-106680000D01*
X148775009Y-107120086D01*
X149024297Y-107493173D01*
X149397384Y-107742461D01*
X149705998Y-107803848D01*
X149705998Y-107922143D01*
X149481089Y-107812085D01*
X148971146Y-108064259D01*
X148596523Y-108492384D01*
X148452097Y-108841090D01*
X147847000Y-108841090D01*
X147847000Y-104140000D01*
X148687470Y-104140000D01*
X148775009Y-104580086D01*
X149024297Y-104953173D01*
X149397384Y-105202461D01*
X149837470Y-105290000D01*
X149882530Y-105290000D01*
X150322616Y-105202461D01*
X150695703Y-104953173D01*
X150944991Y-104580086D01*
X151032530Y-104140000D01*
X151252870Y-104140000D01*
X151340409Y-104580086D01*
X151589697Y-104953173D01*
X151962784Y-105202461D01*
X152402870Y-105290000D01*
X152447930Y-105290000D01*
X152888016Y-105202461D01*
X153261103Y-104953173D01*
X153510391Y-104580086D01*
X153597930Y-104140000D01*
X153510391Y-103699914D01*
X153261103Y-103326827D01*
X152888016Y-103077539D01*
X152447930Y-102990000D01*
X152402870Y-102990000D01*
X151962784Y-103077539D01*
X151589697Y-103326827D01*
X151340409Y-103699914D01*
X151252870Y-104140000D01*
X151032530Y-104140000D01*
X150944991Y-103699914D01*
X150695703Y-103326827D01*
X150322616Y-103077539D01*
X149882530Y-102990000D01*
X149837470Y-102990000D01*
X149397384Y-103077539D01*
X149024297Y-103326827D01*
X148775009Y-103699914D01*
X148687470Y-104140000D01*
X147847000Y-104140000D01*
X147847000Y-101600000D01*
X148687470Y-101600000D01*
X148775009Y-102040086D01*
X149024297Y-102413173D01*
X149397384Y-102662461D01*
X149837470Y-102750000D01*
X149882530Y-102750000D01*
X150322616Y-102662461D01*
X150695703Y-102413173D01*
X150944991Y-102040086D01*
X151032530Y-101600000D01*
X151252870Y-101600000D01*
X151340409Y-102040086D01*
X151589697Y-102413173D01*
X151962784Y-102662461D01*
X152402870Y-102750000D01*
X152447930Y-102750000D01*
X152888016Y-102662461D01*
X153261103Y-102413173D01*
X153510391Y-102040086D01*
X153597930Y-101600000D01*
X153510391Y-101159914D01*
X153261103Y-100786827D01*
X152888016Y-100537539D01*
X152447930Y-100450000D01*
X152402870Y-100450000D01*
X151962784Y-100537539D01*
X151589697Y-100786827D01*
X151340409Y-101159914D01*
X151252870Y-101600000D01*
X151032530Y-101600000D01*
X150944991Y-101159914D01*
X150695703Y-100786827D01*
X150322616Y-100537539D01*
X149882530Y-100450000D01*
X149837470Y-100450000D01*
X149397384Y-100537539D01*
X149024297Y-100786827D01*
X148775009Y-101159914D01*
X148687470Y-101600000D01*
X147847000Y-101600000D01*
X147847000Y-99060000D01*
X148687470Y-99060000D01*
X148775009Y-99500086D01*
X149024297Y-99873173D01*
X149397384Y-100122461D01*
X149837470Y-100210000D01*
X149882530Y-100210000D01*
X150322616Y-100122461D01*
X150695703Y-99873173D01*
X150944991Y-99500086D01*
X151032530Y-99060000D01*
X151252870Y-99060000D01*
X151340409Y-99500086D01*
X151589697Y-99873173D01*
X151962784Y-100122461D01*
X152402870Y-100210000D01*
X152447930Y-100210000D01*
X152888016Y-100122461D01*
X153261103Y-99873173D01*
X153510391Y-99500086D01*
X153564189Y-99229624D01*
X179104896Y-99229624D01*
X179196048Y-99450229D01*
X179364683Y-99619159D01*
X179585129Y-99710696D01*
X179653115Y-99710755D01*
X184997799Y-105055440D01*
X184997696Y-105173224D01*
X185088848Y-105393829D01*
X185257483Y-105562759D01*
X185477929Y-105654296D01*
X185716624Y-105654504D01*
X185937229Y-105563352D01*
X186106159Y-105394717D01*
X186197696Y-105174271D01*
X186197904Y-104935576D01*
X186106752Y-104714971D01*
X185938117Y-104546041D01*
X185717671Y-104454504D01*
X185598841Y-104454400D01*
X185284441Y-104140000D01*
X189251270Y-104140000D01*
X189338809Y-104580086D01*
X189588097Y-104953173D01*
X189961184Y-105202461D01*
X190401270Y-105290000D01*
X190446330Y-105290000D01*
X190886416Y-105202461D01*
X191259503Y-104953173D01*
X191508791Y-104580086D01*
X191596330Y-104140000D01*
X191803970Y-104140000D01*
X191891509Y-104580086D01*
X192140797Y-104953173D01*
X192513884Y-105202461D01*
X192953970Y-105290000D01*
X192999030Y-105290000D01*
X193439116Y-105202461D01*
X193812203Y-104953173D01*
X194061491Y-104580086D01*
X194149030Y-104140000D01*
X194061491Y-103699914D01*
X193812203Y-103326827D01*
X193439116Y-103077539D01*
X192999030Y-102990000D01*
X192953970Y-102990000D01*
X192513884Y-103077539D01*
X192140797Y-103326827D01*
X191891509Y-103699914D01*
X191803970Y-104140000D01*
X191596330Y-104140000D01*
X191508791Y-103699914D01*
X191259503Y-103326827D01*
X190886416Y-103077539D01*
X190446330Y-102990000D01*
X190401270Y-102990000D01*
X189961184Y-103077539D01*
X189588097Y-103326827D01*
X189338809Y-103699914D01*
X189251270Y-104140000D01*
X185284441Y-104140000D01*
X182744441Y-101600000D01*
X189251270Y-101600000D01*
X189338809Y-102040086D01*
X189588097Y-102413173D01*
X189961184Y-102662461D01*
X190401270Y-102750000D01*
X190446330Y-102750000D01*
X190886416Y-102662461D01*
X191259503Y-102413173D01*
X191508791Y-102040086D01*
X191596330Y-101600000D01*
X191803970Y-101600000D01*
X191891509Y-102040086D01*
X192140797Y-102413173D01*
X192513884Y-102662461D01*
X192953970Y-102750000D01*
X192999030Y-102750000D01*
X193439116Y-102662461D01*
X193812203Y-102413173D01*
X194061491Y-102040086D01*
X194149030Y-101600000D01*
X194061491Y-101159914D01*
X193812203Y-100786827D01*
X193439116Y-100537539D01*
X192999030Y-100450000D01*
X192953970Y-100450000D01*
X192513884Y-100537539D01*
X192140797Y-100786827D01*
X191891509Y-101159914D01*
X191803970Y-101600000D01*
X191596330Y-101600000D01*
X191508791Y-101159914D01*
X191259503Y-100786827D01*
X190886416Y-100537539D01*
X190446330Y-100450000D01*
X190401270Y-100450000D01*
X189961184Y-100537539D01*
X189588097Y-100786827D01*
X189338809Y-101159914D01*
X189251270Y-101600000D01*
X182744441Y-101600000D01*
X180304957Y-99160517D01*
X180305044Y-99060000D01*
X189251270Y-99060000D01*
X189338809Y-99500086D01*
X189588097Y-99873173D01*
X189961184Y-100122461D01*
X190401270Y-100210000D01*
X190446330Y-100210000D01*
X190886416Y-100122461D01*
X191259503Y-99873173D01*
X191508791Y-99500086D01*
X191596330Y-99060000D01*
X191803970Y-99060000D01*
X191891509Y-99500086D01*
X192140797Y-99873173D01*
X192513884Y-100122461D01*
X192953970Y-100210000D01*
X192999030Y-100210000D01*
X193439116Y-100122461D01*
X193812203Y-99873173D01*
X194061491Y-99500086D01*
X194149030Y-99060000D01*
X194061491Y-98619914D01*
X193812203Y-98246827D01*
X193439116Y-97997539D01*
X192999030Y-97910000D01*
X192953970Y-97910000D01*
X192513884Y-97997539D01*
X192140797Y-98246827D01*
X191891509Y-98619914D01*
X191803970Y-99060000D01*
X191596330Y-99060000D01*
X191508791Y-98619914D01*
X191259503Y-98246827D01*
X190886416Y-97997539D01*
X190446330Y-97910000D01*
X190401270Y-97910000D01*
X189961184Y-97997539D01*
X189588097Y-98246827D01*
X189338809Y-98619914D01*
X189251270Y-99060000D01*
X180305044Y-99060000D01*
X180305104Y-98991976D01*
X180213952Y-98771371D01*
X180045317Y-98602441D01*
X179824871Y-98510904D01*
X179586176Y-98510696D01*
X179365571Y-98601848D01*
X179196641Y-98770483D01*
X179105104Y-98990929D01*
X179104896Y-99229624D01*
X153564189Y-99229624D01*
X153597930Y-99060000D01*
X153510391Y-98619914D01*
X153261103Y-98246827D01*
X152888016Y-97997539D01*
X152447930Y-97910000D01*
X152402870Y-97910000D01*
X151962784Y-97997539D01*
X151589697Y-98246827D01*
X151340409Y-98619914D01*
X151252870Y-99060000D01*
X151032530Y-99060000D01*
X150944991Y-98619914D01*
X150695703Y-98246827D01*
X150322616Y-97997539D01*
X149882530Y-97910000D01*
X149837470Y-97910000D01*
X149397384Y-97997539D01*
X149024297Y-98246827D01*
X148775009Y-98619914D01*
X148687470Y-99060000D01*
X147847000Y-99060000D01*
X147847000Y-96520000D01*
X148687470Y-96520000D01*
X148775009Y-96960086D01*
X149024297Y-97333173D01*
X149397384Y-97582461D01*
X149837470Y-97670000D01*
X149882530Y-97670000D01*
X150322616Y-97582461D01*
X150695703Y-97333173D01*
X150944991Y-96960086D01*
X151032530Y-96520000D01*
X151252870Y-96520000D01*
X151340409Y-96960086D01*
X151589697Y-97333173D01*
X151962784Y-97582461D01*
X152402870Y-97670000D01*
X152447930Y-97670000D01*
X152888016Y-97582461D01*
X153261103Y-97333173D01*
X153510391Y-96960086D01*
X153597930Y-96520000D01*
X189251270Y-96520000D01*
X189338809Y-96960086D01*
X189588097Y-97333173D01*
X189961184Y-97582461D01*
X190401270Y-97670000D01*
X190446330Y-97670000D01*
X190886416Y-97582461D01*
X191259503Y-97333173D01*
X191508791Y-96960086D01*
X191596330Y-96520000D01*
X191803970Y-96520000D01*
X191891509Y-96960086D01*
X192140797Y-97333173D01*
X192513884Y-97582461D01*
X192953970Y-97670000D01*
X192999030Y-97670000D01*
X193439116Y-97582461D01*
X193812203Y-97333173D01*
X194061491Y-96960086D01*
X194149030Y-96520000D01*
X194061491Y-96079914D01*
X193812203Y-95706827D01*
X193439116Y-95457539D01*
X192999030Y-95370000D01*
X192953970Y-95370000D01*
X192513884Y-95457539D01*
X192140797Y-95706827D01*
X191891509Y-96079914D01*
X191803970Y-96520000D01*
X191596330Y-96520000D01*
X191508791Y-96079914D01*
X191259503Y-95706827D01*
X190886416Y-95457539D01*
X190446330Y-95370000D01*
X190401270Y-95370000D01*
X189961184Y-95457539D01*
X189588097Y-95706827D01*
X189338809Y-96079914D01*
X189251270Y-96520000D01*
X153597930Y-96520000D01*
X153510391Y-96079914D01*
X153261103Y-95706827D01*
X152888016Y-95457539D01*
X152447930Y-95370000D01*
X152402870Y-95370000D01*
X151962784Y-95457539D01*
X151589697Y-95706827D01*
X151340409Y-96079914D01*
X151252870Y-96520000D01*
X151032530Y-96520000D01*
X150944991Y-96079914D01*
X150695703Y-95706827D01*
X150322616Y-95457539D01*
X149882530Y-95370000D01*
X149837470Y-95370000D01*
X149397384Y-95457539D01*
X149024297Y-95706827D01*
X148775009Y-96079914D01*
X148687470Y-96520000D01*
X147847000Y-96520000D01*
X147847000Y-93980000D01*
X148687470Y-93980000D01*
X148775009Y-94420086D01*
X149024297Y-94793173D01*
X149397384Y-95042461D01*
X149837470Y-95130000D01*
X149882530Y-95130000D01*
X150322616Y-95042461D01*
X150695703Y-94793173D01*
X150944991Y-94420086D01*
X151032530Y-93980000D01*
X151252870Y-93980000D01*
X151340409Y-94420086D01*
X151589697Y-94793173D01*
X151962784Y-95042461D01*
X152402870Y-95130000D01*
X152447930Y-95130000D01*
X152888016Y-95042461D01*
X153261103Y-94793173D01*
X153510391Y-94420086D01*
X153597930Y-93980000D01*
X153510391Y-93539914D01*
X153261103Y-93166827D01*
X152888016Y-92917539D01*
X152447930Y-92830000D01*
X152402870Y-92830000D01*
X151962784Y-92917539D01*
X151589697Y-93166827D01*
X151340409Y-93539914D01*
X151252870Y-93980000D01*
X151032530Y-93980000D01*
X150944991Y-93539914D01*
X150695703Y-93166827D01*
X150322616Y-92917539D01*
X149882530Y-92830000D01*
X149837470Y-92830000D01*
X149397384Y-92917539D01*
X149024297Y-93166827D01*
X148775009Y-93539914D01*
X148687470Y-93980000D01*
X147847000Y-93980000D01*
X147847000Y-91440000D01*
X148687470Y-91440000D01*
X148775009Y-91880086D01*
X149024297Y-92253173D01*
X149397384Y-92502461D01*
X149837470Y-92590000D01*
X149882530Y-92590000D01*
X150322616Y-92502461D01*
X150695703Y-92253173D01*
X150944991Y-91880086D01*
X151032530Y-91440000D01*
X151252870Y-91440000D01*
X151340409Y-91880086D01*
X151589697Y-92253173D01*
X151962784Y-92502461D01*
X152402870Y-92590000D01*
X152447930Y-92590000D01*
X152888016Y-92502461D01*
X153261103Y-92253173D01*
X153510391Y-91880086D01*
X153597930Y-91440000D01*
X153510391Y-90999914D01*
X153261103Y-90626827D01*
X152888016Y-90377539D01*
X152447930Y-90290000D01*
X152402870Y-90290000D01*
X151962784Y-90377539D01*
X151589697Y-90626827D01*
X151340409Y-90999914D01*
X151252870Y-91440000D01*
X151032530Y-91440000D01*
X150944991Y-90999914D01*
X150695703Y-90626827D01*
X150322616Y-90377539D01*
X149882530Y-90290000D01*
X149837470Y-90290000D01*
X149397384Y-90377539D01*
X149024297Y-90626827D01*
X148775009Y-90999914D01*
X148687470Y-91440000D01*
X147847000Y-91440000D01*
X147847000Y-88900000D01*
X148687470Y-88900000D01*
X148775009Y-89340086D01*
X149024297Y-89713173D01*
X149397384Y-89962461D01*
X149837470Y-90050000D01*
X149882530Y-90050000D01*
X150322616Y-89962461D01*
X150695703Y-89713173D01*
X150944991Y-89340086D01*
X151032530Y-88900000D01*
X151252870Y-88900000D01*
X151340409Y-89340086D01*
X151589697Y-89713173D01*
X151962784Y-89962461D01*
X152402870Y-90050000D01*
X152447930Y-90050000D01*
X152888016Y-89962461D01*
X153261103Y-89713173D01*
X153510391Y-89340086D01*
X153597930Y-88900000D01*
X153510391Y-88459914D01*
X153261103Y-88086827D01*
X152888016Y-87837539D01*
X152447930Y-87750000D01*
X152402870Y-87750000D01*
X151962784Y-87837539D01*
X151589697Y-88086827D01*
X151340409Y-88459914D01*
X151252870Y-88900000D01*
X151032530Y-88900000D01*
X150944991Y-88459914D01*
X150695703Y-88086827D01*
X150322616Y-87837539D01*
X149882530Y-87750000D01*
X149837470Y-87750000D01*
X149397384Y-87837539D01*
X149024297Y-88086827D01*
X148775009Y-88459914D01*
X148687470Y-88900000D01*
X147847000Y-88900000D01*
X147847000Y-86360000D01*
X148687470Y-86360000D01*
X148775009Y-86800086D01*
X149024297Y-87173173D01*
X149397384Y-87422461D01*
X149837470Y-87510000D01*
X149882530Y-87510000D01*
X150322616Y-87422461D01*
X150695703Y-87173173D01*
X150944991Y-86800086D01*
X151032530Y-86360000D01*
X151252870Y-86360000D01*
X151340409Y-86800086D01*
X151589697Y-87173173D01*
X151962784Y-87422461D01*
X152402870Y-87510000D01*
X152447930Y-87510000D01*
X152888016Y-87422461D01*
X153261103Y-87173173D01*
X153317730Y-87088424D01*
X166811296Y-87088424D01*
X166902448Y-87309029D01*
X167071083Y-87477959D01*
X167147073Y-87509513D01*
X173110599Y-93473039D01*
X173110496Y-93590824D01*
X173201648Y-93811429D01*
X173370283Y-93980359D01*
X173590729Y-94071896D01*
X173829424Y-94072104D01*
X174050029Y-93980952D01*
X174050982Y-93980000D01*
X189251270Y-93980000D01*
X189338809Y-94420086D01*
X189588097Y-94793173D01*
X189961184Y-95042461D01*
X190401270Y-95130000D01*
X190446330Y-95130000D01*
X190886416Y-95042461D01*
X191259503Y-94793173D01*
X191508791Y-94420086D01*
X191596330Y-93980000D01*
X191803970Y-93980000D01*
X191891509Y-94420086D01*
X192140797Y-94793173D01*
X192513884Y-95042461D01*
X192953970Y-95130000D01*
X192999030Y-95130000D01*
X193439116Y-95042461D01*
X193812203Y-94793173D01*
X194061491Y-94420086D01*
X194149030Y-93980000D01*
X194061491Y-93539914D01*
X193812203Y-93166827D01*
X193439116Y-92917539D01*
X192999030Y-92830000D01*
X192953970Y-92830000D01*
X192513884Y-92917539D01*
X192140797Y-93166827D01*
X191891509Y-93539914D01*
X191803970Y-93980000D01*
X191596330Y-93980000D01*
X191508791Y-93539914D01*
X191259503Y-93166827D01*
X190886416Y-92917539D01*
X190446330Y-92830000D01*
X190401270Y-92830000D01*
X189961184Y-92917539D01*
X189588097Y-93166827D01*
X189338809Y-93539914D01*
X189251270Y-93980000D01*
X174050982Y-93980000D01*
X174218959Y-93812317D01*
X174310496Y-93591871D01*
X174310704Y-93353176D01*
X174219552Y-93132571D01*
X174050917Y-92963641D01*
X173830471Y-92872104D01*
X173711640Y-92872000D01*
X172279640Y-91440000D01*
X189251270Y-91440000D01*
X189338809Y-91880086D01*
X189588097Y-92253173D01*
X189961184Y-92502461D01*
X190401270Y-92590000D01*
X190446330Y-92590000D01*
X190886416Y-92502461D01*
X191259503Y-92253173D01*
X191508791Y-91880086D01*
X191596330Y-91440000D01*
X191803970Y-91440000D01*
X191891509Y-91880086D01*
X192140797Y-92253173D01*
X192513884Y-92502461D01*
X192953970Y-92590000D01*
X192999030Y-92590000D01*
X193439116Y-92502461D01*
X193812203Y-92253173D01*
X194061491Y-91880086D01*
X194149030Y-91440000D01*
X194061491Y-90999914D01*
X193812203Y-90626827D01*
X193439116Y-90377539D01*
X192999030Y-90290000D01*
X192953970Y-90290000D01*
X192513884Y-90377539D01*
X192140797Y-90626827D01*
X191891509Y-90999914D01*
X191803970Y-91440000D01*
X191596330Y-91440000D01*
X191508791Y-90999914D01*
X191259503Y-90626827D01*
X190886416Y-90377539D01*
X190446330Y-90290000D01*
X190401270Y-90290000D01*
X189961184Y-90377539D01*
X189588097Y-90626827D01*
X189338809Y-90999914D01*
X189251270Y-91440000D01*
X172279640Y-91440000D01*
X169739640Y-88900000D01*
X189251270Y-88900000D01*
X189338809Y-89340086D01*
X189588097Y-89713173D01*
X189961184Y-89962461D01*
X190401270Y-90050000D01*
X190446330Y-90050000D01*
X190886416Y-89962461D01*
X191259503Y-89713173D01*
X191508791Y-89340086D01*
X191596330Y-88900000D01*
X191803970Y-88900000D01*
X191891509Y-89340086D01*
X192140797Y-89713173D01*
X192513884Y-89962461D01*
X192953970Y-90050000D01*
X192999030Y-90050000D01*
X193439116Y-89962461D01*
X193812203Y-89713173D01*
X194061491Y-89340086D01*
X194149030Y-88900000D01*
X194061491Y-88459914D01*
X193812203Y-88086827D01*
X193439116Y-87837539D01*
X192999030Y-87750000D01*
X192953970Y-87750000D01*
X192513884Y-87837539D01*
X192140797Y-88086827D01*
X191891509Y-88459914D01*
X191803970Y-88900000D01*
X191596330Y-88900000D01*
X191508791Y-88459914D01*
X191259503Y-88086827D01*
X190886416Y-87837539D01*
X190446330Y-87750000D01*
X190401270Y-87750000D01*
X189961184Y-87837539D01*
X189588097Y-88086827D01*
X189338809Y-88459914D01*
X189251270Y-88900000D01*
X169739640Y-88900000D01*
X167987183Y-87147543D01*
X168011296Y-87089471D01*
X168011504Y-86850776D01*
X167920352Y-86630171D01*
X167751717Y-86461241D01*
X167531271Y-86369704D01*
X167292576Y-86369496D01*
X167071971Y-86460648D01*
X166903041Y-86629283D01*
X166811504Y-86849729D01*
X166811296Y-87088424D01*
X153317730Y-87088424D01*
X153510391Y-86800086D01*
X153597930Y-86360000D01*
X189251270Y-86360000D01*
X189338809Y-86800086D01*
X189588097Y-87173173D01*
X189961184Y-87422461D01*
X190401270Y-87510000D01*
X190446330Y-87510000D01*
X190886416Y-87422461D01*
X191259503Y-87173173D01*
X191508791Y-86800086D01*
X191596330Y-86360000D01*
X191803970Y-86360000D01*
X191891509Y-86800086D01*
X192140797Y-87173173D01*
X192513884Y-87422461D01*
X192953970Y-87510000D01*
X192999030Y-87510000D01*
X193439116Y-87422461D01*
X193812203Y-87173173D01*
X194061491Y-86800086D01*
X194149030Y-86360000D01*
X194061491Y-85919914D01*
X193812203Y-85546827D01*
X193439116Y-85297539D01*
X192999030Y-85210000D01*
X192953970Y-85210000D01*
X192513884Y-85297539D01*
X192140797Y-85546827D01*
X191891509Y-85919914D01*
X191803970Y-86360000D01*
X191596330Y-86360000D01*
X191508791Y-85919914D01*
X191259503Y-85546827D01*
X190886416Y-85297539D01*
X190446330Y-85210000D01*
X190401270Y-85210000D01*
X189961184Y-85297539D01*
X189588097Y-85546827D01*
X189338809Y-85919914D01*
X189251270Y-86360000D01*
X153597930Y-86360000D01*
X153510391Y-85919914D01*
X153261103Y-85546827D01*
X152888016Y-85297539D01*
X152447930Y-85210000D01*
X152402870Y-85210000D01*
X151962784Y-85297539D01*
X151589697Y-85546827D01*
X151340409Y-85919914D01*
X151252870Y-86360000D01*
X151032530Y-86360000D01*
X150944991Y-85919914D01*
X150695703Y-85546827D01*
X150322616Y-85297539D01*
X149882530Y-85210000D01*
X149837470Y-85210000D01*
X149397384Y-85297539D01*
X149024297Y-85546827D01*
X148775009Y-85919914D01*
X148687470Y-86360000D01*
X147847000Y-86360000D01*
X147847000Y-83820000D01*
X148687470Y-83820000D01*
X148775009Y-84260086D01*
X149024297Y-84633173D01*
X149397384Y-84882461D01*
X149837470Y-84970000D01*
X149882530Y-84970000D01*
X150322616Y-84882461D01*
X150695703Y-84633173D01*
X150944991Y-84260086D01*
X151032530Y-83820000D01*
X151252870Y-83820000D01*
X151340409Y-84260086D01*
X151589697Y-84633173D01*
X151962784Y-84882461D01*
X152402870Y-84970000D01*
X152447930Y-84970000D01*
X152888016Y-84882461D01*
X153261103Y-84633173D01*
X153510391Y-84260086D01*
X153597930Y-83820000D01*
X189251270Y-83820000D01*
X189338809Y-84260086D01*
X189588097Y-84633173D01*
X189961184Y-84882461D01*
X190401270Y-84970000D01*
X190446330Y-84970000D01*
X190886416Y-84882461D01*
X191259503Y-84633173D01*
X191508791Y-84260086D01*
X191596330Y-83820000D01*
X191803970Y-83820000D01*
X191891509Y-84260086D01*
X192140797Y-84633173D01*
X192513884Y-84882461D01*
X192953970Y-84970000D01*
X192999030Y-84970000D01*
X193439116Y-84882461D01*
X193812203Y-84633173D01*
X194061491Y-84260086D01*
X194149030Y-83820000D01*
X194061491Y-83379914D01*
X193812203Y-83006827D01*
X193439116Y-82757539D01*
X192999030Y-82670000D01*
X192953970Y-82670000D01*
X192513884Y-82757539D01*
X192140797Y-83006827D01*
X191891509Y-83379914D01*
X191803970Y-83820000D01*
X191596330Y-83820000D01*
X191508791Y-83379914D01*
X191259503Y-83006827D01*
X190886416Y-82757539D01*
X190446330Y-82670000D01*
X190401270Y-82670000D01*
X189961184Y-82757539D01*
X189588097Y-83006827D01*
X189338809Y-83379914D01*
X189251270Y-83820000D01*
X153597930Y-83820000D01*
X153510391Y-83379914D01*
X153261103Y-83006827D01*
X152888016Y-82757539D01*
X152447930Y-82670000D01*
X152402870Y-82670000D01*
X151962784Y-82757539D01*
X151589697Y-83006827D01*
X151340409Y-83379914D01*
X151252870Y-83820000D01*
X151032530Y-83820000D01*
X150944991Y-83379914D01*
X150695703Y-83006827D01*
X150322616Y-82757539D01*
X149882530Y-82670000D01*
X149837470Y-82670000D01*
X149397384Y-82757539D01*
X149024297Y-83006827D01*
X148775009Y-83379914D01*
X148687470Y-83820000D01*
X147847000Y-83820000D01*
X147847000Y-81280000D01*
X148687470Y-81280000D01*
X148775009Y-81720086D01*
X149024297Y-82093173D01*
X149397384Y-82342461D01*
X149837470Y-82430000D01*
X149882530Y-82430000D01*
X150322616Y-82342461D01*
X150695703Y-82093173D01*
X150944991Y-81720086D01*
X151032530Y-81280000D01*
X151252870Y-81280000D01*
X151340409Y-81720086D01*
X151589697Y-82093173D01*
X151962784Y-82342461D01*
X152402870Y-82430000D01*
X152447930Y-82430000D01*
X152888016Y-82342461D01*
X153261103Y-82093173D01*
X153510391Y-81720086D01*
X153597930Y-81280000D01*
X153510391Y-80839914D01*
X153261103Y-80466827D01*
X152888016Y-80217539D01*
X152447930Y-80130000D01*
X152402870Y-80130000D01*
X151962784Y-80217539D01*
X151589697Y-80466827D01*
X151340409Y-80839914D01*
X151252870Y-81280000D01*
X151032530Y-81280000D01*
X150944991Y-80839914D01*
X150695703Y-80466827D01*
X150322616Y-80217539D01*
X149882530Y-80130000D01*
X149837470Y-80130000D01*
X149397384Y-80217539D01*
X149024297Y-80466827D01*
X148775009Y-80839914D01*
X148687470Y-81280000D01*
X147847000Y-81280000D01*
X147847000Y-78740000D01*
X148687470Y-78740000D01*
X148775009Y-79180086D01*
X149024297Y-79553173D01*
X149397384Y-79802461D01*
X149837470Y-79890000D01*
X149882530Y-79890000D01*
X150322616Y-79802461D01*
X150695703Y-79553173D01*
X150944991Y-79180086D01*
X151032530Y-78740000D01*
X151252870Y-78740000D01*
X151340409Y-79180086D01*
X151589697Y-79553173D01*
X151962784Y-79802461D01*
X152402870Y-79890000D01*
X152447930Y-79890000D01*
X152888016Y-79802461D01*
X153261103Y-79553173D01*
X153510391Y-79180086D01*
X153597930Y-78740000D01*
X153510391Y-78299914D01*
X153261103Y-77926827D01*
X152888016Y-77677539D01*
X152447930Y-77590000D01*
X152402870Y-77590000D01*
X151962784Y-77677539D01*
X151589697Y-77926827D01*
X151340409Y-78299914D01*
X151252870Y-78740000D01*
X151032530Y-78740000D01*
X150944991Y-78299914D01*
X150695703Y-77926827D01*
X150322616Y-77677539D01*
X149882530Y-77590000D01*
X149837470Y-77590000D01*
X149397384Y-77677539D01*
X149024297Y-77926827D01*
X148775009Y-78299914D01*
X148687470Y-78740000D01*
X147847000Y-78740000D01*
X147847000Y-76200000D01*
X148687470Y-76200000D01*
X148775009Y-76640086D01*
X149024297Y-77013173D01*
X149397384Y-77262461D01*
X149837470Y-77350000D01*
X149882530Y-77350000D01*
X150322616Y-77262461D01*
X150695703Y-77013173D01*
X150944991Y-76640086D01*
X151032530Y-76200000D01*
X151252870Y-76200000D01*
X151340409Y-76640086D01*
X151589697Y-77013173D01*
X151962784Y-77262461D01*
X152402870Y-77350000D01*
X152447930Y-77350000D01*
X152888016Y-77262461D01*
X153261103Y-77013173D01*
X153510391Y-76640086D01*
X153597930Y-76200000D01*
X153581147Y-76115624D01*
X155584496Y-76115624D01*
X155675648Y-76336229D01*
X155844283Y-76505159D01*
X156064729Y-76596696D01*
X156303424Y-76596904D01*
X156362468Y-76572508D01*
X161274199Y-81484240D01*
X161274096Y-81602024D01*
X161365248Y-81822629D01*
X161533883Y-81991559D01*
X161754329Y-82083096D01*
X161993024Y-82083304D01*
X162213629Y-81992152D01*
X162382559Y-81823517D01*
X162474096Y-81603071D01*
X162474304Y-81364376D01*
X162439441Y-81280000D01*
X189251270Y-81280000D01*
X189338809Y-81720086D01*
X189588097Y-82093173D01*
X189961184Y-82342461D01*
X190401270Y-82430000D01*
X190446330Y-82430000D01*
X190886416Y-82342461D01*
X191259503Y-82093173D01*
X191508791Y-81720086D01*
X191596330Y-81280000D01*
X191803970Y-81280000D01*
X191891509Y-81720086D01*
X192140797Y-82093173D01*
X192513884Y-82342461D01*
X192953970Y-82430000D01*
X192999030Y-82430000D01*
X193439116Y-82342461D01*
X193812203Y-82093173D01*
X194061491Y-81720086D01*
X194149030Y-81280000D01*
X194061491Y-80839914D01*
X193812203Y-80466827D01*
X193439116Y-80217539D01*
X192999030Y-80130000D01*
X192953970Y-80130000D01*
X192513884Y-80217539D01*
X192140797Y-80466827D01*
X191891509Y-80839914D01*
X191803970Y-81280000D01*
X191596330Y-81280000D01*
X191508791Y-80839914D01*
X191259503Y-80466827D01*
X190886416Y-80217539D01*
X190446330Y-80130000D01*
X190401270Y-80130000D01*
X189961184Y-80217539D01*
X189588097Y-80466827D01*
X189338809Y-80839914D01*
X189251270Y-81280000D01*
X162439441Y-81280000D01*
X162383152Y-81143771D01*
X162214517Y-80974841D01*
X161994071Y-80883304D01*
X161875241Y-80883200D01*
X159732041Y-78740000D01*
X189251270Y-78740000D01*
X189338809Y-79180086D01*
X189588097Y-79553173D01*
X189961184Y-79802461D01*
X190401270Y-79890000D01*
X190446330Y-79890000D01*
X190886416Y-79802461D01*
X191259503Y-79553173D01*
X191508791Y-79180086D01*
X191596330Y-78740000D01*
X191803970Y-78740000D01*
X191891509Y-79180086D01*
X192140797Y-79553173D01*
X192513884Y-79802461D01*
X192953970Y-79890000D01*
X192999030Y-79890000D01*
X193439116Y-79802461D01*
X193812203Y-79553173D01*
X194061491Y-79180086D01*
X194149030Y-78740000D01*
X194061491Y-78299914D01*
X193812203Y-77926827D01*
X193439116Y-77677539D01*
X192999030Y-77590000D01*
X192953970Y-77590000D01*
X192513884Y-77677539D01*
X192140797Y-77926827D01*
X191891509Y-78299914D01*
X191803970Y-78740000D01*
X191596330Y-78740000D01*
X191508791Y-78299914D01*
X191259503Y-77926827D01*
X190886416Y-77677539D01*
X190446330Y-77590000D01*
X190401270Y-77590000D01*
X189961184Y-77677539D01*
X189588097Y-77926827D01*
X189338809Y-78299914D01*
X189251270Y-78740000D01*
X159732041Y-78740000D01*
X157192041Y-76200000D01*
X189251270Y-76200000D01*
X189338809Y-76640086D01*
X189588097Y-77013173D01*
X189961184Y-77262461D01*
X190401270Y-77350000D01*
X190446330Y-77350000D01*
X190886416Y-77262461D01*
X191259503Y-77013173D01*
X191508791Y-76640086D01*
X191596330Y-76200000D01*
X191803970Y-76200000D01*
X191891509Y-76640086D01*
X192140797Y-77013173D01*
X192513884Y-77262461D01*
X192953970Y-77350000D01*
X192999030Y-77350000D01*
X193439116Y-77262461D01*
X193812203Y-77013173D01*
X194061491Y-76640086D01*
X194149030Y-76200000D01*
X194061491Y-75759914D01*
X193812203Y-75386827D01*
X193439116Y-75137539D01*
X192999030Y-75050000D01*
X192953970Y-75050000D01*
X192513884Y-75137539D01*
X192140797Y-75386827D01*
X191891509Y-75759914D01*
X191803970Y-76200000D01*
X191596330Y-76200000D01*
X191508791Y-75759914D01*
X191259503Y-75386827D01*
X190886416Y-75137539D01*
X190446330Y-75050000D01*
X190401270Y-75050000D01*
X189961184Y-75137539D01*
X189588097Y-75386827D01*
X189338809Y-75759914D01*
X189251270Y-76200000D01*
X157192041Y-76200000D01*
X156724633Y-75732593D01*
X156693552Y-75657371D01*
X156524917Y-75488441D01*
X156304471Y-75396904D01*
X156065776Y-75396696D01*
X155845171Y-75487848D01*
X155676241Y-75656483D01*
X155584704Y-75876929D01*
X155584496Y-76115624D01*
X153581147Y-76115624D01*
X153510391Y-75759914D01*
X153261103Y-75386827D01*
X152888016Y-75137539D01*
X152447930Y-75050000D01*
X152402870Y-75050000D01*
X151962784Y-75137539D01*
X151589697Y-75386827D01*
X151340409Y-75759914D01*
X151252870Y-76200000D01*
X151032530Y-76200000D01*
X150944991Y-75759914D01*
X150695703Y-75386827D01*
X150322616Y-75137539D01*
X149882530Y-75050000D01*
X149837470Y-75050000D01*
X149397384Y-75137539D01*
X149024297Y-75386827D01*
X148775009Y-75759914D01*
X148687470Y-76200000D01*
X147847000Y-76200000D01*
X147847000Y-71426000D01*
X148402000Y-71426000D01*
X148402000Y-72090938D01*
X148494562Y-72314404D01*
X148665595Y-72485437D01*
X148889061Y-72578000D01*
X149495613Y-72578000D01*
X149397384Y-72597539D01*
X149024297Y-72846827D01*
X148775009Y-73219914D01*
X148687470Y-73660000D01*
X148775009Y-74100086D01*
X149024297Y-74473173D01*
X149397384Y-74722461D01*
X149837470Y-74810000D01*
X149882530Y-74810000D01*
X150322616Y-74722461D01*
X150695703Y-74473173D01*
X150944991Y-74100086D01*
X151032530Y-73660000D01*
X150944991Y-73219914D01*
X150695703Y-72846827D01*
X150322616Y-72597539D01*
X150224387Y-72578000D01*
X150830939Y-72578000D01*
X151054405Y-72485437D01*
X151142700Y-72397142D01*
X151230995Y-72485437D01*
X151454461Y-72578000D01*
X152061013Y-72578000D01*
X151962784Y-72597539D01*
X151589697Y-72846827D01*
X151340409Y-73219914D01*
X151252870Y-73660000D01*
X151340409Y-74100086D01*
X151589697Y-74473173D01*
X151962784Y-74722461D01*
X152402870Y-74810000D01*
X152447930Y-74810000D01*
X152888016Y-74722461D01*
X153261103Y-74473173D01*
X153510391Y-74100086D01*
X153597930Y-73660000D01*
X189251270Y-73660000D01*
X189338809Y-74100086D01*
X189588097Y-74473173D01*
X189961184Y-74722461D01*
X190401270Y-74810000D01*
X190446330Y-74810000D01*
X190886416Y-74722461D01*
X191259503Y-74473173D01*
X191508791Y-74100086D01*
X191596330Y-73660000D01*
X191803970Y-73660000D01*
X191891509Y-74100086D01*
X192140797Y-74473173D01*
X192513884Y-74722461D01*
X192953970Y-74810000D01*
X192999030Y-74810000D01*
X193439116Y-74722461D01*
X193812203Y-74473173D01*
X194061491Y-74100086D01*
X194149030Y-73660000D01*
X194061491Y-73219914D01*
X193812203Y-72846827D01*
X193439116Y-72597539D01*
X192999030Y-72510000D01*
X192953970Y-72510000D01*
X192513884Y-72597539D01*
X192140797Y-72846827D01*
X191891509Y-73219914D01*
X191803970Y-73660000D01*
X191596330Y-73660000D01*
X191508791Y-73219914D01*
X191259503Y-72846827D01*
X190886416Y-72597539D01*
X190446330Y-72510000D01*
X190401270Y-72510000D01*
X189961184Y-72597539D01*
X189588097Y-72846827D01*
X189338809Y-73219914D01*
X189251270Y-73660000D01*
X153597930Y-73660000D01*
X153510391Y-73219914D01*
X153261103Y-72846827D01*
X152888016Y-72597539D01*
X152789787Y-72578000D01*
X153396339Y-72578000D01*
X153619805Y-72485437D01*
X153790838Y-72314404D01*
X153883400Y-72090938D01*
X153883400Y-71426000D01*
X153731400Y-71274000D01*
X152579400Y-71274000D01*
X152579400Y-71294000D01*
X152271400Y-71294000D01*
X152271400Y-71274000D01*
X150014000Y-71274000D01*
X150014000Y-71294000D01*
X149706000Y-71294000D01*
X149706000Y-71274000D01*
X148554000Y-71274000D01*
X148402000Y-71426000D01*
X147847000Y-71426000D01*
X147847000Y-69886500D01*
X148533658Y-69886500D01*
X148494562Y-69925596D01*
X148494562Y-69925596D01*
G37*
X148494562Y-69925596D02*
X148402000Y-70149062D01*
X148402000Y-70814000D01*
X148554000Y-70966000D01*
X149706000Y-70966000D01*
X149706000Y-70946000D01*
X150014000Y-70946000D01*
X150014000Y-70966000D01*
X152271400Y-70966000D01*
X152271400Y-70946000D01*
X152579400Y-70946000D01*
X152579400Y-70966000D01*
X153731400Y-70966000D01*
X153883400Y-70814000D01*
X153883400Y-70149062D01*
X153790838Y-69925596D01*
X153751742Y-69886500D01*
X195116500Y-69886500D01*
X195116500Y-118364000D01*
X195125327Y-118408374D01*
X195066585Y-118703689D01*
X194874166Y-118991666D01*
X194586189Y-119184085D01*
X194322626Y-119236511D01*
X194310000Y-119234000D01*
X181292500Y-119234000D01*
X181286150Y-119235263D01*
X181279800Y-119234000D01*
X148780500Y-119234000D01*
X148704376Y-119249142D01*
X148377311Y-119184085D01*
X148089334Y-118991666D01*
X147896915Y-118703689D01*
X147838173Y-118408376D01*
X147847000Y-118364000D01*
X147847000Y-116509800D01*
X148249976Y-116509800D01*
X148419902Y-117364073D01*
X148903809Y-118088291D01*
X149628027Y-118572198D01*
X150482300Y-118742124D01*
X151336573Y-118572198D01*
X152060791Y-118088291D01*
X152544698Y-117364073D01*
X152712097Y-116522500D01*
X190134576Y-116522500D01*
X190304502Y-117376773D01*
X190788409Y-118100991D01*
X191512627Y-118584898D01*
X192366900Y-118754824D01*
X193221173Y-118584898D01*
X193945391Y-118100991D01*
X194429298Y-117376773D01*
X194599224Y-116522500D01*
X194429298Y-115668227D01*
X193945391Y-114944009D01*
X193221173Y-114460102D01*
X192366900Y-114290176D01*
X191512627Y-114460102D01*
X190788409Y-114944009D01*
X190304502Y-115668227D01*
X190134576Y-116522500D01*
X152712097Y-116522500D01*
X152714624Y-116509800D01*
X152544698Y-115655527D01*
X152060791Y-114931309D01*
X151336573Y-114447402D01*
X150482300Y-114277476D01*
X149628027Y-114447402D01*
X148903809Y-114931309D01*
X148419902Y-115655527D01*
X148249976Y-116509800D01*
X147847000Y-116509800D01*
X147847000Y-109598910D01*
X148452097Y-109598910D01*
X148596523Y-109947616D01*
X148971146Y-110375741D01*
X149481089Y-110627915D01*
X149705998Y-110517857D01*
X149705998Y-110636152D01*
X149397384Y-110697539D01*
X149024297Y-110946827D01*
X148775009Y-111319914D01*
X148687470Y-111760000D01*
X148775009Y-112200086D01*
X149024297Y-112573173D01*
X149397384Y-112822461D01*
X149837470Y-112910000D01*
X149882530Y-112910000D01*
X150322616Y-112822461D01*
X150695703Y-112573173D01*
X150944991Y-112200086D01*
X151032530Y-111760000D01*
X150944991Y-111319914D01*
X150695703Y-110946827D01*
X150322616Y-110697539D01*
X150014002Y-110636152D01*
X150014002Y-110517857D01*
X150238911Y-110627915D01*
X150748854Y-110375741D01*
X151123477Y-109947616D01*
X151142700Y-109901203D01*
X151161923Y-109947616D01*
X151536546Y-110375741D01*
X152046489Y-110627915D01*
X152271398Y-110517857D01*
X152271398Y-110636152D01*
X151962784Y-110697539D01*
X151589697Y-110946827D01*
X151340409Y-111319914D01*
X151252870Y-111760000D01*
X151340409Y-112200086D01*
X151589697Y-112573173D01*
X151962784Y-112822461D01*
X152402870Y-112910000D01*
X152447930Y-112910000D01*
X152888016Y-112822461D01*
X153261103Y-112573173D01*
X153510391Y-112200086D01*
X153522559Y-112138910D01*
X189015897Y-112138910D01*
X189160323Y-112487616D01*
X189534946Y-112915741D01*
X190044889Y-113167915D01*
X190269800Y-113057856D01*
X190269800Y-111914000D01*
X190577800Y-111914000D01*
X190577800Y-113057856D01*
X190802711Y-113167915D01*
X191312654Y-112915741D01*
X191687277Y-112487616D01*
X191700150Y-112456535D01*
X191713023Y-112487616D01*
X192087646Y-112915741D01*
X192597589Y-113167915D01*
X192822500Y-113057856D01*
X192822500Y-111914000D01*
X193130500Y-111914000D01*
X193130500Y-113057856D01*
X193355411Y-113167915D01*
X193865354Y-112915741D01*
X194239977Y-112487616D01*
X194384403Y-112138910D01*
X194273389Y-111914000D01*
X193130500Y-111914000D01*
X192822500Y-111914000D01*
X190577800Y-111914000D01*
X190269800Y-111914000D01*
X189126911Y-111914000D01*
X189015897Y-112138910D01*
X153522559Y-112138910D01*
X153597930Y-111760000D01*
X153522560Y-111381090D01*
X189015897Y-111381090D01*
X189126911Y-111606000D01*
X190269800Y-111606000D01*
X190269800Y-111586000D01*
X190577800Y-111586000D01*
X190577800Y-111606000D01*
X192822500Y-111606000D01*
X192822500Y-111586000D01*
X193130500Y-111586000D01*
X193130500Y-111606000D01*
X194273389Y-111606000D01*
X194384403Y-111381090D01*
X194239977Y-111032384D01*
X193865354Y-110604259D01*
X193355411Y-110352085D01*
X193130502Y-110462143D01*
X193130502Y-110343848D01*
X193439116Y-110282461D01*
X193812203Y-110033173D01*
X194061491Y-109660086D01*
X194149030Y-109220000D01*
X194061491Y-108779914D01*
X193812203Y-108406827D01*
X193439116Y-108157539D01*
X192999030Y-108070000D01*
X192953970Y-108070000D01*
X192513884Y-108157539D01*
X192140797Y-108406827D01*
X191891509Y-108779914D01*
X191803970Y-109220000D01*
X191891509Y-109660086D01*
X192140797Y-110033173D01*
X192513884Y-110282461D01*
X192822498Y-110343848D01*
X192822498Y-110462143D01*
X192597589Y-110352085D01*
X192087646Y-110604259D01*
X191713023Y-111032384D01*
X191700150Y-111063465D01*
X191687277Y-111032384D01*
X191312654Y-110604259D01*
X190802711Y-110352085D01*
X190577802Y-110462143D01*
X190577802Y-110343848D01*
X190886416Y-110282461D01*
X191259503Y-110033173D01*
X191508791Y-109660086D01*
X191596330Y-109220000D01*
X191508791Y-108779914D01*
X191259503Y-108406827D01*
X190886416Y-108157539D01*
X190446330Y-108070000D01*
X190401270Y-108070000D01*
X189961184Y-108157539D01*
X189588097Y-108406827D01*
X189338809Y-108779914D01*
X189251270Y-109220000D01*
X189338809Y-109660086D01*
X189588097Y-110033173D01*
X189961184Y-110282461D01*
X190269798Y-110343848D01*
X190269798Y-110462143D01*
X190044889Y-110352085D01*
X189534946Y-110604259D01*
X189160323Y-111032384D01*
X189015897Y-111381090D01*
X153522560Y-111381090D01*
X153510391Y-111319914D01*
X153261103Y-110946827D01*
X152888016Y-110697539D01*
X152579402Y-110636152D01*
X152579402Y-110517857D01*
X152804311Y-110627915D01*
X153314254Y-110375741D01*
X153688877Y-109947616D01*
X153833303Y-109598910D01*
X153722289Y-109374000D01*
X152579400Y-109374000D01*
X152579400Y-109394000D01*
X152271400Y-109394000D01*
X152271400Y-109374000D01*
X150014000Y-109374000D01*
X150014000Y-109394000D01*
X149706000Y-109394000D01*
X149706000Y-109374000D01*
X148563111Y-109374000D01*
X148452097Y-109598910D01*
X147847000Y-109598910D01*
X147847000Y-108841090D01*
X148452097Y-108841090D01*
X148563111Y-109066000D01*
X149706000Y-109066000D01*
X149706000Y-109046000D01*
X150014000Y-109046000D01*
X150014000Y-109066000D01*
X152271400Y-109066000D01*
X152271400Y-109046000D01*
X152579400Y-109046000D01*
X152579400Y-109066000D01*
X153722289Y-109066000D01*
X153833303Y-108841090D01*
X153688877Y-108492384D01*
X153314254Y-108064259D01*
X152804311Y-107812085D01*
X152579402Y-107922143D01*
X152579402Y-107803848D01*
X152888016Y-107742461D01*
X153261103Y-107493173D01*
X153510391Y-107120086D01*
X153597930Y-106680000D01*
X189251270Y-106680000D01*
X189338809Y-107120086D01*
X189588097Y-107493173D01*
X189961184Y-107742461D01*
X190401270Y-107830000D01*
X190446330Y-107830000D01*
X190886416Y-107742461D01*
X191259503Y-107493173D01*
X191508791Y-107120086D01*
X191596330Y-106680000D01*
X191803970Y-106680000D01*
X191891509Y-107120086D01*
X192140797Y-107493173D01*
X192513884Y-107742461D01*
X192953970Y-107830000D01*
X192999030Y-107830000D01*
X193439116Y-107742461D01*
X193812203Y-107493173D01*
X194061491Y-107120086D01*
X194149030Y-106680000D01*
X194061491Y-106239914D01*
X193812203Y-105866827D01*
X193439116Y-105617539D01*
X192999030Y-105530000D01*
X192953970Y-105530000D01*
X192513884Y-105617539D01*
X192140797Y-105866827D01*
X191891509Y-106239914D01*
X191803970Y-106680000D01*
X191596330Y-106680000D01*
X191508791Y-106239914D01*
X191259503Y-105866827D01*
X190886416Y-105617539D01*
X190446330Y-105530000D01*
X190401270Y-105530000D01*
X189961184Y-105617539D01*
X189588097Y-105866827D01*
X189338809Y-106239914D01*
X189251270Y-106680000D01*
X153597930Y-106680000D01*
X153510391Y-106239914D01*
X153261103Y-105866827D01*
X152888016Y-105617539D01*
X152447930Y-105530000D01*
X152402870Y-105530000D01*
X151962784Y-105617539D01*
X151589697Y-105866827D01*
X151340409Y-106239914D01*
X151252870Y-106680000D01*
X151340409Y-107120086D01*
X151589697Y-107493173D01*
X151962784Y-107742461D01*
X152271398Y-107803848D01*
X152271398Y-107922143D01*
X152046489Y-107812085D01*
X151536546Y-108064259D01*
X151161923Y-108492384D01*
X151142700Y-108538797D01*
X151123477Y-108492384D01*
X150748854Y-108064259D01*
X150238911Y-107812085D01*
X150014002Y-107922143D01*
X150014002Y-107803848D01*
X150322616Y-107742461D01*
X150695703Y-107493173D01*
X150944991Y-107120086D01*
X151032530Y-106680000D01*
X150944991Y-106239914D01*
X150695703Y-105866827D01*
X150322616Y-105617539D01*
X149882530Y-105530000D01*
X149837470Y-105530000D01*
X149397384Y-105617539D01*
X149024297Y-105866827D01*
X148775009Y-106239914D01*
X148687470Y-106680000D01*
X148775009Y-107120086D01*
X149024297Y-107493173D01*
X149397384Y-107742461D01*
X149705998Y-107803848D01*
X149705998Y-107922143D01*
X149481089Y-107812085D01*
X148971146Y-108064259D01*
X148596523Y-108492384D01*
X148452097Y-108841090D01*
X147847000Y-108841090D01*
X147847000Y-104140000D01*
X148687470Y-104140000D01*
X148775009Y-104580086D01*
X149024297Y-104953173D01*
X149397384Y-105202461D01*
X149837470Y-105290000D01*
X149882530Y-105290000D01*
X150322616Y-105202461D01*
X150695703Y-104953173D01*
X150944991Y-104580086D01*
X151032530Y-104140000D01*
X151252870Y-104140000D01*
X151340409Y-104580086D01*
X151589697Y-104953173D01*
X151962784Y-105202461D01*
X152402870Y-105290000D01*
X152447930Y-105290000D01*
X152888016Y-105202461D01*
X153261103Y-104953173D01*
X153510391Y-104580086D01*
X153597930Y-104140000D01*
X153510391Y-103699914D01*
X153261103Y-103326827D01*
X152888016Y-103077539D01*
X152447930Y-102990000D01*
X152402870Y-102990000D01*
X151962784Y-103077539D01*
X151589697Y-103326827D01*
X151340409Y-103699914D01*
X151252870Y-104140000D01*
X151032530Y-104140000D01*
X150944991Y-103699914D01*
X150695703Y-103326827D01*
X150322616Y-103077539D01*
X149882530Y-102990000D01*
X149837470Y-102990000D01*
X149397384Y-103077539D01*
X149024297Y-103326827D01*
X148775009Y-103699914D01*
X148687470Y-104140000D01*
X147847000Y-104140000D01*
X147847000Y-101600000D01*
X148687470Y-101600000D01*
X148775009Y-102040086D01*
X149024297Y-102413173D01*
X149397384Y-102662461D01*
X149837470Y-102750000D01*
X149882530Y-102750000D01*
X150322616Y-102662461D01*
X150695703Y-102413173D01*
X150944991Y-102040086D01*
X151032530Y-101600000D01*
X151252870Y-101600000D01*
X151340409Y-102040086D01*
X151589697Y-102413173D01*
X151962784Y-102662461D01*
X152402870Y-102750000D01*
X152447930Y-102750000D01*
X152888016Y-102662461D01*
X153261103Y-102413173D01*
X153510391Y-102040086D01*
X153597930Y-101600000D01*
X153510391Y-101159914D01*
X153261103Y-100786827D01*
X152888016Y-100537539D01*
X152447930Y-100450000D01*
X152402870Y-100450000D01*
X151962784Y-100537539D01*
X151589697Y-100786827D01*
X151340409Y-101159914D01*
X151252870Y-101600000D01*
X151032530Y-101600000D01*
X150944991Y-101159914D01*
X150695703Y-100786827D01*
X150322616Y-100537539D01*
X149882530Y-100450000D01*
X149837470Y-100450000D01*
X149397384Y-100537539D01*
X149024297Y-100786827D01*
X148775009Y-101159914D01*
X148687470Y-101600000D01*
X147847000Y-101600000D01*
X147847000Y-99060000D01*
X148687470Y-99060000D01*
X148775009Y-99500086D01*
X149024297Y-99873173D01*
X149397384Y-100122461D01*
X149837470Y-100210000D01*
X149882530Y-100210000D01*
X150322616Y-100122461D01*
X150695703Y-99873173D01*
X150944991Y-99500086D01*
X151032530Y-99060000D01*
X151252870Y-99060000D01*
X151340409Y-99500086D01*
X151589697Y-99873173D01*
X151962784Y-100122461D01*
X152402870Y-100210000D01*
X152447930Y-100210000D01*
X152888016Y-100122461D01*
X153261103Y-99873173D01*
X153510391Y-99500086D01*
X153564189Y-99229624D01*
X179104896Y-99229624D01*
X179196048Y-99450229D01*
X179364683Y-99619159D01*
X179585129Y-99710696D01*
X179653115Y-99710755D01*
X184997799Y-105055440D01*
X184997696Y-105173224D01*
X185088848Y-105393829D01*
X185257483Y-105562759D01*
X185477929Y-105654296D01*
X185716624Y-105654504D01*
X185937229Y-105563352D01*
X186106159Y-105394717D01*
X186197696Y-105174271D01*
X186197904Y-104935576D01*
X186106752Y-104714971D01*
X185938117Y-104546041D01*
X185717671Y-104454504D01*
X185598841Y-104454400D01*
X185284441Y-104140000D01*
X189251270Y-104140000D01*
X189338809Y-104580086D01*
X189588097Y-104953173D01*
X189961184Y-105202461D01*
X190401270Y-105290000D01*
X190446330Y-105290000D01*
X190886416Y-105202461D01*
X191259503Y-104953173D01*
X191508791Y-104580086D01*
X191596330Y-104140000D01*
X191803970Y-104140000D01*
X191891509Y-104580086D01*
X192140797Y-104953173D01*
X192513884Y-105202461D01*
X192953970Y-105290000D01*
X192999030Y-105290000D01*
X193439116Y-105202461D01*
X193812203Y-104953173D01*
X194061491Y-104580086D01*
X194149030Y-104140000D01*
X194061491Y-103699914D01*
X193812203Y-103326827D01*
X193439116Y-103077539D01*
X192999030Y-102990000D01*
X192953970Y-102990000D01*
X192513884Y-103077539D01*
X192140797Y-103326827D01*
X191891509Y-103699914D01*
X191803970Y-104140000D01*
X191596330Y-104140000D01*
X191508791Y-103699914D01*
X191259503Y-103326827D01*
X190886416Y-103077539D01*
X190446330Y-102990000D01*
X190401270Y-102990000D01*
X189961184Y-103077539D01*
X189588097Y-103326827D01*
X189338809Y-103699914D01*
X189251270Y-104140000D01*
X185284441Y-104140000D01*
X182744441Y-101600000D01*
X189251270Y-101600000D01*
X189338809Y-102040086D01*
X189588097Y-102413173D01*
X189961184Y-102662461D01*
X190401270Y-102750000D01*
X190446330Y-102750000D01*
X190886416Y-102662461D01*
X191259503Y-102413173D01*
X191508791Y-102040086D01*
X191596330Y-101600000D01*
X191803970Y-101600000D01*
X191891509Y-102040086D01*
X192140797Y-102413173D01*
X192513884Y-102662461D01*
X192953970Y-102750000D01*
X192999030Y-102750000D01*
X193439116Y-102662461D01*
X193812203Y-102413173D01*
X194061491Y-102040086D01*
X194149030Y-101600000D01*
X194061491Y-101159914D01*
X193812203Y-100786827D01*
X193439116Y-100537539D01*
X192999030Y-100450000D01*
X192953970Y-100450000D01*
X192513884Y-100537539D01*
X192140797Y-100786827D01*
X191891509Y-101159914D01*
X191803970Y-101600000D01*
X191596330Y-101600000D01*
X191508791Y-101159914D01*
X191259503Y-100786827D01*
X190886416Y-100537539D01*
X190446330Y-100450000D01*
X190401270Y-100450000D01*
X189961184Y-100537539D01*
X189588097Y-100786827D01*
X189338809Y-101159914D01*
X189251270Y-101600000D01*
X182744441Y-101600000D01*
X180304957Y-99160517D01*
X180305044Y-99060000D01*
X189251270Y-99060000D01*
X189338809Y-99500086D01*
X189588097Y-99873173D01*
X189961184Y-100122461D01*
X190401270Y-100210000D01*
X190446330Y-100210000D01*
X190886416Y-100122461D01*
X191259503Y-99873173D01*
X191508791Y-99500086D01*
X191596330Y-99060000D01*
X191803970Y-99060000D01*
X191891509Y-99500086D01*
X192140797Y-99873173D01*
X192513884Y-100122461D01*
X192953970Y-100210000D01*
X192999030Y-100210000D01*
X193439116Y-100122461D01*
X193812203Y-99873173D01*
X194061491Y-99500086D01*
X194149030Y-99060000D01*
X194061491Y-98619914D01*
X193812203Y-98246827D01*
X193439116Y-97997539D01*
X192999030Y-97910000D01*
X192953970Y-97910000D01*
X192513884Y-97997539D01*
X192140797Y-98246827D01*
X191891509Y-98619914D01*
X191803970Y-99060000D01*
X191596330Y-99060000D01*
X191508791Y-98619914D01*
X191259503Y-98246827D01*
X190886416Y-97997539D01*
X190446330Y-97910000D01*
X190401270Y-97910000D01*
X189961184Y-97997539D01*
X189588097Y-98246827D01*
X189338809Y-98619914D01*
X189251270Y-99060000D01*
X180305044Y-99060000D01*
X180305104Y-98991976D01*
X180213952Y-98771371D01*
X180045317Y-98602441D01*
X179824871Y-98510904D01*
X179586176Y-98510696D01*
X179365571Y-98601848D01*
X179196641Y-98770483D01*
X179105104Y-98990929D01*
X179104896Y-99229624D01*
X153564189Y-99229624D01*
X153597930Y-99060000D01*
X153510391Y-98619914D01*
X153261103Y-98246827D01*
X152888016Y-97997539D01*
X152447930Y-97910000D01*
X152402870Y-97910000D01*
X151962784Y-97997539D01*
X151589697Y-98246827D01*
X151340409Y-98619914D01*
X151252870Y-99060000D01*
X151032530Y-99060000D01*
X150944991Y-98619914D01*
X150695703Y-98246827D01*
X150322616Y-97997539D01*
X149882530Y-97910000D01*
X149837470Y-97910000D01*
X149397384Y-97997539D01*
X149024297Y-98246827D01*
X148775009Y-98619914D01*
X148687470Y-99060000D01*
X147847000Y-99060000D01*
X147847000Y-96520000D01*
X148687470Y-96520000D01*
X148775009Y-96960086D01*
X149024297Y-97333173D01*
X149397384Y-97582461D01*
X149837470Y-97670000D01*
X149882530Y-97670000D01*
X150322616Y-97582461D01*
X150695703Y-97333173D01*
X150944991Y-96960086D01*
X151032530Y-96520000D01*
X151252870Y-96520000D01*
X151340409Y-96960086D01*
X151589697Y-97333173D01*
X151962784Y-97582461D01*
X152402870Y-97670000D01*
X152447930Y-97670000D01*
X152888016Y-97582461D01*
X153261103Y-97333173D01*
X153510391Y-96960086D01*
X153597930Y-96520000D01*
X189251270Y-96520000D01*
X189338809Y-96960086D01*
X189588097Y-97333173D01*
X189961184Y-97582461D01*
X190401270Y-97670000D01*
X190446330Y-97670000D01*
X190886416Y-97582461D01*
X191259503Y-97333173D01*
X191508791Y-96960086D01*
X191596330Y-96520000D01*
X191803970Y-96520000D01*
X191891509Y-96960086D01*
X192140797Y-97333173D01*
X192513884Y-97582461D01*
X192953970Y-97670000D01*
X192999030Y-97670000D01*
X193439116Y-97582461D01*
X193812203Y-97333173D01*
X194061491Y-96960086D01*
X194149030Y-96520000D01*
X194061491Y-96079914D01*
X193812203Y-95706827D01*
X193439116Y-95457539D01*
X192999030Y-95370000D01*
X192953970Y-95370000D01*
X192513884Y-95457539D01*
X192140797Y-95706827D01*
X191891509Y-96079914D01*
X191803970Y-96520000D01*
X191596330Y-96520000D01*
X191508791Y-96079914D01*
X191259503Y-95706827D01*
X190886416Y-95457539D01*
X190446330Y-95370000D01*
X190401270Y-95370000D01*
X189961184Y-95457539D01*
X189588097Y-95706827D01*
X189338809Y-96079914D01*
X189251270Y-96520000D01*
X153597930Y-96520000D01*
X153510391Y-96079914D01*
X153261103Y-95706827D01*
X152888016Y-95457539D01*
X152447930Y-95370000D01*
X152402870Y-95370000D01*
X151962784Y-95457539D01*
X151589697Y-95706827D01*
X151340409Y-96079914D01*
X151252870Y-96520000D01*
X151032530Y-96520000D01*
X150944991Y-96079914D01*
X150695703Y-95706827D01*
X150322616Y-95457539D01*
X149882530Y-95370000D01*
X149837470Y-95370000D01*
X149397384Y-95457539D01*
X149024297Y-95706827D01*
X148775009Y-96079914D01*
X148687470Y-96520000D01*
X147847000Y-96520000D01*
X147847000Y-93980000D01*
X148687470Y-93980000D01*
X148775009Y-94420086D01*
X149024297Y-94793173D01*
X149397384Y-95042461D01*
X149837470Y-95130000D01*
X149882530Y-95130000D01*
X150322616Y-95042461D01*
X150695703Y-94793173D01*
X150944991Y-94420086D01*
X151032530Y-93980000D01*
X151252870Y-93980000D01*
X151340409Y-94420086D01*
X151589697Y-94793173D01*
X151962784Y-95042461D01*
X152402870Y-95130000D01*
X152447930Y-95130000D01*
X152888016Y-95042461D01*
X153261103Y-94793173D01*
X153510391Y-94420086D01*
X153597930Y-93980000D01*
X153510391Y-93539914D01*
X153261103Y-93166827D01*
X152888016Y-92917539D01*
X152447930Y-92830000D01*
X152402870Y-92830000D01*
X151962784Y-92917539D01*
X151589697Y-93166827D01*
X151340409Y-93539914D01*
X151252870Y-93980000D01*
X151032530Y-93980000D01*
X150944991Y-93539914D01*
X150695703Y-93166827D01*
X150322616Y-92917539D01*
X149882530Y-92830000D01*
X149837470Y-92830000D01*
X149397384Y-92917539D01*
X149024297Y-93166827D01*
X148775009Y-93539914D01*
X148687470Y-93980000D01*
X147847000Y-93980000D01*
X147847000Y-91440000D01*
X148687470Y-91440000D01*
X148775009Y-91880086D01*
X149024297Y-92253173D01*
X149397384Y-92502461D01*
X149837470Y-92590000D01*
X149882530Y-92590000D01*
X150322616Y-92502461D01*
X150695703Y-92253173D01*
X150944991Y-91880086D01*
X151032530Y-91440000D01*
X151252870Y-91440000D01*
X151340409Y-91880086D01*
X151589697Y-92253173D01*
X151962784Y-92502461D01*
X152402870Y-92590000D01*
X152447930Y-92590000D01*
X152888016Y-92502461D01*
X153261103Y-92253173D01*
X153510391Y-91880086D01*
X153597930Y-91440000D01*
X153510391Y-90999914D01*
X153261103Y-90626827D01*
X152888016Y-90377539D01*
X152447930Y-90290000D01*
X152402870Y-90290000D01*
X151962784Y-90377539D01*
X151589697Y-90626827D01*
X151340409Y-90999914D01*
X151252870Y-91440000D01*
X151032530Y-91440000D01*
X150944991Y-90999914D01*
X150695703Y-90626827D01*
X150322616Y-90377539D01*
X149882530Y-90290000D01*
X149837470Y-90290000D01*
X149397384Y-90377539D01*
X149024297Y-90626827D01*
X148775009Y-90999914D01*
X148687470Y-91440000D01*
X147847000Y-91440000D01*
X147847000Y-88900000D01*
X148687470Y-88900000D01*
X148775009Y-89340086D01*
X149024297Y-89713173D01*
X149397384Y-89962461D01*
X149837470Y-90050000D01*
X149882530Y-90050000D01*
X150322616Y-89962461D01*
X150695703Y-89713173D01*
X150944991Y-89340086D01*
X151032530Y-88900000D01*
X151252870Y-88900000D01*
X151340409Y-89340086D01*
X151589697Y-89713173D01*
X151962784Y-89962461D01*
X152402870Y-90050000D01*
X152447930Y-90050000D01*
X152888016Y-89962461D01*
X153261103Y-89713173D01*
X153510391Y-89340086D01*
X153597930Y-88900000D01*
X153510391Y-88459914D01*
X153261103Y-88086827D01*
X152888016Y-87837539D01*
X152447930Y-87750000D01*
X152402870Y-87750000D01*
X151962784Y-87837539D01*
X151589697Y-88086827D01*
X151340409Y-88459914D01*
X151252870Y-88900000D01*
X151032530Y-88900000D01*
X150944991Y-88459914D01*
X150695703Y-88086827D01*
X150322616Y-87837539D01*
X149882530Y-87750000D01*
X149837470Y-87750000D01*
X149397384Y-87837539D01*
X149024297Y-88086827D01*
X148775009Y-88459914D01*
X148687470Y-88900000D01*
X147847000Y-88900000D01*
X147847000Y-86360000D01*
X148687470Y-86360000D01*
X148775009Y-86800086D01*
X149024297Y-87173173D01*
X149397384Y-87422461D01*
X149837470Y-87510000D01*
X149882530Y-87510000D01*
X150322616Y-87422461D01*
X150695703Y-87173173D01*
X150944991Y-86800086D01*
X151032530Y-86360000D01*
X151252870Y-86360000D01*
X151340409Y-86800086D01*
X151589697Y-87173173D01*
X151962784Y-87422461D01*
X152402870Y-87510000D01*
X152447930Y-87510000D01*
X152888016Y-87422461D01*
X153261103Y-87173173D01*
X153317730Y-87088424D01*
X166811296Y-87088424D01*
X166902448Y-87309029D01*
X167071083Y-87477959D01*
X167147073Y-87509513D01*
X173110599Y-93473039D01*
X173110496Y-93590824D01*
X173201648Y-93811429D01*
X173370283Y-93980359D01*
X173590729Y-94071896D01*
X173829424Y-94072104D01*
X174050029Y-93980952D01*
X174050982Y-93980000D01*
X189251270Y-93980000D01*
X189338809Y-94420086D01*
X189588097Y-94793173D01*
X189961184Y-95042461D01*
X190401270Y-95130000D01*
X190446330Y-95130000D01*
X190886416Y-95042461D01*
X191259503Y-94793173D01*
X191508791Y-94420086D01*
X191596330Y-93980000D01*
X191803970Y-93980000D01*
X191891509Y-94420086D01*
X192140797Y-94793173D01*
X192513884Y-95042461D01*
X192953970Y-95130000D01*
X192999030Y-95130000D01*
X193439116Y-95042461D01*
X193812203Y-94793173D01*
X194061491Y-94420086D01*
X194149030Y-93980000D01*
X194061491Y-93539914D01*
X193812203Y-93166827D01*
X193439116Y-92917539D01*
X192999030Y-92830000D01*
X192953970Y-92830000D01*
X192513884Y-92917539D01*
X192140797Y-93166827D01*
X191891509Y-93539914D01*
X191803970Y-93980000D01*
X191596330Y-93980000D01*
X191508791Y-93539914D01*
X191259503Y-93166827D01*
X190886416Y-92917539D01*
X190446330Y-92830000D01*
X190401270Y-92830000D01*
X189961184Y-92917539D01*
X189588097Y-93166827D01*
X189338809Y-93539914D01*
X189251270Y-93980000D01*
X174050982Y-93980000D01*
X174218959Y-93812317D01*
X174310496Y-93591871D01*
X174310704Y-93353176D01*
X174219552Y-93132571D01*
X174050917Y-92963641D01*
X173830471Y-92872104D01*
X173711640Y-92872000D01*
X172279640Y-91440000D01*
X189251270Y-91440000D01*
X189338809Y-91880086D01*
X189588097Y-92253173D01*
X189961184Y-92502461D01*
X190401270Y-92590000D01*
X190446330Y-92590000D01*
X190886416Y-92502461D01*
X191259503Y-92253173D01*
X191508791Y-91880086D01*
X191596330Y-91440000D01*
X191803970Y-91440000D01*
X191891509Y-91880086D01*
X192140797Y-92253173D01*
X192513884Y-92502461D01*
X192953970Y-92590000D01*
X192999030Y-92590000D01*
X193439116Y-92502461D01*
X193812203Y-92253173D01*
X194061491Y-91880086D01*
X194149030Y-91440000D01*
X194061491Y-90999914D01*
X193812203Y-90626827D01*
X193439116Y-90377539D01*
X192999030Y-90290000D01*
X192953970Y-90290000D01*
X192513884Y-90377539D01*
X192140797Y-90626827D01*
X191891509Y-90999914D01*
X191803970Y-91440000D01*
X191596330Y-91440000D01*
X191508791Y-90999914D01*
X191259503Y-90626827D01*
X190886416Y-90377539D01*
X190446330Y-90290000D01*
X190401270Y-90290000D01*
X189961184Y-90377539D01*
X189588097Y-90626827D01*
X189338809Y-90999914D01*
X189251270Y-91440000D01*
X172279640Y-91440000D01*
X169739640Y-88900000D01*
X189251270Y-88900000D01*
X189338809Y-89340086D01*
X189588097Y-89713173D01*
X189961184Y-89962461D01*
X190401270Y-90050000D01*
X190446330Y-90050000D01*
X190886416Y-89962461D01*
X191259503Y-89713173D01*
X191508791Y-89340086D01*
X191596330Y-88900000D01*
X191803970Y-88900000D01*
X191891509Y-89340086D01*
X192140797Y-89713173D01*
X192513884Y-89962461D01*
X192953970Y-90050000D01*
X192999030Y-90050000D01*
X193439116Y-89962461D01*
X193812203Y-89713173D01*
X194061491Y-89340086D01*
X194149030Y-88900000D01*
X194061491Y-88459914D01*
X193812203Y-88086827D01*
X193439116Y-87837539D01*
X192999030Y-87750000D01*
X192953970Y-87750000D01*
X192513884Y-87837539D01*
X192140797Y-88086827D01*
X191891509Y-88459914D01*
X191803970Y-88900000D01*
X191596330Y-88900000D01*
X191508791Y-88459914D01*
X191259503Y-88086827D01*
X190886416Y-87837539D01*
X190446330Y-87750000D01*
X190401270Y-87750000D01*
X189961184Y-87837539D01*
X189588097Y-88086827D01*
X189338809Y-88459914D01*
X189251270Y-88900000D01*
X169739640Y-88900000D01*
X167987183Y-87147543D01*
X168011296Y-87089471D01*
X168011504Y-86850776D01*
X167920352Y-86630171D01*
X167751717Y-86461241D01*
X167531271Y-86369704D01*
X167292576Y-86369496D01*
X167071971Y-86460648D01*
X166903041Y-86629283D01*
X166811504Y-86849729D01*
X166811296Y-87088424D01*
X153317730Y-87088424D01*
X153510391Y-86800086D01*
X153597930Y-86360000D01*
X189251270Y-86360000D01*
X189338809Y-86800086D01*
X189588097Y-87173173D01*
X189961184Y-87422461D01*
X190401270Y-87510000D01*
X190446330Y-87510000D01*
X190886416Y-87422461D01*
X191259503Y-87173173D01*
X191508791Y-86800086D01*
X191596330Y-86360000D01*
X191803970Y-86360000D01*
X191891509Y-86800086D01*
X192140797Y-87173173D01*
X192513884Y-87422461D01*
X192953970Y-87510000D01*
X192999030Y-87510000D01*
X193439116Y-87422461D01*
X193812203Y-87173173D01*
X194061491Y-86800086D01*
X194149030Y-86360000D01*
X194061491Y-85919914D01*
X193812203Y-85546827D01*
X193439116Y-85297539D01*
X192999030Y-85210000D01*
X192953970Y-85210000D01*
X192513884Y-85297539D01*
X192140797Y-85546827D01*
X191891509Y-85919914D01*
X191803970Y-86360000D01*
X191596330Y-86360000D01*
X191508791Y-85919914D01*
X191259503Y-85546827D01*
X190886416Y-85297539D01*
X190446330Y-85210000D01*
X190401270Y-85210000D01*
X189961184Y-85297539D01*
X189588097Y-85546827D01*
X189338809Y-85919914D01*
X189251270Y-86360000D01*
X153597930Y-86360000D01*
X153510391Y-85919914D01*
X153261103Y-85546827D01*
X152888016Y-85297539D01*
X152447930Y-85210000D01*
X152402870Y-85210000D01*
X151962784Y-85297539D01*
X151589697Y-85546827D01*
X151340409Y-85919914D01*
X151252870Y-86360000D01*
X151032530Y-86360000D01*
X150944991Y-85919914D01*
X150695703Y-85546827D01*
X150322616Y-85297539D01*
X149882530Y-85210000D01*
X149837470Y-85210000D01*
X149397384Y-85297539D01*
X149024297Y-85546827D01*
X148775009Y-85919914D01*
X148687470Y-86360000D01*
X147847000Y-86360000D01*
X147847000Y-83820000D01*
X148687470Y-83820000D01*
X148775009Y-84260086D01*
X149024297Y-84633173D01*
X149397384Y-84882461D01*
X149837470Y-84970000D01*
X149882530Y-84970000D01*
X150322616Y-84882461D01*
X150695703Y-84633173D01*
X150944991Y-84260086D01*
X151032530Y-83820000D01*
X151252870Y-83820000D01*
X151340409Y-84260086D01*
X151589697Y-84633173D01*
X151962784Y-84882461D01*
X152402870Y-84970000D01*
X152447930Y-84970000D01*
X152888016Y-84882461D01*
X153261103Y-84633173D01*
X153510391Y-84260086D01*
X153597930Y-83820000D01*
X189251270Y-83820000D01*
X189338809Y-84260086D01*
X189588097Y-84633173D01*
X189961184Y-84882461D01*
X190401270Y-84970000D01*
X190446330Y-84970000D01*
X190886416Y-84882461D01*
X191259503Y-84633173D01*
X191508791Y-84260086D01*
X191596330Y-83820000D01*
X191803970Y-83820000D01*
X191891509Y-84260086D01*
X192140797Y-84633173D01*
X192513884Y-84882461D01*
X192953970Y-84970000D01*
X192999030Y-84970000D01*
X193439116Y-84882461D01*
X193812203Y-84633173D01*
X194061491Y-84260086D01*
X194149030Y-83820000D01*
X194061491Y-83379914D01*
X193812203Y-83006827D01*
X193439116Y-82757539D01*
X192999030Y-82670000D01*
X192953970Y-82670000D01*
X192513884Y-82757539D01*
X192140797Y-83006827D01*
X191891509Y-83379914D01*
X191803970Y-83820000D01*
X191596330Y-83820000D01*
X191508791Y-83379914D01*
X191259503Y-83006827D01*
X190886416Y-82757539D01*
X190446330Y-82670000D01*
X190401270Y-82670000D01*
X189961184Y-82757539D01*
X189588097Y-83006827D01*
X189338809Y-83379914D01*
X189251270Y-83820000D01*
X153597930Y-83820000D01*
X153510391Y-83379914D01*
X153261103Y-83006827D01*
X152888016Y-82757539D01*
X152447930Y-82670000D01*
X152402870Y-82670000D01*
X151962784Y-82757539D01*
X151589697Y-83006827D01*
X151340409Y-83379914D01*
X151252870Y-83820000D01*
X151032530Y-83820000D01*
X150944991Y-83379914D01*
X150695703Y-83006827D01*
X150322616Y-82757539D01*
X149882530Y-82670000D01*
X149837470Y-82670000D01*
X149397384Y-82757539D01*
X149024297Y-83006827D01*
X148775009Y-83379914D01*
X148687470Y-83820000D01*
X147847000Y-83820000D01*
X147847000Y-81280000D01*
X148687470Y-81280000D01*
X148775009Y-81720086D01*
X149024297Y-82093173D01*
X149397384Y-82342461D01*
X149837470Y-82430000D01*
X149882530Y-82430000D01*
X150322616Y-82342461D01*
X150695703Y-82093173D01*
X150944991Y-81720086D01*
X151032530Y-81280000D01*
X151252870Y-81280000D01*
X151340409Y-81720086D01*
X151589697Y-82093173D01*
X151962784Y-82342461D01*
X152402870Y-82430000D01*
X152447930Y-82430000D01*
X152888016Y-82342461D01*
X153261103Y-82093173D01*
X153510391Y-81720086D01*
X153597930Y-81280000D01*
X153510391Y-80839914D01*
X153261103Y-80466827D01*
X152888016Y-80217539D01*
X152447930Y-80130000D01*
X152402870Y-80130000D01*
X151962784Y-80217539D01*
X151589697Y-80466827D01*
X151340409Y-80839914D01*
X151252870Y-81280000D01*
X151032530Y-81280000D01*
X150944991Y-80839914D01*
X150695703Y-80466827D01*
X150322616Y-80217539D01*
X149882530Y-80130000D01*
X149837470Y-80130000D01*
X149397384Y-80217539D01*
X149024297Y-80466827D01*
X148775009Y-80839914D01*
X148687470Y-81280000D01*
X147847000Y-81280000D01*
X147847000Y-78740000D01*
X148687470Y-78740000D01*
X148775009Y-79180086D01*
X149024297Y-79553173D01*
X149397384Y-79802461D01*
X149837470Y-79890000D01*
X149882530Y-79890000D01*
X150322616Y-79802461D01*
X150695703Y-79553173D01*
X150944991Y-79180086D01*
X151032530Y-78740000D01*
X151252870Y-78740000D01*
X151340409Y-79180086D01*
X151589697Y-79553173D01*
X151962784Y-79802461D01*
X152402870Y-79890000D01*
X152447930Y-79890000D01*
X152888016Y-79802461D01*
X153261103Y-79553173D01*
X153510391Y-79180086D01*
X153597930Y-78740000D01*
X153510391Y-78299914D01*
X153261103Y-77926827D01*
X152888016Y-77677539D01*
X152447930Y-77590000D01*
X152402870Y-77590000D01*
X151962784Y-77677539D01*
X151589697Y-77926827D01*
X151340409Y-78299914D01*
X151252870Y-78740000D01*
X151032530Y-78740000D01*
X150944991Y-78299914D01*
X150695703Y-77926827D01*
X150322616Y-77677539D01*
X149882530Y-77590000D01*
X149837470Y-77590000D01*
X149397384Y-77677539D01*
X149024297Y-77926827D01*
X148775009Y-78299914D01*
X148687470Y-78740000D01*
X147847000Y-78740000D01*
X147847000Y-76200000D01*
X148687470Y-76200000D01*
X148775009Y-76640086D01*
X149024297Y-77013173D01*
X149397384Y-77262461D01*
X149837470Y-77350000D01*
X149882530Y-77350000D01*
X150322616Y-77262461D01*
X150695703Y-77013173D01*
X150944991Y-76640086D01*
X151032530Y-76200000D01*
X151252870Y-76200000D01*
X151340409Y-76640086D01*
X151589697Y-77013173D01*
X151962784Y-77262461D01*
X152402870Y-77350000D01*
X152447930Y-77350000D01*
X152888016Y-77262461D01*
X153261103Y-77013173D01*
X153510391Y-76640086D01*
X153597930Y-76200000D01*
X153581147Y-76115624D01*
X155584496Y-76115624D01*
X155675648Y-76336229D01*
X155844283Y-76505159D01*
X156064729Y-76596696D01*
X156303424Y-76596904D01*
X156362468Y-76572508D01*
X161274199Y-81484240D01*
X161274096Y-81602024D01*
X161365248Y-81822629D01*
X161533883Y-81991559D01*
X161754329Y-82083096D01*
X161993024Y-82083304D01*
X162213629Y-81992152D01*
X162382559Y-81823517D01*
X162474096Y-81603071D01*
X162474304Y-81364376D01*
X162439441Y-81280000D01*
X189251270Y-81280000D01*
X189338809Y-81720086D01*
X189588097Y-82093173D01*
X189961184Y-82342461D01*
X190401270Y-82430000D01*
X190446330Y-82430000D01*
X190886416Y-82342461D01*
X191259503Y-82093173D01*
X191508791Y-81720086D01*
X191596330Y-81280000D01*
X191803970Y-81280000D01*
X191891509Y-81720086D01*
X192140797Y-82093173D01*
X192513884Y-82342461D01*
X192953970Y-82430000D01*
X192999030Y-82430000D01*
X193439116Y-82342461D01*
X193812203Y-82093173D01*
X194061491Y-81720086D01*
X194149030Y-81280000D01*
X194061491Y-80839914D01*
X193812203Y-80466827D01*
X193439116Y-80217539D01*
X192999030Y-80130000D01*
X192953970Y-80130000D01*
X192513884Y-80217539D01*
X192140797Y-80466827D01*
X191891509Y-80839914D01*
X191803970Y-81280000D01*
X191596330Y-81280000D01*
X191508791Y-80839914D01*
X191259503Y-80466827D01*
X190886416Y-80217539D01*
X190446330Y-80130000D01*
X190401270Y-80130000D01*
X189961184Y-80217539D01*
X189588097Y-80466827D01*
X189338809Y-80839914D01*
X189251270Y-81280000D01*
X162439441Y-81280000D01*
X162383152Y-81143771D01*
X162214517Y-80974841D01*
X161994071Y-80883304D01*
X161875241Y-80883200D01*
X159732041Y-78740000D01*
X189251270Y-78740000D01*
X189338809Y-79180086D01*
X189588097Y-79553173D01*
X189961184Y-79802461D01*
X190401270Y-79890000D01*
X190446330Y-79890000D01*
X190886416Y-79802461D01*
X191259503Y-79553173D01*
X191508791Y-79180086D01*
X191596330Y-78740000D01*
X191803970Y-78740000D01*
X191891509Y-79180086D01*
X192140797Y-79553173D01*
X192513884Y-79802461D01*
X192953970Y-79890000D01*
X192999030Y-79890000D01*
X193439116Y-79802461D01*
X193812203Y-79553173D01*
X194061491Y-79180086D01*
X194149030Y-78740000D01*
X194061491Y-78299914D01*
X193812203Y-77926827D01*
X193439116Y-77677539D01*
X192999030Y-77590000D01*
X192953970Y-77590000D01*
X192513884Y-77677539D01*
X192140797Y-77926827D01*
X191891509Y-78299914D01*
X191803970Y-78740000D01*
X191596330Y-78740000D01*
X191508791Y-78299914D01*
X191259503Y-77926827D01*
X190886416Y-77677539D01*
X190446330Y-77590000D01*
X190401270Y-77590000D01*
X189961184Y-77677539D01*
X189588097Y-77926827D01*
X189338809Y-78299914D01*
X189251270Y-78740000D01*
X159732041Y-78740000D01*
X157192041Y-76200000D01*
X189251270Y-76200000D01*
X189338809Y-76640086D01*
X189588097Y-77013173D01*
X189961184Y-77262461D01*
X190401270Y-77350000D01*
X190446330Y-77350000D01*
X190886416Y-77262461D01*
X191259503Y-77013173D01*
X191508791Y-76640086D01*
X191596330Y-76200000D01*
X191803970Y-76200000D01*
X191891509Y-76640086D01*
X192140797Y-77013173D01*
X192513884Y-77262461D01*
X192953970Y-77350000D01*
X192999030Y-77350000D01*
X193439116Y-77262461D01*
X193812203Y-77013173D01*
X194061491Y-76640086D01*
X194149030Y-76200000D01*
X194061491Y-75759914D01*
X193812203Y-75386827D01*
X193439116Y-75137539D01*
X192999030Y-75050000D01*
X192953970Y-75050000D01*
X192513884Y-75137539D01*
X192140797Y-75386827D01*
X191891509Y-75759914D01*
X191803970Y-76200000D01*
X191596330Y-76200000D01*
X191508791Y-75759914D01*
X191259503Y-75386827D01*
X190886416Y-75137539D01*
X190446330Y-75050000D01*
X190401270Y-75050000D01*
X189961184Y-75137539D01*
X189588097Y-75386827D01*
X189338809Y-75759914D01*
X189251270Y-76200000D01*
X157192041Y-76200000D01*
X156724633Y-75732593D01*
X156693552Y-75657371D01*
X156524917Y-75488441D01*
X156304471Y-75396904D01*
X156065776Y-75396696D01*
X155845171Y-75487848D01*
X155676241Y-75656483D01*
X155584704Y-75876929D01*
X155584496Y-76115624D01*
X153581147Y-76115624D01*
X153510391Y-75759914D01*
X153261103Y-75386827D01*
X152888016Y-75137539D01*
X152447930Y-75050000D01*
X152402870Y-75050000D01*
X151962784Y-75137539D01*
X151589697Y-75386827D01*
X151340409Y-75759914D01*
X151252870Y-76200000D01*
X151032530Y-76200000D01*
X150944991Y-75759914D01*
X150695703Y-75386827D01*
X150322616Y-75137539D01*
X149882530Y-75050000D01*
X149837470Y-75050000D01*
X149397384Y-75137539D01*
X149024297Y-75386827D01*
X148775009Y-75759914D01*
X148687470Y-76200000D01*
X147847000Y-76200000D01*
X147847000Y-71426000D01*
X148402000Y-71426000D01*
X148402000Y-72090938D01*
X148494562Y-72314404D01*
X148665595Y-72485437D01*
X148889061Y-72578000D01*
X149495613Y-72578000D01*
X149397384Y-72597539D01*
X149024297Y-72846827D01*
X148775009Y-73219914D01*
X148687470Y-73660000D01*
X148775009Y-74100086D01*
X149024297Y-74473173D01*
X149397384Y-74722461D01*
X149837470Y-74810000D01*
X149882530Y-74810000D01*
X150322616Y-74722461D01*
X150695703Y-74473173D01*
X150944991Y-74100086D01*
X151032530Y-73660000D01*
X150944991Y-73219914D01*
X150695703Y-72846827D01*
X150322616Y-72597539D01*
X150224387Y-72578000D01*
X150830939Y-72578000D01*
X151054405Y-72485437D01*
X151142700Y-72397142D01*
X151230995Y-72485437D01*
X151454461Y-72578000D01*
X152061013Y-72578000D01*
X151962784Y-72597539D01*
X151589697Y-72846827D01*
X151340409Y-73219914D01*
X151252870Y-73660000D01*
X151340409Y-74100086D01*
X151589697Y-74473173D01*
X151962784Y-74722461D01*
X152402870Y-74810000D01*
X152447930Y-74810000D01*
X152888016Y-74722461D01*
X153261103Y-74473173D01*
X153510391Y-74100086D01*
X153597930Y-73660000D01*
X189251270Y-73660000D01*
X189338809Y-74100086D01*
X189588097Y-74473173D01*
X189961184Y-74722461D01*
X190401270Y-74810000D01*
X190446330Y-74810000D01*
X190886416Y-74722461D01*
X191259503Y-74473173D01*
X191508791Y-74100086D01*
X191596330Y-73660000D01*
X191803970Y-73660000D01*
X191891509Y-74100086D01*
X192140797Y-74473173D01*
X192513884Y-74722461D01*
X192953970Y-74810000D01*
X192999030Y-74810000D01*
X193439116Y-74722461D01*
X193812203Y-74473173D01*
X194061491Y-74100086D01*
X194149030Y-73660000D01*
X194061491Y-73219914D01*
X193812203Y-72846827D01*
X193439116Y-72597539D01*
X192999030Y-72510000D01*
X192953970Y-72510000D01*
X192513884Y-72597539D01*
X192140797Y-72846827D01*
X191891509Y-73219914D01*
X191803970Y-73660000D01*
X191596330Y-73660000D01*
X191508791Y-73219914D01*
X191259503Y-72846827D01*
X190886416Y-72597539D01*
X190446330Y-72510000D01*
X190401270Y-72510000D01*
X189961184Y-72597539D01*
X189588097Y-72846827D01*
X189338809Y-73219914D01*
X189251270Y-73660000D01*
X153597930Y-73660000D01*
X153510391Y-73219914D01*
X153261103Y-72846827D01*
X152888016Y-72597539D01*
X152789787Y-72578000D01*
X153396339Y-72578000D01*
X153619805Y-72485437D01*
X153790838Y-72314404D01*
X153883400Y-72090938D01*
X153883400Y-71426000D01*
X153731400Y-71274000D01*
X152579400Y-71274000D01*
X152579400Y-71294000D01*
X152271400Y-71294000D01*
X152271400Y-71274000D01*
X150014000Y-71274000D01*
X150014000Y-71294000D01*
X149706000Y-71294000D01*
X149706000Y-71274000D01*
X148554000Y-71274000D01*
X148402000Y-71426000D01*
X147847000Y-71426000D01*
X147847000Y-69886500D01*
X148533658Y-69886500D01*
X148494562Y-69925596D01*
M02*
